<?xml version="1.0" standalone="no"?>
<!DOCTYPE svg PUBLIC "-//W3C//DTD SVG 1.1//EN" "http://www.w3.org/Graphics/SVG/1.1/DTD/svg11.dtd" >
<svg>
<metadata>
Created by FontForge 20090622 at Thu Nov 29 15:24:02 2018
 By deploy user
Copyright (c) 1990-1997 ParaGraph.  !!! Bugs fixed and optimised by Ghidkih Igor (QWERTY) in 2002 year. Enjoy!!!
</metadata>
<defs>
<font id="Magistral" horiz-adv-x="681" >
  <font-face 
    font-family="Magistral"
    font-weight="400"
    font-stretch="normal"
    units-per-em="1000"
    panose-1="0 0 4 0 0 0 0 0 0 0"
    ascent="800"
    descent="-200"
    x-height="530"
    cap-height="700"
    bbox="-30 -180 1139 879"
    underline-thickness="20"
    underline-position="-123"
    unicode-range="U+0020-U+2219"
  />
<missing-glyph horiz-adv-x="500" 
d="M63 0v800h375v-800h-375zM125 63h250v675h-250v-675z" />
    <glyph glyph-name=".notdef" horiz-adv-x="500" 
d="M63 0v800h375v-800h-375zM125 63h250v675h-250v-675z" />
    <glyph glyph-name=".null" horiz-adv-x="0" 
 />
    <glyph glyph-name="nonmarkingreturn" horiz-adv-x="233" 
 />
    <glyph glyph-name="space" unicode=" " horiz-adv-x="233" 
 />
    <glyph glyph-name="exclam" unicode="!" horiz-adv-x="194" 
d="M124 158h-54v542h54v-542zM124 0h-54v77h54v-77z" />
    <glyph glyph-name="quotedbl" unicode="&#x22;" horiz-adv-x="262" 
d="M212 513h-54v187h54v-187zM104 513h-54v187h54v-187z" />
    <glyph glyph-name="numbersign" unicode="#" horiz-adv-x="800" 
d="M770 516l-19 -47h-140l-92 -227h140l-19 -47h-140l-78 -195h-52l78 195h-226l-78 -195h-52l78 195h-140l19 47h140l92 227h-140l19 47h140l74 184h52l-74 -184h226l74 184h52l-74 -184h140zM559 469h-226l-92 -227h226z" />
    <glyph glyph-name="dollar" unicode="$" horiz-adv-x="650" 
d="M600 163q0 -91 -48 -131q-38 -32 -124 -32h-82v-68h-44v68h-236v47h236v291l-152 57q-49 18 -72 46q-28 34 -28 102q0 70 33 110q39 47 120 47h99v68h44v-68h220v-47h-220v-280l132 -50q54 -20 83 -49q39 -38 39 -111zM302 390v263h-105q-50 0 -73 -31q-18 -24 -18 -81
q0 -78 52 -97zM544 156q0 90 -72 117l-126 48v-274h100q49 0 77 33q21 25 21 76z" />
    <glyph glyph-name="percent" unicode="%" 
d="M314 539q0 -98 -38 -136q-31 -31 -94 -31t-94 31q-38 38 -38 136t38 136q31 31 94 31t94 -31q38 -38 38 -136zM525 700l-318 -700h-47l318 700h47zM631 161q0 -98 -38 -136q-31 -31 -94 -31t-94 31q-38 38 -38 136t38 136q31 31 94 31t94 -31q38 -38 38 -136zM264 539
q0 74 -20 100t-62 26t-62 -26t-20 -100t20 -100t62 -26t62 26t20 100zM581 161q0 71 -22 100q-20 26 -60 26t-60 -26q-22 -29 -22 -100t21 -98.5t61 -27.5t61 27.5t21 98.5z" />
    <glyph glyph-name="ampersand" unicode="&#x26;" horiz-adv-x="632" 
d="M622 323h-117v-247q0 -44 -13.5 -60t-62.5 -16h-208q-94 0 -132.5 46.5t-38.5 144.5q0 78 22 110q26 38 77 47v2q-44 5 -70 42q-29 41 -29 123q0 101 41 143t120 42h299v-47h-290q-58 0 -84 -24q-30 -28 -30 -110q0 -83 28 -113q33 -36 104 -36h384v-47zM457 80v243h-254
q-60 0 -85 -45q-12 -22 -12 -97q0 -69 17 -95q26 -39 97 -39h192q32 0 38.5 6.5t6.5 26.5z" />
    <glyph glyph-name="quotesingle" unicode="'" horiz-adv-x="154" 
d="M104 513h-54v187h54v-187z" />
    <glyph glyph-name="parenleft" unicode="(" horiz-adv-x="324" 
d="M294 -154q-82 3 -145 55q-54 45 -70 118q-9 41 -9 129v254q0 96 10 136q17 70 69 112q58 48 145 54v-46q-100 -7 -146 -86q-28 -48 -28 -144v-306q0 -96 28 -144q46 -79 146 -86v-46z" />
    <glyph glyph-name="parenright" unicode=")" horiz-adv-x="324" 
d="M254 148q0 -88 -9 -129q-16 -73 -70 -118q-63 -52 -145 -55v46q100 7 146 86q28 48 28 144v306q0 96 -28 144q-46 79 -146 86v46q87 -6 145 -54q52 -42 69 -112q10 -40 10 -136v-254z" />
    <glyph glyph-name="asterisk" unicode="*" horiz-adv-x="508" 
d="M458 382l-21 -36l-162 94v-188h-42v188l-162 -94l-21 36l162 94l-162 94l21 36l162 -94v188h42v-188l162 94l21 -36l-162 -94z" />
    <glyph glyph-name="plus" unicode="+" horiz-adv-x="566" 
d="M496 286h-186v-186h-54v186h-186v48h186v186h54v-186h186v-48z" />
    <glyph glyph-name="comma" unicode="," horiz-adv-x="194" 
d="M144 75l-96 -161l-48 29l96 161z" />
    <glyph glyph-name="hyphen" unicode="-" horiz-adv-x="400" 
d="M350 242h-300v58h300v-58z" />
    <glyph glyph-name="hyphen" unicode="&#x2010;" horiz-adv-x="400" 
d="M350 242h-300v58h300v-58z" />
    <glyph glyph-name="period" unicode="." horiz-adv-x="160" 
d="M110 0h-60v87h60v-87z" />
    <glyph glyph-name="slash" unicode="/" horiz-adv-x="468" 
d="M478 740l-438 -903h-50l438 903h50z" />
    <glyph glyph-name="zero" unicode="0" horiz-adv-x="612" 
d="M562 234q0 -140 -86 -201q-38 -27 -85 -33q-19 -3 -85 -3t-85 3q-47 6 -85 33q-86 61 -86 201v248q0 108 70 170q61 54 186 54t186 -54q70 -62 70 -170v-248zM508 253v214q0 108 -65 155q-49 36 -137 36t-137 -36q-65 -47 -65 -155v-214q0 -111 41 -157q46 -51 160 -51
q117 0 162 51q41 46 41 157z" />
    <glyph glyph-name="one" unicode="1" horiz-adv-x="209" 
d="M139 0h-54v612q0 22 -4.5 31t-19.5 9h-71v48h84q31 0 48 -14t17 -53v-633z" />
    <glyph glyph-name="two" unicode="2" horiz-adv-x="585" 
d="M535 517q0 -85 -30 -129q-17 -25 -49 -50l-338 -268q-12 -6 -12 -14t9 -8h380v-48h-393q-52 0 -52 48q0 34 27 55l349 276q31 24 42 52t11 83q0 81 -18 106q-23 32 -81 32h-278v48h273q84 0 120 -37q40 -41 40 -146z" />
    <glyph glyph-name="three" unicode="3" horiz-adv-x="564" 
d="M514 186q0 -103 -39 -147q-34 -39 -108 -39h-317v48h285q66 0 88 16q35 26 35 114q0 94 -33 125q-27 25 -76 25h-281v48h276q59 0 84.5 27.5t25.5 109.5q0 81 -22 110t-63 29h-303v48h294q83 0 119 -48q31 -42 31 -139q0 -93 -30 -129q-24 -29 -64 -33v-2q38 -5 63 -33
q35 -40 35 -130z" />
    <glyph glyph-name="four" unicode="4" horiz-adv-x="610" 
d="M580 139h-73v-139h-54v139h-356q-38 0 -55 12q-22 16 -22 45q0 23 25 53l358 423q30 36 65 36q23 0 31 -11.5t8 -34.5v-475h73v-48zM453 187v460q0 3 -4 3q-2 0 -10 -9l-350 -417q-15 -18 -15 -24q0 -13 21 -13h358z" />
    <glyph glyph-name="five" unicode="5" horiz-adv-x="571" 
d="M521 202q0 -121 -47 -167q-36 -35 -108 -35h-316v48h318q53 0 77 41q20 34 20 120q0 65 -19 93q-22 33 -68 33h-189q-71 0 -100 22q-38 29 -38 86v185q0 33 18.5 52.5t53.5 19.5h371v-48h-362q-15 0 -21 -8t-6 -29v-152q0 -40 10 -55q17 -25 56 -25h206q73 0 108.5 -41.5
t35.5 -139.5z" />
    <glyph glyph-name="six" unicode="6" horiz-adv-x="570" 
d="M520 213q0 -92 -30 -141q-44 -72 -158 -72h-102q-71 0 -114 29q-66 44 -66 162v330q0 101 62 148q41 31 106 31h268v-48h-257q-61 0 -93 -34t-32 -94v-106h233q84 0 128 -40q55 -50 55 -165zM464 216q0 81 -33.5 117.5t-106.5 36.5h-220v-192q0 -65 28 -96q30 -34 96 -34
h104q71 0 101.5 39t30.5 129z" />
    <glyph glyph-name="seven" unicode="7" horiz-adv-x="465" 
d="M485 647q0 -31 -20 -63l-370 -584h-61l381 605q12 19 12 31q0 16 -17 16h-430v48h440q65 0 65 -53z" />
    <glyph glyph-name="eight" unicode="8" horiz-adv-x="590" 
d="M540 180q0 -84 -31 -124q-44 -56 -137 -56h-154q-93 0 -137 56q-31 40 -31 124q0 106 41 145q24 22 63 28v2q-33 7 -55 33q-32 37 -32 120q0 114 44 156q38 36 131 36h106q93 0 131 -36q44 -42 44 -156q0 -83 -32 -120q-22 -26 -55 -33v-2q39 -6 63 -28q41 -39 41 -145z
M467 510q0 91 -35 121q-24 21 -87 21h-100q-63 0 -87 -21q-35 -30 -35 -121q0 -68 17 -94q25 -38 94 -38h122q69 0 94 38q17 26 17 94zM484 190q0 87 -39 118q-28 22 -77 22h-146q-49 0 -77 -22q-39 -31 -39 -118q0 -76 24 -107q27 -35 88 -35h154q61 0 88 35q24 31 24 107z
" />
    <glyph glyph-name="nine" unicode="9" horiz-adv-x="570" 
d="M520 228q0 -98 -24 -146q-41 -82 -155 -82h-250v48h231q78 0 111 35t33 126v81h-258q-73 0 -115.5 48.5t-42.5 154.5q0 121 56 169q44 38 141 38h77q122 0 166 -64q30 -43 30 -122v-286zM466 338v175q0 72 -32.5 105.5t-99.5 33.5h-99q-61 0 -93 -35q-36 -39 -36 -123
q0 -91 35 -126q30 -30 108 -30h217z" />
    <glyph glyph-name="colon" unicode=":" horiz-adv-x="180" 
d="M120 449h-60v81h60v-81zM120 0h-60v81h60v-81z" />
    <glyph glyph-name="semicolon" unicode=";" horiz-adv-x="204" 
d="M144 449h-60v81h60v-81zM144 75l-96 -161l-48 29l96 161z" />
    <glyph glyph-name="less" unicode="&#x3c;" horiz-adv-x="567" 
d="M497 116l-427 215l427 215v-54l-331 -161l331 -161v-54z" />
    <glyph glyph-name="equal" unicode="=" horiz-adv-x="566" 
d="M496 340h-426v48h426v-48zM496 232h-426v48h426v-48z" />
    <glyph glyph-name="greater" unicode="&#x3e;" horiz-adv-x="567" 
d="M497 331l-427 -215v54l331 161l-331 161v54z" />
    <glyph glyph-name="question" unicode="?" horiz-adv-x="437" 
d="M397 531q0 -69 -27 -109q-20 -28 -66 -55l-98 -58q-25 -15 -34 -29q-11 -17 -11 -36v-86h-54v76q0 45 19 72q17 24 58 48l92 54q37 22 51 48t14 68q0 69 -24.5 98.5t-82.5 29.5h-224v48h231q76 0 116 -41t40 -128zM161 0h-54v77h54v-77z" />
    <glyph glyph-name="at" unicode="@" horiz-adv-x="973" 
d="M913 323q0 -152 -30 -214q-38 -79 -134 -79t-116 89q-51 -89 -179 -89q-114 0 -160 82q-30 54 -30 163q0 105 27 159q47 94 165 94h130q46 0 67 -21q18 -18 18 -64v-236q0 -130 82 -130q65 0 90 71q14 39 14 184q0 141 -32 206q-57 115 -231 115h-191q-215 0 -265 -147
q-22 -64 -22 -219q0 -152 20 -221q49 -167 249 -167h290v-47h-303q-168 0 -246 108q-66 92 -66 326q0 122 10 178q13 78 56 132q51 63 132 87q58 17 150 17h181q86 0 139 -16q91 -29 138 -109.5t47 -251.5zM619 271v177q0 15 -8.5 24.5t-31.5 9.5h-103q-100 0 -132 -61
q-24 -46 -24 -144q0 -86 12 -122q16 -48 52 -66q26 -12 73 -12q90 0 129 56q33 48 33 138z" />
    <glyph glyph-name="A" unicode="A" horiz-adv-x="672" 
d="M682 0h-58l-85 204h-406l-85 -204h-58l268 634q31 74 78 74t78 -74zM518 252l-153 366q-17 40 -29 40t-29 -40l-153 -366h364z" />
    <glyph glyph-name="B" unicode="B" 
d="M631 189q0 -52 -5 -75q-8 -41 -37 -73q-37 -41 -100 -41h-309q-67 0 -88.5 22.5t-21.5 67.5v518q0 44 20 68t62 24h323q67 0 105 -39q44 -45 44 -150q0 -79 -30 -118q-25 -32 -64 -37v-4q45 -5 73 -39t28 -124zM566 518q0 82 -32 113q-22 21 -67 21h-303q-23 0 -30 -8
q-10 -11 -10 -32v-236h328q68 0 92 31q22 28 22 111zM573 188q0 76 -18 103q-24 37 -72 37h-359v-226q0 -34 8 -44t45 -10h279q71 0 95 33q22 30 22 107z" />
    <glyph glyph-name="C" unicode="C" horiz-adv-x="639" 
d="M619 0h-282q-130 0 -208.5 78.5t-78.5 261.5q0 194 75 275q79 85 215 85h268v-48h-245q-140 0 -203 -81q-52 -67 -52 -232q0 -142 46 -206q61 -85 194 -85h271v-48z" />
    <glyph glyph-name="D" unicode="D" horiz-adv-x="728" 
d="M678 362q0 -189 -70 -278q-66 -84 -192 -84h-248q-51 0 -73 17q-25 20 -25 60v523q0 49 24.5 74.5t65.5 25.5h238q121 0 201 -81q50 -51 68 -128q11 -48 11 -129zM620 366q0 143 -54 211q-60 75 -165 75h-236q-19 0 -28 -7q-13 -11 -13 -31v-522q0 -29 7.5 -36.5
t31.5 -7.5h251q118 0 168 93q38 71 38 225z" />
    <glyph glyph-name="E" unicode="E" horiz-adv-x="620" 
d="M580 0h-415q-52 0 -73.5 21.5t-21.5 75.5v510q0 43 21 68t72 25h413v-48h-405q-24 0 -35.5 -9.5t-11.5 -35.5v-225h442v-48h-442v-249q0 -19 10.5 -28t44.5 -9h401v-48z" />
    <glyph glyph-name="F" unicode="F" horiz-adv-x="574" 
d="M554 652h-406q-13 0 -18.5 -6.5t-5.5 -21.5v-244h314v-48h-314v-332h-54v629q0 30 19.5 50.5t62.5 20.5h402v-48z" />
    <glyph glyph-name="G" unicode="G" horiz-adv-x="704" 
d="M654 78q0 -52 -32 -68q-21 -10 -50 -10h-271q-90 0 -153 51q-98 79 -98 295q0 111 20 177q29 93 105 138q66 39 163 39h300v-48h-315q-130 0 -183 -105q-32 -63 -32 -197q0 -135 31 -201q48 -101 161 -101h258q24 0 33 11t9 33v229h54v-243z" />
    <glyph glyph-name="H" unicode="H" horiz-adv-x="702" 
d="M632 0h-54v332h-454v-332h-54v700h54v-320h454v320h54v-700z" />
    <glyph glyph-name="I" unicode="I" horiz-adv-x="194" 
d="M124 0h-54v700h54v-700z" />
    <glyph glyph-name="J" unicode="J" horiz-adv-x="392" 
d="M322 235q0 -114 -54 -171q-61 -64 -149 -64h-139v48h128q72 0 114 41q46 44 46 145v466h54v-465z" />
    <glyph glyph-name="K" unicode="K" horiz-adv-x="626" 
d="M656 0h-81l-351 271q-61 47 -61 89q0 36 50 76l328 264h78l-358 -290q-44 -36 -44 -51q0 -21 52 -61zM124 0h-54v700h54v-700z" />
    <glyph glyph-name="L" unicode="L" horiz-adv-x="543" 
d="M563 0h-417q-39 0 -57.5 15.5t-18.5 48.5v636h54v-618q0 -19 8.5 -26.5t29.5 -7.5h401v-48z" />
    <glyph glyph-name="M" unicode="M" horiz-adv-x="932" 
d="M862 0h-54v642q0 18 -14 18q-11 0 -19 -20l-238 -572q-32 -76 -71 -76t-71 76l-238 572q-8 20 -19 20q-14 0 -14 -18v-642h-54v642q0 29 18 47.5t48 18.5q47 0 76 -69l237 -570q9 -22 17 -22t17 22l237 570q29 69 76 69q30 0 48 -18.5t18 -47.5v-642z" />
    <glyph glyph-name="N" unicode="N" horiz-adv-x="732" 
d="M662 70q0 -78 -64 -78q-38 0 -70 51l-366 591q-11 17 -23 17q-15 0 -15 -20v-631h-54v637q0 71 66 71q40 0 69 -47l368 -594q11 -18 22 -18q13 0 13 18v633h54v-630z" />
    <glyph glyph-name="O" unicode="O" horiz-adv-x="778" 
d="M728 350q0 -199 -83 -282q-76 -76 -256 -76t-256 76q-83 83 -83 282t83 282q76 76 256 76t256 -76q83 -83 83 -282zM670 350q0 82 -8 128q-13 72 -52 115.5t-108 58.5q-39 8 -113 8t-113 -8q-69 -15 -108 -58.5t-52 -115.5q-8 -46 -8 -128t8 -128q13 -72 52 -115.5
t108 -58.5q39 -8 113 -8t113 8q69 15 108 58.5t52 115.5q8 46 8 128z" />
    <glyph glyph-name="P" unicode="P" 
d="M631 485q0 -124 -58 -169q-39 -30 -94 -30h-355v-286h-54v617q0 46 19.5 64.5t66.5 18.5h289q90 0 133 -37q53 -46 53 -178zM573 499q0 89 -29 121t-94 32h-286q-27 0 -35 -12q-5 -8 -5 -31v-275h324q71 0 98 32t27 133z" />
    <glyph glyph-name="Q" unicode="Q" horiz-adv-x="781" 
d="M735 0h-345q-186 0 -257 68q-83 79 -83 282q0 199 83 282q76 76 256 76q82 0 132 -11q78 -17 126 -65q81 -80 81 -282q0 -161 -44 -234q-25 -41 -67 -65v-3h118v-48zM670 350q0 83 -8 128q-13 71 -51.5 114t-101.5 58q-42 10 -120 10t-120 -10q-63 -15 -101.5 -58
t-51.5 -114q-8 -45 -8 -128q0 -181 60 -243q57 -59 221 -59q165 0 221 59q60 63 60 243z" />
    <glyph glyph-name="R" unicode="R" horiz-adv-x="701" 
d="M651 0h-79l-309 264q-19 16 -19 28v16q0 23 24 23h217q49 0 72 39q19 32 19 124q0 102 -33 133q-27 25 -83 25h-286q-24 0 -37 -12t-13 -35v-605h-54v593q0 57 28 82t77 25h295q94 0 133 -60q31 -47 31 -150q0 -97 -31 -146q-39 -61 -125 -61h-155v-5z" />
    <glyph glyph-name="S" unicode="S" horiz-adv-x="646" 
d="M596 170q0 -80 -34.5 -125t-111.5 -45h-389v48h395q82 0 82 120q0 47 -20.5 73t-67.5 42l-279 96q-58 20 -86 52q-35 40 -35 113q0 81 47 121q42 35 111 35h355v-48h-361q-48 0 -73 -27q-21 -23 -21 -83q0 -42 10 -63q16 -32 61 -48l272 -96q75 -27 102 -52
q43 -41 43 -113z" />
    <glyph glyph-name="T" unicode="T" horiz-adv-x="600" 
d="M620 652h-293v-652h-54v652h-293v48h640v-48z" />
    <glyph glyph-name="U" unicode="U" horiz-adv-x="676" 
d="M606 218q0 -100 -50 -155q-64 -71 -218 -71t-218 71q-50 55 -50 155v482h54v-463q0 -100 36 -142q47 -55 178 -55t178 55q36 42 36 142v463h54v-482z" />
    <glyph glyph-name="V" unicode="V" horiz-adv-x="608" 
d="M628 700l-263 -662q-18 -46 -61 -46t-61 46l-263 662h61l246 -639q6 -15 17 -15t17 15l246 639h61z" />
    <glyph glyph-name="W" unicode="W" horiz-adv-x="900" 
d="M920 700l-166 -649q-15 -59 -66 -59q-53 0 -70 64l-152 575q-5 20 -16 20t-16 -20l-152 -575q-17 -64 -70 -64q-51 0 -66 59l-166 649h55l158 -634q5 -22 17 -22q14 0 19 18l150 578q18 68 71 68t71 -68l150 -578q5 -18 19 -18q12 0 17 22l158 634h55z" />
    <glyph glyph-name="X" unicode="X" horiz-adv-x="560" 
d="M580 0h-64l-236 316l-236 -316h-64l271 355l-263 345h64l228 -306l228 306h64l-263 -345z" />
    <glyph glyph-name="Y" unicode="Y" horiz-adv-x="594" 
d="M614 700l-290 -470v-230h-54v230l-290 470h60l257 -421l257 421h60z" />
    <glyph glyph-name="Z" unicode="Z" horiz-adv-x="578" 
d="M568 646q0 -29 -24 -55l-467 -510q-9 -10 -9 -21q0 -12 11 -12h475v-48h-472q-72 0 -72 56q0 27 24 53l465 502q11 12 11 26q0 15 -18 15h-458v48h471q27 0 45 -14.5t18 -39.5z" />
    <glyph glyph-name="bracketleft" unicode="[" horiz-adv-x="324" 
d="M294 -154h-224v858h224v-46h-174v-766h174v-46z" />
    <glyph glyph-name="backslash" unicode="\" horiz-adv-x="468" 
d="M478 -163h-50l-438 903h50z" />
    <glyph glyph-name="bracketright" unicode="]" horiz-adv-x="324" 
d="M254 -154h-224v46h174v766h-174v46h224v-858z" />
    <glyph glyph-name="asciicircum" unicode="^" horiz-adv-x="452" 
d="M422 549l-28 -35l-147 129q-10 9 -21 9t-21 -9l-147 -129l-28 35l157 134q20 17 39 17t39 -17z" />
    <glyph glyph-name="underscore" unicode="_" horiz-adv-x="592" 
d="M542 0h-492v58h492v-58z" />
    <glyph glyph-name="grave" unicode="`" horiz-adv-x="214" 
d="M184 599l-31 -39l-123 100l31 39z" />
    <glyph glyph-name="a" unicode="a" horiz-adv-x="505" 
d="M455 70q0 -38 -17 -54t-61 -16h-204q-66 0 -96 24q-47 38 -47 140q0 88 44 125q34 28 99 28h230v79q0 39 -20 63t-56 24h-257v47h260q59 0 92 -36t33 -107v-317zM403 71v199h-242q-39 0 -57 -24.5t-18 -83.5q0 -67 20 -91t53 -24h214q16 0 23 6t7 18z" />
    <glyph glyph-name="b" unicode="b" horiz-adv-x="516" 
d="M486 258q0 -113 -35 -171q-52 -87 -180 -87h-114q-62 0 -82 16q-25 20 -25 67v617h52v-170h166q130 0 182 -87q36 -60 36 -185zM430 243q0 116 -21 164q-33 76 -145 76h-162v-395q0 -25 6.5 -33t30.5 -8h121q110 0 148 70q22 41 22 126z" />
    <glyph glyph-name="c" unicode="c" horiz-adv-x="476" 
d="M446 0h-212q-100 0 -156 67q-48 57 -48 191q0 152 59 212t166 60h179v-47h-185q-126 0 -153 -108q-10 -40 -10 -124t18 -125q35 -79 156 -79h186v-47z" />
    <glyph glyph-name="d" unicode="d" horiz-adv-x="513" 
d="M463 77q0 -41 -14.5 -59t-57.5 -18h-165q-128 0 -172 107q-24 58 -24 172t40 172q54 79 180 79h161v170h52v-623zM411 92v391h-173q-90 0 -126 -60q-26 -44 -26 -152q0 -101 15 -142q30 -82 137 -82h133q32 0 37 18q3 11 3 27z" />
    <glyph glyph-name="e" unicode="e" horiz-adv-x="517" 
d="M487 332q0 -50 -22 -69q-18 -16 -56 -16h-323q-2 -68 9 -108q26 -92 118 -92h260v-47h-260q-90 0 -140 65q-28 36 -37 90q-6 36 -6 108q0 74 10 117q16 66 61 103q56 47 166 47q84 0 135 -30q85 -50 85 -168zM431 329q0 66 -36 108q-39 46 -137 46q-52 0 -79 -9
q-43 -14 -67 -54t-26 -126h323q22 0 22 35z" />
    <glyph glyph-name="f" unicode="f" horiz-adv-x="265" 
d="M275 659q-79 0 -110 -27q-36 -32 -34 -102h143v-47h-143v-483h-52v483h-69v47h69q-2 85 42 129q49 49 154 47v-47z" />
    <glyph glyph-name="g" unicode="g" horiz-adv-x="541" 
d="M491 61q0 -122 -43 -172q-51 -59 -168 -59h-212v47h212q82 0 118.5 32.5t40.5 90.5h-205q-56 0 -87 10q-47 15 -75 59q-42 65 -42 209q0 138 59 198q53 54 158 54h132q55 0 81 -19q31 -23 31 -74v-376zM439 47v393q0 25 -13.5 34t-33.5 9h-164q-63 0 -98 -37
q-44 -46 -44 -178q0 -140 40 -187q29 -34 105 -34h208z" />
    <glyph glyph-name="h" unicode="h" horiz-adv-x="515" 
d="M465 0h-52v358q0 63 -27 94t-85 31h-199v-483h-52v700h52v-170h194q83 0 123 -38q46 -43 46 -140v-352z" />
    <glyph glyph-name="i" unicode="i" horiz-adv-x="156" 
d="M106 626h-56v74h56v-74zM104 0h-52v530h52v-530z" />
    <glyph glyph-name="j" unicode="j" horiz-adv-x="258" 
d="M208 626h-56v74h56v-74zM206 -9q0 -90 -60 -136q-45 -35 -123 -35q-16 0 -33 2v47q83 -4 123.5 28t40.5 104v529h52v-539z" />
    <glyph glyph-name="k" unicode="k" horiz-adv-x="459" 
d="M469 0h-72l-215 198q-41 38 -41 76q0 37 42 76l192 180h70l-230 -216q-18 -17 -18 -38q0 -24 28 -50zM102 0h-52v700h52v-700z" />
    <glyph glyph-name="l" unicode="l" horiz-adv-x="152" 
d="M102 0h-52v700h52v-700z" />
    <glyph glyph-name="m" unicode="m" horiz-adv-x="816" 
d="M766 0h-52v381q0 52 -23 77t-78 25h-179v-483h-52v483h-248q-18 0 -25 -8t-7 -29v-446h-52v441q0 41 12 60q18 29 60 29h492q74 0 111 -33q41 -36 41 -120v-377z" />
    <glyph glyph-name="n" unicode="n" horiz-adv-x="518" 
d="M468 0h-52v355q0 66 -23 95q-26 33 -86 33h-188q-11 0 -14 -4t-3 -16v-463h-52v461q0 34 12 49q16 20 52 20h190q84 0 124 -40t40 -122v-368z" />
    <glyph glyph-name="o" unicode="o" horiz-adv-x="584" 
d="M554 268q0 -149 -66 -214q-61 -60 -196 -60t-196 60q-66 65 -66 214q0 145 66 210q59 58 196 58t196 -58q66 -65 66 -210zM498 263q0 130 -43 178t-163 48t-163 -48t-43 -178q0 -124 43 -171q47 -51 163 -51t163 51q43 47 43 171z" />
    <glyph glyph-name="p" unicode="p" horiz-adv-x="512" 
d="M482 273q0 -130 -42 -194q-30 -45 -77 -63q-42 -16 -111 -16h-150v-170h-52v634q0 31 25 50q21 16 59 16h134q101 0 157.5 -60.5t56.5 -196.5zM426 266q0 97 -19 140q-34 77 -128 77h-153q-7 0 -15.5 -7t-8.5 -19v-410h171q84 0 123 60q30 46 30 159z" />
    <glyph glyph-name="q" unicode="q" horiz-adv-x="517" 
d="M467 -170h-52v170h-200q-98 0 -145 70q-40 60 -40 189q0 149 54 214q47 57 140 57h168q43 0 62 -26q13 -17 13 -63v-611zM415 47v404q0 16 -10 24t-29 8h-140q-102 0 -132 -79q-18 -47 -18 -140q0 -78 12 -124q24 -93 124 -93h193z" />
    <glyph glyph-name="r" unicode="r" horiz-adv-x="253" 
d="M263 483h-32q-71 0 -102 -37q-27 -32 -27 -110v-336h-52v348q0 94 46 138t131 44h36v-47z" />
    <glyph glyph-name="s" unicode="s" horiz-adv-x="504" 
d="M474 133q0 -81 -46 -113q-29 -20 -83 -20h-306v47h304q44 0 62 25q13 18 13 61q0 36 -19 54.5t-126 42.5l-92 21q-88 20 -122 59q-29 33 -29 88q0 51 27 86q36 46 128 46h254v-47h-275q-41 0 -59.5 -18.5t-18.5 -62.5q0 -47 21 -68t92 -37l96 -22q110 -25 141 -50
q38 -30 38 -92z" />
    <glyph glyph-name="t" unicode="t" horiz-adv-x="277" 
d="M287 0h-40q-49 0 -68 3q-38 6 -60 28q-36 35 -36 147v305h-73v47h73v170h52v-170h146v-47h-146v-294q0 -55 3 -73q5 -41 27 -56q19 -13 94 -13h28v-47z" />
    <glyph glyph-name="u" unicode="u" horiz-adv-x="522" 
d="M472 84q0 -48 -25 -68q-20 -16 -80 -16h-144q-89 0 -129 36q-44 40 -44 124v370h52v-354q0 -66 21 -94q26 -35 105 -35h147q24 0 34.5 10.5t10.5 33.5v439h52v-446z" />
    <glyph glyph-name="v" unicode="v" horiz-adv-x="458" 
d="M468 530l-184 -490q-17 -46 -55 -46t-55 46l-184 490h53l171 -462q8 -22 15 -22t15 22l171 462h53z" />
    <glyph glyph-name="w" unicode="w" horiz-adv-x="686" 
d="M696 530l-130 -492q-12 -44 -51 -44q-42 0 -54 45l-110 414q-3 18 -8 18t-8 -18l-110 -414q-12 -45 -54 -45q-39 0 -51 44l-130 492h52l119 -468q4 -16 11 -16q6 0 10 15l113 431q12 44 48 44t48 -44l113 -431q4 -15 10 -15q7 0 11 16l119 468h52z" />
    <glyph glyph-name="x" unicode="x" horiz-adv-x="430" 
d="M440 0h-63l-162 233l-162 -233h-63l197 272l-188 258h61l155 -219l155 219h61l-187 -258z" />
    <glyph glyph-name="y" unicode="y" horiz-adv-x="497" 
d="M507 530l-317 -701h-56l80 174l-224 527h56l196 -465l209 465h56z" />
    <glyph glyph-name="z" unicode="z" horiz-adv-x="441" 
d="M421 0h-336q-65 0 -65 45q0 24 26 55l306 359q10 12 10 15q0 9 -12 9h-315v47h339q20 0 32 -13t12 -30q0 -25 -15 -43l-319 -378q-8 -9 -8 -14t9 -5h336v-47z" />
    <glyph glyph-name="braceleft" unicode="{" horiz-adv-x="296" 
d="M266 -136q-46 -2 -85 23q-67 43 -76 132q-3 31 -3 67v127q0 48 -52 52v38q52 4 52 52v127q0 36 3 67q9 89 76 132q39 25 85 23v-46q-39 3 -69 -21q-45 -36 -45 -129v-138q0 -68 -39 -82v-8q39 -14 39 -82v-138q0 -93 45 -129q30 -24 69 -21v-46z" />
    <glyph glyph-name="bar" unicode="|" horiz-adv-x="150" 
d="M100 -163h-50v903h50v-903z" />
    <glyph glyph-name="braceright" unicode="}" horiz-adv-x="296" 
d="M246 265q-52 -4 -52 -52v-127q0 -36 -3 -67q-9 -89 -76 -132q-39 -25 -85 -23v46q39 -3 69 21q45 36 45 129v138q0 68 39 82v8q-39 14 -39 82v138q0 93 -45 129q-30 24 -69 21v46q46 2 85 -23q67 -43 76 -132q3 -31 3 -67v-127q0 -48 52 -52v-38z" />
    <glyph glyph-name="asciitilde" unicode="~" horiz-adv-x="533" 
d="M503 367q-25 -39 -58 -62q-37 -26 -83 -26q-38 0 -74 21l-45 26q-47 27 -75 27q-24 0 -49 -14q-31 -17 -54 -54l-35 32q25 36 60.5 60t80.5 24q40 0 74 -20l54 -32q37 -22 68 -22t57.5 20.5t43.5 50.5z" />
    <glyph glyph-name="currency" unicode="&#xa4;" horiz-adv-x="572" 
d="M502 130l-36 -36l-58 59q-50 -43 -122 -43t-122 43l-58 -59l-36 37l58 57q-42 54 -42 122t42 122l-58 58l36 36l57 -58q56 42 123 42q72 0 122 -43l58 59l36 -36l-58 -58q42 -54 42 -122t-42 -122zM434 310q0 61 -43.5 104.5t-104.5 43.5t-104.5 -43.5t-43.5 -104.5
t43.5 -104.5t104.5 -43.5t104.5 43.5t43.5 104.5z" />
    <glyph glyph-name="brokenbar" unicode="&#xa6;" horiz-adv-x="150" 
d="M100 440h-50v300h50v-300zM100 -63h-50v300h50v-300z" />
    <glyph glyph-name="section" unicode="&#xa7;" horiz-adv-x="484" 
d="M434 235q0 -71 -60 -104q-44 -25 -110 -23l64 -54q62 -52 62 -111q0 -63 -51 -96q-33 -21 -100 -21h-141v48h153q83 0 83 70q0 41 -33 69l-202 171q-49 41 -49 109q0 64 46 101t115 37l-69 59q-51 44 -51 98q0 49 33.5 80.5t89.5 31.5h173v-48h-176q-29 0 -46.5 -18
t-17.5 -46q0 -38 27 -61l204 -173q56 -47 56 -119zM378 250q0 41 -30 66l-84 71q-72 0 -106 -15q-52 -23 -52 -83q0 -47 31 -73l82 -70q52 0 88 10q71 20 71 94z" />
    <glyph glyph-name="dieresis" unicode="&#xa8;" horiz-adv-x="620" 
d="M460 787h-54v78h54v-78zM261 787h-54v78h54v-78zM580 0h-415q-52 0 -73.5 21.5t-21.5 75.5v510q0 43 21 68t72 25h413v-48h-405q-24 0 -35.5 -9.5t-11.5 -35.5v-225h442v-48h-442v-249q0 -19 10.5 -28t44.5 -9h401v-48z" />
    <glyph glyph-name="copyright" unicode="&#xa9;" horiz-adv-x="834" 
d="M784 351q0 -106 -22 -172q-29 -89 -103 -137q-77 -50 -242 -50t-240.5 49t-104.5 138q-22 66 -22 172q0 229 125 308q78 49 242 49t242 -49q125 -79 125 -308zM726 351q0 194 -93 261q-67 48 -216 48t-216 -48q-93 -67 -93 -261q0 -196 93 -264q64 -47 216 -47t216 47
q93 68 93 264zM569 149h-199q-83 0 -126 60q-34 47 -34 140q0 98 35 144q45 59 136 59h176v-48h-176q-63 0 -92 -52q-21 -37 -21 -116q0 -59 18 -93q24 -46 87 -46h196v-48z" />
    <glyph glyph-name="guillemotleft" unicode="&#xab;" horiz-adv-x="398" 
d="M348 133l-42 -29l-91 133q-18 26 -18 44t18 44l91 133l42 -29l-81 -116q-16 -23 -16 -32t16 -32zM239 74l-43 -29l-131 192q-15 22 -15 44t15 44l131 192l43 -29l-124 -179q-11 -16 -11 -28t11 -28z" />
    <glyph glyph-name="logicalnot" unicode="&#xac;" horiz-adv-x="566" 
d="M496 88h-50v198h-376v48h426v-246z" />
    <glyph glyph-name="registered" unicode="&#xae;" horiz-adv-x="546" 
d="M496 495q0 -122 -60 -173q-33 -28 -83 -35q-20 -3 -80 -3t-80 3q-50 7 -83 35q-60 51 -60 173t60 173q33 28 83 35q20 3 80 3t80 -3q50 -7 83 -35q60 -51 60 -173zM456 495q0 86 -30 127q-26 36 -72 46q-21 4 -81 4t-81 -4q-46 -10 -72 -46q-30 -41 -30 -127t30 -127
q26 -36 72 -46q21 -4 81 -4t81 4q46 10 72 46q30 41 30 127zM393 373h-54l-81 82q-12 12 -12 25q0 18 21 18h35q23 0 29.5 5t6.5 15v35q0 10 -7 19t-25 9h-81q-10 0 -13.5 -2t-3.5 -16v-190h-40v209q0 34 43 34h99q34 0 47 -10q23 -17 23 -68q0 -73 -53 -73h-25z" />
    <glyph glyph-name="degree" unicode="&#xb0;" horiz-adv-x="320" 
d="M270 674q0 -45 -32.5 -77.5t-77.5 -32.5t-77.5 32.5t-32.5 77.5t32.5 77.5t77.5 32.5t77.5 -32.5t32.5 -77.5zM230 674q0 29 -20.5 49.5t-49.5 20.5t-49.5 -20.5t-20.5 -49.5t20.5 -49.5t49.5 -20.5t49.5 20.5t20.5 49.5z" />
    <glyph glyph-name="plusminus" unicode="&#xb1;" horiz-adv-x="566" 
d="M496 326h-186v-186h-54v186h-186v48h186v186h54v-186h186v-48zM496 50h-426v48h426v-48z" />
    <glyph glyph-name="mu1" unicode="&#xb5;" horiz-adv-x="522" 
d="M472 0h-52v72q-58 -78 -163 -78q-99 0 -155 70v-242h-52v708h52v-350q0 -51 42 -95t114 -44q65 0 113.5 43.5t48.5 92.5v353h52v-530z" />
    <glyph glyph-name="paragraph" unicode="&#xb6;" horiz-adv-x="540" 
d="M510 653h-54v-823h-52v823h-52v-823h-52v460h-96q-77 0 -120 62q-34 49 -34 139q0 121 63 173q43 36 111 36h286v-47zM300 336v317h-81q-55 0 -85 -38t-30 -120q0 -73 20 -108q29 -51 103 -51h73z" />
    <glyph glyph-name="middot" unicode="&#xb7;" horiz-adv-x="160" 
d="M110 250h-60v87h60v-87z" />
    <glyph glyph-name="cedilla" unicode="&#xb8;" horiz-adv-x="517" 
d="M372 618h-56v82h56v-82zM194 618h-56v82h56v-82zM487 332q0 -50 -22 -69q-18 -16 -56 -16h-323q-2 -68 9 -108q26 -92 118 -92h260v-47h-260q-90 0 -140 65q-28 36 -37 90q-6 36 -6 108q0 74 10 117q16 66 61 103q56 47 166 47q84 0 135 -30q85 -50 85 -168zM431 329
q0 66 -36 108q-39 46 -137 46q-52 0 -79 -9q-43 -14 -67 -54t-26 -126h323q22 0 22 35z" />
    <glyph glyph-name="onesuperior" unicode="&#xb9;" horiz-adv-x="944" 
d="M894 522q0 -59 -25.5 -83.5t-79.5 -24.5t-79.5 24.5t-25.5 83.5v76q0 59 25.5 83.5t79.5 24.5t79.5 -24.5t25.5 -83.5v-76zM894 333h-210v40h210v-40zM633 70q0 -78 -61 -78q-39 0 -69 51l-347 591q-10 17 -20 17q-12 0 -12 -20v-631h-54v637q0 71 64 71q39 0 67 -47
l349 -594q11 -18 19 -18q9 0 10 6q0 -1 0 12v633h54v-630zM852 522v78q0 37 -13.5 52.5t-49.5 15.5t-49.5 -15.5t-13.5 -52.5v-78q0 -39 13.5 -54.5t49.5 -15.5t49.5 15.5t13.5 54.5z" />
    <glyph glyph-name="guillemotright" unicode="&#xbb;" horiz-adv-x="398" 
d="M348 281q0 -22 -15 -44l-131 -192l-43 29l124 179q11 16 11 28t-11 28l-124 179l43 29l131 -192q15 -22 15 -44zM201 281q0 -18 -18 -44l-91 -133l-42 29l81 116q16 23 16 32t-16 32l-81 116l42 29l91 -133q18 -26 18 -44z" />
    <glyph glyph-name="Agrave" unicode="&#xc0;" horiz-adv-x="672" 
d="M682 0h-58l-85 204h-406l-85 -204h-58l268 634q31 74 78 74t78 -74zM518 252l-153 366q-17 40 -29 40t-29 -40l-153 -366h364z" />
    <glyph glyph-name="Aacute" unicode="&#xc1;" 
d="M631 187q0 -100 -38 -143.5t-111 -43.5h-330q-49 0 -69 26q-13 17 -13 62v519q0 48 20.5 70.5t62.5 22.5h445v-48h-423q-30 0 -39 -8q-12 -10 -12 -36v-232h356q82 0 119 -49q32 -43 32 -140zM573 191q0 81 -29 112q-24 25 -82 25h-338v-222q0 -34 6 -43q10 -15 55 -15
h277q57 0 82 26q29 30 29 117z" />
    <glyph glyph-name="Acircumflex" unicode="&#xc2;" 
d="M631 189q0 -52 -5 -75q-8 -41 -37 -73q-37 -41 -100 -41h-309q-67 0 -88.5 22.5t-21.5 67.5v518q0 44 20 68t62 24h323q67 0 105 -39q44 -45 44 -150q0 -79 -30 -118q-25 -32 -64 -37v-4q45 -5 73 -39t28 -124zM566 518q0 82 -32 113q-22 21 -67 21h-303q-23 0 -30 -8
q-10 -11 -10 -32v-236h328q68 0 92 31q22 28 22 111zM573 188q0 76 -18 103q-24 37 -72 37h-359v-226q0 -34 8 -44t45 -10h279q71 0 95 33q22 30 22 107z" />
    <glyph glyph-name="Atilde" unicode="&#xc3;" horiz-adv-x="551" 
d="M571 652h-391q-42 0 -49 -9.5t-7 -37.5v-605h-54v621q0 37 21 58t57 21h423v-48z" />
    <glyph glyph-name="Adieresis" unicode="&#xc4;" horiz-adv-x="752" 
d="M772 0h-792v48h50l274 590q33 70 72 70t72 -70l274 -590h50v-48zM662 48l-265 578q-11 24 -21 24t-21 -24l-265 -578h572z" />
    <glyph glyph-name="Aring" unicode="&#xc5;" horiz-adv-x="620" 
d="M580 0h-415q-52 0 -73.5 21.5t-21.5 75.5v510q0 43 21 68t72 25h413v-48h-405q-24 0 -35.5 -9.5t-11.5 -35.5v-225h442v-48h-442v-249q0 -20 10.5 -28.5t44.5 -8.5h401v-48z" />
    <glyph glyph-name="AE" unicode="&#xc6;" horiz-adv-x="958" 
d="M978 0h-81l-294 271q-58 53 -58 88q0 31 47 77l271 264h78l-302 -290q-40 -38 -40 -53q0 -16 48 -59zM506 0h-54v700h54v-700zM413 359q0 -35 -58 -88l-294 -271h-81l331 298q48 43 48 59q0 15 -40 53l-302 290h78l271 -264q47 -46 47 -77z" />
    <glyph glyph-name="Ccedilla" unicode="&#xc7;" horiz-adv-x="613" 
d="M563 185q0 -121 -66 -159q-45 -26 -117 -26h-340v48h327q64 0 94 18q44 26 44 118q0 87 -28 116t-89 29h-334v48h308q79 0 109 38q22 28 22 101q0 84 -28 113q-22 23 -60 23h-361v48h351q78 0 115 -39q41 -43 41 -147q0 -88 -38 -126q-22 -22 -55 -31v-4q60 -7 85 -53
q20 -36 20 -115z" />
    <glyph glyph-name="Egrave" unicode="&#xc8;" horiz-adv-x="728" 
d="M658 0h-54v631q0 20 -10 20q-7 0 -25 -29l-361 -569q-21 -32 -31 -42q-20 -19 -48 -19q-59 0 -59 81v627h54v-621q0 -30 12 -30q6 0 19 20l355 565q27 43 38 54q20 20 50 20q60 0 60 -87v-621z" />
    <glyph glyph-name="Eacute" unicode="&#xc9;" horiz-adv-x="728" 
d="M509 835q-10 -52 -51 -82q-33 -24 -94 -24t-94 24q-41 30 -51 82h58q4 -24 23 -41t64 -17t64 17t23 41h58zM658 0h-54v631q0 20 -10 20q-7 0 -25 -29l-361 -569q-21 -32 -31 -42q-20 -19 -48 -19q-59 0 -59 81v627h54v-621q0 -30 12 -30q6 0 19 20l355 565q27 43 38 54
q20 20 50 20q60 0 60 -87v-621z" />
    <glyph glyph-name="Ecircumflex" unicode="&#xca;" horiz-adv-x="626" 
d="M656 0h-81l-351 271q-61 47 -61 89q0 36 50 76l328 264h78l-358 -290q-44 -36 -44 -51q0 -21 52 -61zM124 0h-54v700h54v-700z" />
    <glyph glyph-name="Edieresis" unicode="&#xcb;" horiz-adv-x="626" 
d="M656 0h-58l-264 637q-10 23 -21 23t-21 -23l-264 -637h-58l272 647q13 32 26 44q17 17 45 17t45 -17q13 -12 26 -44z" />
    <glyph glyph-name="Igrave" unicode="&#xcc;" horiz-adv-x="932" 
d="M862 0h-54v642q0 18 -14 18q-11 0 -19 -20l-238 -572q-32 -76 -71 -76t-71 76l-238 572q-8 20 -19 20q-14 0 -14 -18v-642h-54v642q0 29 18 47.5t48 18.5q47 0 76 -69l237 -570q9 -22 17 -22t17 22l237 570q29 69 76 69q30 0 48 -18.5t18 -47.5v-642z" />
    <glyph glyph-name="Iacute" unicode="&#xcd;" horiz-adv-x="702" 
d="M632 0h-54v332h-454v-332h-54v700h54v-320h454v320h54v-700z" />
    <glyph glyph-name="Icircumflex" unicode="&#xce;" horiz-adv-x="778" 
d="M728 350q0 -199 -83 -282q-76 -76 -256 -76t-256 76q-83 83 -83 282t83 282q76 76 256 76t256 -76q83 -83 83 -282zM670 350q0 82 -8 128q-13 72 -52 115.5t-108 58.5q-39 8 -113 8t-113 -8q-69 -15 -108 -58.5t-52 -115.5q-8 -46 -8 -128t8 -128q13 -72 52 -115.5
t108 -58.5q39 -8 113 -8t113 8q69 15 108 58.5t52 115.5q8 46 8 128z" />
    <glyph glyph-name="Idieresis" unicode="&#xcf;" horiz-adv-x="694" 
d="M624 0h-54v614q0 22 -8 30t-29 8h-372q-21 0 -29 -8t-8 -30v-614h-54v609q0 48 20.5 69.5t59.5 21.5h394q39 0 59.5 -21.5t20.5 -69.5v-609z" />
    <glyph glyph-name="Eth" unicode="&#xd0;" 
d="M631 485q0 -124 -58 -169q-39 -30 -94 -30h-355v-286h-54v617q0 46 19.5 64.5t66.5 18.5h289q90 0 133 -37q53 -46 53 -178zM573 499q0 89 -29 121t-94 32h-286q-27 0 -35 -12q-5 -8 -5 -31v-275h324q71 0 98 32t27 133z" />
    <glyph glyph-name="Ntilde" unicode="&#xd1;" horiz-adv-x="639" 
d="M619 0h-282q-130 0 -208.5 78.5t-78.5 261.5q0 195 75 275q80 85 215 85h268v-48h-245q-140 0 -203 -81q-52 -67 -52 -232q0 -142 46 -206q61 -85 194 -85h271v-48z" />
    <glyph glyph-name="Ograve" unicode="&#xd2;" horiz-adv-x="600" 
d="M620 652h-293v-652h-54v652h-293v48h640v-48z" />
    <glyph glyph-name="Oacute" unicode="&#xd3;" horiz-adv-x="610" 
d="M640 700l-358 -700h-60l63 119l-315 581h60l283 -527l267 527h60z" />
    <glyph glyph-name="Ocircumflex" unicode="&#xd4;" horiz-adv-x="882" 
d="M832 359q0 -146 -47 -212q-60 -84 -202 -84h-115v-63h-54v63h-115q-142 0 -202 84q-47 66 -47 212q0 141 54 211q39 50 101 67q39 10 116 10h93v53h54v-53h93q77 0 116 -10q62 -17 101 -67q54 -70 54 -211zM774 363q0 109 -26 158q-42 78 -161 78h-119v-488h90
q72 0 111 13q59 19 84 74q21 46 21 165zM414 111v488h-119q-119 0 -161 -78q-26 -49 -26 -158q0 -119 21 -165q25 -55 84 -74q39 -13 111 -13h90z" />
    <glyph glyph-name="Otilde" unicode="&#xd5;" horiz-adv-x="560" 
d="M580 0h-64l-236 316l-236 -316h-64l271 355l-263 345h64l228 -306l228 306h64l-263 -345z" />
    <glyph glyph-name="Odieresis" unicode="&#xd6;" horiz-adv-x="710" 
d="M720 0h-557q-50 0 -69 15q-24 19 -24 65v620h54v-605q0 -29 5 -36q8 -11 32 -11h408v652h54v-652h97v-48z" />
    <glyph glyph-name="multiply" unicode="&#xd7;" horiz-adv-x="654" 
d="M584 0h-54v315h-324q-78 0 -118 52q-28 36 -28 107v226h54v-228q0 -56 21 -80q26 -29 82 -29h313v337h54v-700z" />
    <glyph glyph-name="Oslash" unicode="&#xd8;" horiz-adv-x="974" 
d="M904 75q0 -38 -17.5 -56.5t-57.5 -18.5h-684q-40 0 -57.5 18.5t-17.5 56.5v625h54v-611q0 -22 5 -30q7 -11 28 -11h303v652h54v-652h303q21 0 28 11q5 8 5 30v611h54v-625z" />
    <glyph glyph-name="Ugrave" unicode="&#xd9;" horiz-adv-x="991" 
d="M1001 0h-856q-40 0 -57.5 18.5t-17.5 56.5v625h54v-611q0 -22 5 -30q7 -11 28 -11h303v652h54v-652h336v652h54v-652h97v-48z" />
    <glyph glyph-name="Uacute" unicode="&#xda;" horiz-adv-x="732" 
d="M682 192q0 -95 -32 -136q-44 -56 -136 -56h-322q-35 0 -54 23q-17 20 -17 61v519q0 26 -9.5 37.5t-26.5 11.5h-95v48h106q39 0 59 -21t20 -71v-227h353q93 0 128 -52q26 -38 26 -137zM624 190q0 102 -28 126q-20 17 -61 17h-360v-241q0 -23 6 -32q8 -12 39 -12h291
q60 0 88 31q25 27 25 111z" />
    <glyph glyph-name="Ucircumflex" unicode="&#xdb;" horiz-adv-x="841" 
d="M771 0h-54v700h54v-700zM631 192q0 -95 -32 -136q-44 -56 -136 -56h-322q-35 0 -54 23q-17 20 -17 61v616h54v-319h353q93 0 128 -52q26 -38 26 -137zM573 190q0 102 -28 126q-20 17 -61 17h-360v-241q0 -23 6 -32q8 -12 39 -12h291q60 0 88 31q25 27 25 111z" />
    <glyph glyph-name="Udieresis" unicode="&#xdc;" 
d="M631 192q0 -95 -32 -136q-44 -56 -136 -56h-322q-35 0 -54 23q-17 20 -17 61v616h54v-319h353q93 0 128 -52q26 -38 26 -137zM573 194q0 98 -28 122q-20 17 -61 17h-360v-241q0 -23 6 -32q8 -12 39 -12h291q60 0 88 31q25 28 25 115z" />
    <glyph glyph-name="Yacute" unicode="&#xdd;" horiz-adv-x="656" 
d="M606 356q0 -110 -19 -174q-21 -74 -74 -119q-75 -63 -199 -63h-264v48h274q94 0 152 52q76 68 72 233h-474v48h474q4 129 -52 198q-59 73 -158 73h-278v48h254q134 0 210 -73q51 -49 69 -127q13 -54 13 -144z" />
    <glyph glyph-name="Thorn" unicode="&#xde;" horiz-adv-x="936" 
d="M886 350q0 -201 -82 -282q-77 -76 -257 -76q-182 0 -257 76q-42 43 -65 116.5t-18 150.5h-83v-335h-54v700h54v-317h83q-2 71 20.5 139.5t62.5 109.5q75 76 257 76q180 0 257 -76q82 -81 82 -282zM828 350q0 83 -8 128q-14 72 -52.5 114.5t-97.5 56.5q-44 11 -124 11
q-74 0 -113 -8q-69 -15 -108 -58.5t-52 -115.5q-8 -46 -8 -128t8 -128q13 -72 52 -115.5t108 -58.5q39 -8 113 -8q80 0 124 11q59 14 97.5 56.5t52.5 114.5q8 45 8 128z" />
    <glyph glyph-name="germandbls" unicode="&#xdf;" horiz-adv-x="691" 
d="M621 0h-54v605q0 23 -13 35t-37 12h-286q-58 0 -83 -25q-33 -32 -33 -131q0 -93 19 -124q24 -39 72 -39h217q24 0 24 -23v-16q0 -14 -19 -30l-309 -264h-79l328 278v5h-155q-85 0 -125 61q-31 48 -31 146q0 103 31 150q39 60 133 60h295q50 0 76 -24q29 -27 29 -83v-593z
" />
    <glyph glyph-name="agrave" unicode="&#xe0;" horiz-adv-x="505" 
d="M455 70q0 -38 -17 -54t-61 -16h-204q-66 0 -96 24q-47 38 -47 140q0 88 44 125q34 28 99 28h230v79q0 39 -20 63t-56 24h-257v47h260q59 0 92 -36t33 -107v-317zM403 71v199h-242q-39 0 -57 -24.5t-18 -83.5q0 -67 20 -91t53 -24h214q16 0 23 6t7 18z" />
    <glyph glyph-name="aacute" unicode="&#xe1;" horiz-adv-x="531" 
d="M501 270q0 -132 -37 -192q-52 -84 -191 -84q-143 0 -195 89q-28 48 -28 133v278q0 79 27 125q48 81 157 81h233v-47h-230q-64 0 -98.5 -34.5t-36.5 -88.5h186q125 0 178 -84q35 -55 35 -176zM445 277q0 125 -41 167q-38 39 -113 39h-189v-278q0 -67 27 -106
q40 -58 142 -58q96 0 135 46.5t39 189.5z" />
    <glyph glyph-name="acircumflex" unicode="&#xe2;" horiz-adv-x="498" 
d="M468 161q0 -90 -35 -128q-30 -33 -80 -33h-246q-28 0 -44 17q-13 14 -13 46v404q0 28 17.5 45.5t44.5 17.5h231q66 0 98 -39q27 -33 27 -103q0 -54 -20 -80t-53 -31v-2q35 -7 54 -32.5t19 -81.5zM412 394q0 51 -20.5 70t-57.5 19h-211q-11 0 -16 -5t-5 -14v-164h232
q39 0 58.5 22.5t19.5 71.5zM412 152q0 54 -19.5 77.5t-58.5 23.5h-232v-173q0 -18 6.5 -25.5t25.5 -7.5h189q51 0 70 23t19 82z" />
    <glyph glyph-name="atilde" unicode="&#xe3;" horiz-adv-x="438" 
d="M448 483h-318q-16 0 -22 -8t-6 -30v-445h-52v454q0 37 8 51q15 25 52 25h338v-47z" />
    <glyph glyph-name="adieresis" unicode="&#xe4;" horiz-adv-x="522" 
d="M532 0h-542v47h43l171 443q18 46 57 46t57 -46l171 -443h43v-47zM434 47l-161 421q-6 15 -12 15t-12 -15l-161 -421h346z" />
    <glyph glyph-name="aring" unicode="&#xe5;" horiz-adv-x="517" 
d="M487 332q0 -50 -22 -69q-18 -16 -56 -16h-323q-2 -68 9 -108q26 -92 118 -92h260v-47h-260q-90 0 -140 65q-28 36 -37 90q-6 36 -6 108q0 74 10 117q16 66 61 103q56 47 166 47q84 0 135 -30q85 -50 85 -168zM431 329q0 66 -36 108q-39 46 -137 46q-52 0 -79 -9
q-43 -14 -67 -54t-26 -126h323q22 0 22 35z" />
    <glyph glyph-name="ae" unicode="&#xe6;" horiz-adv-x="716" 
d="M726 0h-74l-207 209q-35 35 -35 61q0 31 42 73l188 187h71l-226 -226q-19 -19 -19 -30q0 -13 19 -32zM384 0h-52v530h52v-530zM306 270q0 -26 -35 -61l-207 -209h-74l241 242q19 19 19 32q0 11 -19 30l-226 226h71l188 -187q42 -42 42 -73z" />
    <glyph glyph-name="ccedilla" unicode="&#xe7;" horiz-adv-x="482" 
d="M442 152q0 -84 -39 -121q-33 -31 -90 -31h-273v47h277q36 0 52.5 23.5t16.5 80.5q0 56 -26 80q-22 20 -61 20h-244v47h251q36 0 56.5 21.5t20.5 71.5q0 58 -28 79q-19 13 -48 13h-257v47h262q61 0 94 -33t33 -102q0 -60 -20 -89q-16 -23 -45 -31v-3q26 -6 44 -30
q24 -32 24 -90z" />
    <glyph glyph-name="egrave" unicode="&#xe8;" horiz-adv-x="543" 
d="M493 0h-52v461q0 12 -5 12q-3 0 -11 -12l-270 -429q-24 -38 -57 -38q-48 0 -48 55v481h52v-461q0 -13 6 -13q3 0 11 13l273 435q20 32 55 32q46 0 46 -61v-475z" />
    <glyph glyph-name="eacute" unicode="&#xe9;" horiz-adv-x="543" 
d="M426 670q-20 -66 -69 -93q-33 -18 -82 -18q-64 0 -102 32q-33 28 -49 79h60q8 -27 26 -43q22 -20 65 -20t65 20q18 16 26 43h60zM493 0h-52v461q0 12 -5 12q-3 0 -11 -12l-270 -429q-24 -38 -57 -38q-48 0 -48 55v481h52v-461q0 -13 6 -13q3 0 11 13l273 435q20 32 55 32
q46 0 46 -61v-475z" />
    <glyph glyph-name="ecircumflex" unicode="&#xea;" horiz-adv-x="448" 
d="M458 0h-74l-223 210q-34 32 -34 63t41 69l202 188h71l-236 -223q-22 -21 -22 -34q0 -14 16 -29zM102 0h-52v530h52v-530z" />
    <glyph glyph-name="edieresis" unicode="&#xeb;" horiz-adv-x="482" 
d="M492 0h-59l-182 464q-6 16 -10 16t-10 -16l-182 -464h-59l199 494q17 42 52 42t52 -42z" />
    <glyph glyph-name="igrave" unicode="&#xec;" horiz-adv-x="678" 
d="M628 0h-52v465q0 7 -4 7q-3 0 -7 -9l-178 -431q-16 -38 -48 -38t-48 38l-178 431q-4 9 -7 9q-4 0 -4 -7v-465h-52v481q0 55 50 55q36 0 51 -36l177 -426q7 -18 11 -18t11 18l177 426q15 36 51 36q50 0 50 -55v-481z" />
    <glyph glyph-name="iacute" unicode="&#xed;" horiz-adv-x="522" 
d="M472 0h-52v250h-318v-250h-52v530h52v-233h318v233h52v-530z" />
    <glyph glyph-name="icircumflex" unicode="&#xee;" horiz-adv-x="584" 
d="M554 268q0 -149 -66 -214q-61 -60 -196 -60t-196 60q-66 65 -66 214q0 145 66 210q59 58 196 58t196 -58q66 -65 66 -210zM498 263q0 130 -43 178t-163 48t-163 -48t-43 -178q0 -124 43 -171q47 -51 163 -51t163 51q43 47 43 171z" />
    <glyph glyph-name="idieresis" unicode="&#xef;" horiz-adv-x="520" 
d="M470 0h-52v453q0 20 -5 25t-17 5h-272q-12 0 -17 -5t-5 -25v-453h-52v453q0 45 16.5 61t48.5 16h290q39 0 54 -23q11 -16 11 -54v-453z" />
    <glyph glyph-name="eth" unicode="&#xf0;" horiz-adv-x="512" 
d="M482 273q0 -130 -42 -194q-30 -45 -77 -63q-42 -16 -111 -16h-150v-170h-52v634q0 31 25 50q21 16 59 16h134q101 0 157.5 -60.5t56.5 -196.5zM426 266q0 97 -19 140q-34 77 -128 77h-153q-7 0 -15.5 -7t-8.5 -19v-410h171q84 0 123 60q30 46 30 159z" />
    <glyph glyph-name="ntilde" unicode="&#xf1;" horiz-adv-x="476" 
d="M446 0h-212q-100 0 -156 67q-48 57 -48 191q0 152 59 212t166 60h179v-47h-185q-126 0 -153 -108q-10 -40 -10 -124t18 -125q35 -79 156 -79h186v-47z" />
    <glyph glyph-name="ograve" unicode="&#xf2;" horiz-adv-x="432" 
d="M442 483h-200v-483h-52v483h-200v47h452v-47z" />
    <glyph glyph-name="oacute" unicode="&#xf3;" horiz-adv-x="497" 
d="M507 530l-317 -701h-56l80 174l-224 527h56l196 -465l209 465h56z" />
    <glyph glyph-name="ocircumflex" unicode="&#xf4;" horiz-adv-x="716" 
d="M686 259q0 -121 -44 -185q-51 -74 -169 -74h-89v-170h-52v170h-89q-118 0 -169 74q-44 64 -44 185q0 126 37 186q52 85 172 85h93v170h52v-170h93q120 0 172 -85q37 -60 37 -186zM630 253q0 122 -37 174q-40 56 -116 56h-93v-436h91q86 0 125 62q30 48 30 144zM332 47
v436h-93q-76 0 -116 -56q-37 -52 -37 -174q0 -96 30 -144q39 -62 125 -62h91z" />
    <glyph glyph-name="otilde" unicode="&#xf5;" horiz-adv-x="430" 
d="M440 0h-63l-162 233l-162 -233h-63l197 272l-188 258h61l155 -219l155 219h61l-187 -258z" />
    <glyph glyph-name="odieresis" unicode="&#xf6;" horiz-adv-x="528" 
d="M538 0h-412q-40 0 -58 15t-18 53v462h52v-447q0 -22 7 -29t30 -7h278v483h52v-483h69v-47z" />
    <glyph glyph-name="divide" unicode="&#xf7;" horiz-adv-x="510" 
d="M460 0h-52v249h-233q-82 0 -112 36q-23 28 -23 106v139h52v-151q0 -43 13 -60q18 -23 62 -23h241v234h52v-530z" />
    <glyph glyph-name="oslash" unicode="&#xf8;" horiz-adv-x="780" 
d="M730 69q0 -38 -16.5 -53.5t-67.5 -15.5h-512q-51 0 -67.5 15.5t-16.5 53.5v461h52v-447q0 -19 5 -26q7 -10 23 -10h234v483h52v-483h234q16 0 23 10q5 7 5 26v447h52v-461z" />
    <glyph glyph-name="ugrave" unicode="&#xf9;" horiz-adv-x="789" 
d="M799 0h-665q-51 0 -67.5 15.5t-16.5 53.5v461h52v-447q0 -19 5 -26q7 -10 23 -10h234v483h52v-483h262v483h52v-483h69v-47z" />
    <glyph glyph-name="uacute" unicode="&#xfa;" horiz-adv-x="537" 
d="M507 157q0 -94 -39 -131q-28 -26 -98 -26h-230q-32 0 -44.5 12.5t-12.5 48.5v392q0 16 -4.5 23t-22.5 7h-66v47h94q24 0 37.5 -13.5t13.5 -44.5v-169h245q58 0 90 -31q37 -36 37 -115zM451 158q0 52 -18 75t-53 23h-245v-178q0 -19 3.5 -25t21.5 -6h220q36 0 53.5 24.5
t17.5 86.5z" />
    <glyph glyph-name="ucircumflex" unicode="&#xfb;" horiz-adv-x="636" 
d="M586 0h-52v530h52v-530zM474 157q0 -94 -39 -131q-28 -26 -98 -26h-230q-32 0 -44.5 12.5t-12.5 48.5v469h52v-227h245q58 0 90 -31q37 -36 37 -115zM418 158q0 52 -18 75t-53 23h-245v-178q0 -18 3.5 -24.5t21.5 -6.5h220q36 0 53.5 24.5t17.5 86.5z" />
    <glyph glyph-name="udieresis" unicode="&#xfc;" horiz-adv-x="504" 
d="M474 157q0 -94 -39 -131q-28 -26 -98 -26h-230q-32 0 -44.5 12.5t-12.5 48.5v469h52v-227h245q58 0 90 -31q37 -36 37 -115zM418 158q0 52 -18 75t-53 23h-245v-178q0 -18 3.5 -24.5t21.5 -6.5h220q36 0 53.5 24.5t17.5 86.5z" />
    <glyph glyph-name="yacute" unicode="&#xfd;" horiz-adv-x="494" 
d="M464 277q0 -148 -51 -211q-34 -42 -90 -57q-33 -9 -93 -9h-200v47h228q103 0 132 79q18 49 18 130h-364v47h364q2 70 -26 119q-35 61 -123 61h-222v47h223q95 0 149.5 -58.5t54.5 -194.5z" />
    <glyph glyph-name="thorn" unicode="&#xfe;" horiz-adv-x="726" 
d="M696 268q0 -148 -65 -214q-59 -60 -190 -60q-128 0 -190 60q-68 66 -65 196h-84v-250h-52v530h52v-233h84q5 123 65 181t190 58q131 0 190 -58q65 -64 65 -210zM640 263q0 131 -41 178.5t-158 47.5t-158 -47.5t-41 -178.5q0 -124 41 -171q44 -51 158 -51t158 51
q41 47 41 171z" />
    <glyph glyph-name="ydieresis" unicode="&#xff;" horiz-adv-x="521" 
d="M471 0h-52v445q0 23 -6.5 30.5t-32.5 7.5h-213q-34 0 -50 -25.5t-16 -82.5q0 -63 13 -87q18 -33 63 -33h98q40 0 40 -30q0 -21 -14 -34l-201 -191h-70l200 190q9 9 9 12q0 6 -8 6h-57q-70 0 -102 46q-27 39 -27 119q0 85 34 121t89 36h224q44 0 61.5 -16.5t17.5 -64.5
v-449z" />
    <glyph glyph-name="mu" unicode="&#x3bc;" horiz-adv-x="522" 
d="M472 0h-52v72q-58 -78 -163 -78q-99 0 -155 70v-242h-52v708h52v-350q0 -51 42 -95t114 -44q65 0 113.5 43.5t48.5 92.5v353h52v-530z" />
    <glyph glyph-name="afii10023" unicode="&#x401;" horiz-adv-x="620" 
d="M460 787h-54v78h54v-78zM261 787h-54v78h54v-78zM580 0h-415q-52 0 -73.5 21.5t-21.5 75.5v510q0 43 21 68t72 25h413v-48h-405q-24 0 -35.5 -9.5t-11.5 -35.5v-225h442v-48h-442v-249q0 -19 10.5 -28t44.5 -9h401v-48z" />
    <glyph glyph-name="afii10051" unicode="&#x402;" horiz-adv-x="772" 
d="M722 194q0 -113 -32 -153.5t-99 -40.5h-173v48h144q59 0 80.5 25.5t21.5 109.5q0 93 -20 118q-23 29 -70 29h-360v-330h-54v652h-180v48h531v-48h-297v-274h359q77 0 113 -43.5t36 -140.5z" />
    <glyph glyph-name="afii10052" unicode="&#x403;" horiz-adv-x="501" 
d="M329 840l-123 -100l-31 39l123 100zM501 652h-391q-42 0 -49 -9.5t-7 -37.5v-605h-54v621q0 37 21 58t57 21h423v-48z" />
    <glyph glyph-name="afii10053" unicode="&#x404;" horiz-adv-x="656" 
d="M606 0h-264q-124 0 -199 63q-53 44 -74 118q-19 65 -19 175q0 89 12 143q19 80 70 129q75 72 210 72h254v-48h-278q-99 0 -158 -73q-56 -69 -52 -198h474v-48h-474q-4 -165 72 -233q58 -52 152 -52h274v-48z" />
    <glyph glyph-name="afii10054" unicode="&#x405;" horiz-adv-x="646" 
d="M596 170q0 -80 -34.5 -125t-111.5 -45h-389v48h395q82 0 82 120q0 47 -20.5 73t-67.5 42l-279 96q-58 20 -86 52q-35 40 -35 113q0 81 47 121q42 35 111 35h355v-48h-361q-48 0 -73 -27q-21 -23 -21 -83q0 -42 10 -63q16 -32 61 -48l272 -96q75 -27 102 -52
q43 -41 43 -113z" />
    <glyph glyph-name="afii10055" unicode="&#x406;" horiz-adv-x="194" 
d="M124 0h-54v700h54v-700z" />
    <glyph glyph-name="afii10056" unicode="&#x407;" horiz-adv-x="220" 
d="M190 762h-54v79h54v-79zM84 762h-54v79h54v-79zM137 0h-54v700h54v-700z" />
    <glyph glyph-name="afii10057" unicode="&#x408;" horiz-adv-x="392" 
d="M322 235q0 -114 -54 -171q-61 -64 -149 -64h-139v49h128q72 0 114 41q46 44 46 145v465h54v-465z" />
    <glyph glyph-name="afii10058" unicode="&#x409;" horiz-adv-x="1093" 
d="M1043 192q0 -95 -32 -136q-44 -56 -136 -56h-322q-35 0 -54 23q-17 20 -17 61v551q0 18 -17 18q-11 0 -18 -11l-406 -642h-61l417 656q33 52 75 52q27 0 45.5 -19t18.5 -53v-255h353q93 0 128 -52q26 -38 26 -137zM985 190q0 102 -28 126q-20 17 -61 17h-360v-241
q0 -23 6 -32q8 -12 39 -12h291q60 0 88 31q25 27 25 111z" />
    <glyph glyph-name="afii10059" unicode="&#x40a;" horiz-adv-x="1189" 
d="M1139 192q0 -95 -32 -136q-44 -56 -136 -56h-322q-35 0 -54 23q-17 20 -17 61v249h-454v-333h-54v700h54v-319h454v319h54v-319h353q93 0 128 -52q26 -38 26 -137zM1081 190q0 102 -28 126q-20 17 -61 17h-360v-241q0 -23 6 -32q8 -12 39 -12h291q60 0 88 31
q25 27 25 111z" />
    <glyph glyph-name="afii10060" unicode="&#x40b;" horiz-adv-x="752" 
d="M702 0h-54v256q0 37 -24 57q-20 17 -58 17h-352v-330h-54v652h-180v48h531v-48h-297v-274h346q64 0 98 -24q44 -32 44 -107v-247z" />
    <glyph glyph-name="afii10061" unicode="&#x40c;" horiz-adv-x="626" 
d="M415 840l-123 -100l-31 39l123 100zM656 0h-81l-351 271q-61 47 -61 89q0 36 50 76l328 264h78l-358 -290q-44 -36 -44 -51q0 -21 52 -61zM124 0h-54v700h54v-700z" />
    <glyph glyph-name="afii10062" unicode="&#x40e;" horiz-adv-x="610" 
d="M450 836q-10 -52 -51 -82q-33 -24 -94 -24t-94 24q-41 30 -51 82h58q4 -24 23 -41t64 -17t64 17t23 41h58zM640 700l-358 -700h-60l63 119l-315 581h60l283 -527l267 527h60z" />
    <glyph glyph-name="afii10145" unicode="&#x40f;" horiz-adv-x="694" 
d="M624 54q0 -28 -13 -41t-52 -13h-185v-169h-54v169h-185q-38 0 -51.5 13t-13.5 41v646h54v-619q0 -16 5 -24.5t23 -8.5h390q18 0 23 8.5t5 24.5v619h54v-646z" />
    <glyph glyph-name="afii10017" unicode="&#x410;" horiz-adv-x="672" 
d="M682 0h-58l-85 204h-406l-85 -204h-58l268 634q31 74 78 74t78 -74zM518 252l-153 366q-17 40 -29 40t-29 -40l-153 -366h364z" />
    <glyph glyph-name="afii10018" unicode="&#x411;" 
d="M631 187q0 -100 -38 -143.5t-111 -43.5h-330q-49 0 -69 26q-13 17 -13 62v519q0 48 20.5 70.5t62.5 22.5h445v-48h-423q-30 0 -39 -8q-12 -10 -12 -36v-232h356q82 0 119 -49q32 -43 32 -140zM573 191q0 81 -29 112q-24 25 -82 25h-338v-222q0 -34 6 -43q10 -15 55 -15
h277q57 0 82 26q29 30 29 117z" />
    <glyph glyph-name="afii10019" unicode="&#x412;" 
d="M631 189q0 -52 -5 -75q-8 -41 -37 -73q-37 -41 -100 -41h-309q-67 0 -88.5 22.5t-21.5 67.5v518q0 44 20 68t62 24h323q67 0 105 -39q44 -45 44 -150q0 -79 -30 -118q-25 -32 -64 -37v-4q45 -5 73 -39t28 -124zM566 518q0 82 -32 113q-22 21 -67 21h-303q-23 0 -30 -8
q-10 -11 -10 -32v-236h328q68 0 92 31q22 28 22 111zM573 188q0 76 -18 103q-24 37 -72 37h-359v-226q0 -34 8 -44t45 -10h279q71 0 95 33q22 30 22 107z" />
    <glyph glyph-name="afii10020" unicode="&#x413;" horiz-adv-x="551" 
d="M571 652h-391q-42 0 -49 -9.5t-7 -37.5v-605h-54v621q0 37 21 58t57 21h423v-48z" />
    <glyph glyph-name="afii10021" unicode="&#x414;" horiz-adv-x="752" 
d="M772 0h-792v48h50l274 590q33 70 72 70t72 -70l274 -590h50v-48zM662 48l-265 578q-11 24 -21 24t-21 -24l-265 -578h572z" />
    <glyph glyph-name="afii10022" unicode="&#x415;" horiz-adv-x="620" 
d="M580 0h-415q-52 0 -73.5 21.5t-21.5 75.5v510q0 43 21 68t72 25h413v-48h-405q-24 0 -35.5 -9.5t-11.5 -35.5v-225h442v-48h-442v-249q0 -20 10.5 -28.5t44.5 -8.5h401v-48z" />
    <glyph glyph-name="afii10024" unicode="&#x416;" horiz-adv-x="958" 
d="M978 0h-81l-294 271q-58 53 -58 88q0 31 47 77l271 264h78l-302 -290q-40 -38 -40 -53q0 -16 48 -59zM506 0h-54v700h54v-700zM413 359q0 -35 -58 -88l-294 -271h-81l331 298q48 43 48 59q0 15 -40 53l-302 290h78l271 -264q47 -46 47 -77z" />
    <glyph glyph-name="afii10025" unicode="&#x417;" horiz-adv-x="613" 
d="M563 185q0 -121 -66 -159q-45 -26 -117 -26h-340v48h327q64 0 94 18q44 26 44 118q0 87 -28 116t-89 29h-334v48h308q79 0 109 38q22 28 22 101q0 84 -28 113q-22 23 -60 23h-361v48h351q78 0 115 -39q41 -43 41 -147q0 -88 -38 -126q-22 -22 -55 -31v-4q60 -7 85 -53
q20 -36 20 -115z" />
    <glyph glyph-name="afii10026" unicode="&#x418;" horiz-adv-x="728" 
d="M658 0h-54v631q0 20 -10 20q-7 0 -25 -29l-361 -569q-21 -32 -31 -42q-20 -19 -48 -19q-59 0 -59 81v627h54v-621q0 -30 12 -30q6 0 19 20l355 565q27 43 38 54q20 20 50 20q60 0 60 -87v-621z" />
    <glyph glyph-name="afii10027" unicode="&#x419;" horiz-adv-x="728" 
d="M509 835q-10 -52 -51 -82q-33 -24 -94 -24t-94 24q-41 30 -51 82h58q4 -24 23 -41t64 -17t64 17t23 41h58zM658 0h-54v631q0 20 -10 20q-7 0 -25 -29l-361 -569q-21 -32 -31 -42q-20 -19 -48 -19q-59 0 -59 81v627h54v-621q0 -30 12 -30q6 0 19 20l355 565q27 43 38 54
q20 20 50 20q60 0 60 -87v-621z" />
    <glyph glyph-name="afii10028" unicode="&#x41a;" horiz-adv-x="626" 
d="M656 0h-81l-351 271q-61 47 -61 89q0 36 50 76l328 264h78l-358 -290q-44 -36 -44 -51q0 -21 52 -61zM124 0h-54v700h54v-700z" />
    <glyph glyph-name="afii10029" unicode="&#x41b;" horiz-adv-x="626" 
d="M656 0h-58l-264 637q-10 23 -21 23t-21 -23l-264 -637h-58l272 647q13 32 26 44q17 17 45 17t45 -17q13 -12 26 -44z" />
    <glyph glyph-name="afii10030" unicode="&#x41c;" horiz-adv-x="932" 
d="M862 0h-54v642q0 18 -14 18q-11 0 -19 -20l-238 -572q-32 -76 -71 -76t-71 76l-238 572q-8 20 -19 20q-14 0 -14 -18v-642h-54v642q0 29 18 47.5t48 18.5q47 0 76 -69l237 -570q9 -22 17 -22t17 22l237 570q29 69 76 69q30 0 48 -18.5t18 -47.5v-642z" />
    <glyph glyph-name="afii10031" unicode="&#x41d;" horiz-adv-x="702" 
d="M632 0h-54v332h-454v-332h-54v700h54v-320h454v320h54v-700z" />
    <glyph glyph-name="afii10032" unicode="&#x41e;" horiz-adv-x="778" 
d="M728 350q0 -199 -83 -282q-76 -76 -256 -76t-256 76q-83 83 -83 282t83 282q76 76 256 76t256 -76q83 -83 83 -282zM670 350q0 82 -8 128q-13 72 -52 115.5t-108 58.5q-39 8 -113 8t-113 -8q-69 -15 -108 -58.5t-52 -115.5q-8 -46 -8 -128t8 -128q13 -72 52 -115.5
t108 -58.5q39 -8 113 -8t113 8q69 15 108 58.5t52 115.5q8 46 8 128z" />
    <glyph glyph-name="afii10033" unicode="&#x41f;" horiz-adv-x="694" 
d="M624 0h-54v614q0 22 -8 30t-29 8h-372q-21 0 -29 -8t-8 -30v-614h-54v609q0 48 20.5 69.5t59.5 21.5h394q39 0 59.5 -21.5t20.5 -69.5v-609z" />
    <glyph glyph-name="afii10034" unicode="&#x420;" 
d="M631 485q0 -124 -58 -169q-39 -30 -94 -30h-355v-286h-54v617q0 46 19.5 64.5t66.5 18.5h289q90 0 133 -37q53 -46 53 -178zM573 499q0 89 -29 121t-94 32h-286q-27 0 -35 -12q-5 -8 -5 -31v-275h324q71 0 98 32t27 133z" />
    <glyph glyph-name="afii10035" unicode="&#x421;" horiz-adv-x="639" 
d="M619 0h-282q-130 0 -208.5 78.5t-78.5 261.5q0 195 75 275q80 85 215 85h268v-48h-245q-140 0 -203 -81q-52 -67 -52 -232q0 -142 46 -206q61 -85 194 -85h271v-48z" />
    <glyph glyph-name="afii10036" unicode="&#x422;" horiz-adv-x="600" 
d="M620 652h-293v-652h-54v652h-293v48h640v-48z" />
    <glyph glyph-name="afii10037" unicode="&#x423;" horiz-adv-x="610" 
d="M640 700l-358 -700h-60l63 119l-315 581h60l283 -527l267 527h60z" />
    <glyph glyph-name="afii10038" unicode="&#x424;" horiz-adv-x="882" 
d="M832 359q0 -146 -47 -212q-60 -84 -202 -84h-115v-63h-54v63h-115q-142 0 -202 84q-47 66 -47 212q0 141 54 211q39 50 101 67q39 10 116 10h93v53h54v-53h93q77 0 116 -10q62 -17 101 -67q54 -70 54 -211zM774 363q0 109 -26 158q-42 78 -161 78h-119v-488h90
q72 0 111 13q59 19 84 74q21 46 21 165zM414 111v488h-119q-119 0 -161 -78q-26 -49 -26 -158q0 -119 21 -165q25 -55 84 -74q39 -13 111 -13h90z" />
    <glyph glyph-name="afii10039" unicode="&#x425;" horiz-adv-x="560" 
d="M580 0h-64l-236 316l-236 -316h-64l271 355l-263 345h64l228 -306l228 306h64l-263 -345z" />
    <glyph glyph-name="afii10040" unicode="&#x426;" horiz-adv-x="710" 
d="M720 0h-557q-50 0 -69 15q-24 19 -24 65v620h54v-605q0 -29 5 -36q8 -11 32 -11h408v652h54v-652h97v-48z" />
    <glyph glyph-name="afii10041" unicode="&#x427;" horiz-adv-x="654" 
d="M584 0h-54v315h-324q-78 0 -118 52q-28 36 -28 107v226h54v-228q0 -56 21 -80q26 -29 82 -29h313v337h54v-700z" />
    <glyph glyph-name="afii10042" unicode="&#x428;" horiz-adv-x="974" 
d="M904 75q0 -38 -17.5 -56.5t-57.5 -18.5h-684q-40 0 -57.5 18.5t-17.5 56.5v625h54v-611q0 -22 5 -30q7 -11 28 -11h303v652h54v-652h303q21 0 28 11q5 8 5 30v611h54v-625z" />
    <glyph glyph-name="afii10043" unicode="&#x429;" horiz-adv-x="991" 
d="M1001 0h-856q-40 0 -57.5 18.5t-17.5 56.5v625h54v-611q0 -22 5 -30q7 -11 28 -11h303v652h54v-652h336v652h54v-652h97v-48z" />
    <glyph glyph-name="afii10044" unicode="&#x42a;" horiz-adv-x="732" 
d="M682 192q0 -95 -32 -136q-44 -56 -136 -56h-322q-35 0 -54 23q-17 20 -17 61v519q0 26 -9.5 37.5t-26.5 11.5h-95v48h106q39 0 59 -21t20 -71v-227h353q93 0 128 -52q26 -38 26 -137zM624 190q0 102 -28 126q-20 17 -61 17h-360v-241q0 -23 6 -32q8 -12 39 -12h291
q60 0 88 31q25 27 25 111z" />
    <glyph glyph-name="afii10045" unicode="&#x42b;" horiz-adv-x="841" 
d="M771 0h-54v700h54v-700zM631 192q0 -95 -32 -136q-44 -56 -136 -56h-322q-35 0 -54 23q-17 20 -17 61v616h54v-319h353q93 0 128 -52q26 -38 26 -137zM573 190q0 102 -28 126q-20 17 -61 17h-360v-241q0 -23 6 -32q8 -12 39 -12h291q60 0 88 31q25 27 25 111z" />
    <glyph glyph-name="afii10046" unicode="&#x42c;" 
d="M631 192q0 -95 -32 -136q-44 -56 -136 -56h-322q-35 0 -54 23q-17 20 -17 61v616h54v-319h353q93 0 128 -52q26 -38 26 -137zM573 194q0 98 -28 122q-20 17 -61 17h-360v-241q0 -23 6 -32q8 -12 39 -12h291q60 0 88 31q25 28 25 115z" />
    <glyph glyph-name="afii10047" unicode="&#x42d;" horiz-adv-x="656" 
d="M606 356q0 -110 -19 -174q-21 -74 -74 -119q-75 -63 -199 -63h-264v48h274q94 0 152 52q76 68 72 233h-474v48h474q4 129 -52 198q-59 73 -158 73h-278v48h254q134 0 210 -73q51 -49 69 -127q13 -54 13 -144z" />
    <glyph glyph-name="afii10048" unicode="&#x42e;" horiz-adv-x="936" 
d="M886 350q0 -201 -82 -282q-77 -76 -257 -76q-182 0 -257 76q-42 43 -65 116.5t-18 150.5h-83v-335h-54v700h54v-317h83q-2 71 20.5 139.5t62.5 109.5q75 76 257 76q180 0 257 -76q82 -81 82 -282zM828 350q0 83 -8 128q-14 72 -52.5 114.5t-97.5 56.5q-44 11 -124 11
q-74 0 -113 -8q-69 -15 -108 -58.5t-52 -115.5q-8 -46 -8 -128t8 -128q13 -72 52 -115.5t108 -58.5q39 -8 113 -8q80 0 124 11q59 14 97.5 56.5t52.5 114.5q8 45 8 128z" />
    <glyph glyph-name="afii10049" unicode="&#x42f;" horiz-adv-x="691" 
d="M621 0h-54v605q0 23 -13 35t-37 12h-286q-58 0 -83 -25q-33 -32 -33 -131q0 -93 19 -124q24 -39 72 -39h217q24 0 24 -23v-16q0 -14 -19 -30l-309 -264h-79l328 278v5h-155q-85 0 -125 61q-31 48 -31 146q0 103 31 150q39 60 133 60h295q50 0 76 -24q29 -27 29 -83v-593z
" />
    <glyph glyph-name="afii10065" unicode="&#x430;" horiz-adv-x="505" 
d="M455 70q0 -38 -17 -54t-61 -16h-204q-66 0 -96 24q-47 38 -47 140q0 88 44 125q34 28 99 28h230v79q0 39 -20 63t-56 24h-257v47h260q59 0 92 -36t33 -107v-317zM403 71v199h-242q-39 0 -57 -24.5t-18 -83.5q0 -67 20 -91t53 -24h214q16 0 23 6t7 18z" />
    <glyph glyph-name="afii10066" unicode="&#x431;" horiz-adv-x="531" 
d="M501 270q0 -132 -37 -192q-52 -84 -191 -84q-143 0 -195 89q-28 48 -28 133v278q0 79 27 125q48 81 157 81h233v-47h-230q-64 0 -98.5 -34.5t-36.5 -88.5h186q125 0 178 -84q35 -55 35 -176zM445 277q0 125 -41 167q-38 39 -113 39h-189v-278q0 -67 27 -106
q40 -58 142 -58q96 0 135 46.5t39 189.5z" />
    <glyph glyph-name="afii10067" unicode="&#x432;" horiz-adv-x="498" 
d="M468 161q0 -90 -35 -128q-30 -33 -80 -33h-246q-28 0 -44 17q-13 14 -13 46v404q0 28 17.5 45.5t44.5 17.5h231q66 0 98 -39q27 -33 27 -103q0 -54 -20 -80t-53 -31v-2q35 -7 54 -32.5t19 -81.5zM412 394q0 51 -20.5 70t-57.5 19h-211q-11 0 -16 -5t-5 -14v-164h232
q39 0 58.5 22.5t19.5 71.5zM412 152q0 54 -19.5 77.5t-58.5 23.5h-232v-173q0 -18 6.5 -25.5t25.5 -7.5h189q51 0 70 23t19 82z" />
    <glyph glyph-name="afii10068" unicode="&#x433;" horiz-adv-x="438" 
d="M448 483h-318q-16 0 -22 -8t-6 -30v-445h-52v454q0 37 8 51q15 25 52 25h338v-47z" />
    <glyph glyph-name="afii10069" unicode="&#x434;" horiz-adv-x="522" 
d="M532 0h-542v47h43l171 443q18 46 57 46t57 -46l171 -443h43v-47zM434 47l-161 421q-6 15 -12 15t-12 -15l-161 -421h346z" />
    <glyph glyph-name="afii10070" unicode="&#x435;" horiz-adv-x="517" 
d="M487 332q0 -50 -22 -69q-18 -16 -56 -16h-323q-2 -68 9 -108q26 -92 118 -92h260v-47h-260q-90 0 -140 65q-28 36 -37 90q-6 36 -6 108q0 74 10 117q16 66 61 103q56 47 166 47q84 0 135 -30q85 -50 85 -168zM431 329q0 66 -36 108q-39 46 -137 46q-52 0 -79 -9
q-43 -14 -67 -54t-26 -126h323q22 0 22 35z" />
    <glyph glyph-name="afii10072" unicode="&#x436;" horiz-adv-x="716" 
d="M726 0h-74l-207 209q-35 35 -35 61q0 31 42 73l188 187h71l-226 -226q-19 -19 -19 -30q0 -13 19 -32zM384 0h-52v530h52v-530zM306 270q0 -26 -35 -61l-207 -209h-74l241 242q19 19 19 32q0 11 -19 30l-226 226h71l188 -187q42 -42 42 -73z" />
    <glyph glyph-name="afii10073" unicode="&#x437;" horiz-adv-x="482" 
d="M442 152q0 -84 -39 -121q-33 -31 -90 -31h-273v47h277q36 0 52.5 23.5t16.5 80.5q0 56 -26 80q-22 20 -61 20h-244v47h251q36 0 56.5 21.5t20.5 71.5q0 58 -28 79q-19 13 -48 13h-257v47h262q61 0 94 -33t33 -102q0 -60 -20 -89q-16 -23 -45 -31v-3q26 -6 44 -30
q24 -32 24 -90z" />
    <glyph glyph-name="afii10074" unicode="&#x438;" horiz-adv-x="543" 
d="M493 0h-52v461q0 12 -5 12q-3 0 -11 -12l-270 -429q-24 -38 -57 -38q-48 0 -48 55v481h52v-461q0 -13 6 -13q3 0 11 13l273 435q20 32 55 32q46 0 46 -61v-475z" />
    <glyph glyph-name="afii10075" unicode="&#x439;" horiz-adv-x="543" 
d="M426 670q-20 -66 -69 -93q-33 -18 -82 -18q-64 0 -102 32q-33 28 -49 79h60q8 -27 26 -43q22 -20 65 -20t65 20q18 16 26 43h60zM493 0h-52v461q0 12 -5 12q-3 0 -11 -12l-270 -429q-24 -38 -57 -38q-48 0 -48 55v481h52v-461q0 -13 6 -13q3 0 11 13l273 435q20 32 55 32
q46 0 46 -61v-475z" />
    <glyph glyph-name="afii10076" unicode="&#x43a;" horiz-adv-x="448" 
d="M458 0h-74l-223 210q-34 32 -34 63t41 69l202 188h71l-236 -223q-22 -21 -22 -34q0 -14 16 -29zM102 0h-52v530h52v-530z" />
    <glyph glyph-name="afii10077" unicode="&#x43b;" horiz-adv-x="482" 
d="M492 0h-59l-182 464q-6 16 -10 16t-10 -16l-182 -464h-59l199 494q17 42 52 42t52 -42z" />
    <glyph glyph-name="afii10078" unicode="&#x43c;" horiz-adv-x="678" 
d="M628 0h-52v465q0 7 -4 7q-3 0 -7 -9l-178 -431q-16 -38 -48 -38t-48 38l-178 431q-4 9 -7 9q-4 0 -4 -7v-465h-52v481q0 55 50 55q36 0 51 -36l177 -426q7 -18 11 -18t11 18l177 426q15 36 51 36q50 0 50 -55v-481z" />
    <glyph glyph-name="afii10079" unicode="&#x43d;" horiz-adv-x="522" 
d="M472 0h-52v250h-318v-250h-52v530h52v-233h318v233h52v-530z" />
    <glyph glyph-name="afii10080" unicode="&#x43e;" horiz-adv-x="584" 
d="M554 268q0 -149 -66 -214q-61 -60 -196 -60t-196 60q-66 65 -66 214q0 145 66 210q59 58 196 58t196 -58q66 -65 66 -210zM498 263q0 130 -43 178t-163 48t-163 -48t-43 -178q0 -124 43 -171q47 -51 163 -51t163 51q43 47 43 171z" />
    <glyph glyph-name="afii10081" unicode="&#x43f;" horiz-adv-x="520" 
d="M470 0h-52v453q0 20 -5 25t-17 5h-272q-12 0 -17 -5t-5 -25v-453h-52v453q0 45 16.5 61t48.5 16h290q39 0 54 -23q11 -16 11 -54v-453z" />
    <glyph glyph-name="afii10082" unicode="&#x440;" horiz-adv-x="512" 
d="M482 273q0 -130 -42 -194q-30 -45 -77 -63q-42 -16 -111 -16h-150v-170h-52v634q0 31 25 50q21 16 59 16h134q101 0 157.5 -60.5t56.5 -196.5zM426 266q0 97 -19 140q-34 77 -128 77h-153q-7 0 -15.5 -7t-8.5 -19v-410h171q84 0 123 60q30 46 30 159z" />
    <glyph glyph-name="afii10083" unicode="&#x441;" horiz-adv-x="476" 
d="M446 0h-212q-100 0 -156 67q-48 57 -48 191q0 152 59 212t166 60h179v-47h-185q-126 0 -153 -108q-10 -40 -10 -124t18 -125q35 -79 156 -79h186v-47z" />
    <glyph glyph-name="afii10084" unicode="&#x442;" horiz-adv-x="432" 
d="M442 483h-200v-483h-52v483h-200v47h452v-47z" />
    <glyph glyph-name="afii10085" unicode="&#x443;" horiz-adv-x="497" 
d="M507 530l-317 -701h-56l80 174l-224 527h56l196 -465l209 465h56z" />
    <glyph glyph-name="afii10086" unicode="&#x444;" horiz-adv-x="716" 
d="M686 259q0 -121 -44 -185q-51 -74 -169 -74h-89v-170h-52v170h-89q-118 0 -169 74q-44 64 -44 185q0 126 37 186q52 85 172 85h93v170h52v-170h93q120 0 172 -85q37 -60 37 -186zM630 253q0 122 -37 174q-40 56 -116 56h-93v-436h91q86 0 125 62q30 48 30 144zM332 47
v436h-93q-76 0 -116 -56q-37 -52 -37 -174q0 -96 30 -144q39 -62 125 -62h91z" />
    <glyph glyph-name="afii10087" unicode="&#x445;" horiz-adv-x="430" 
d="M440 0h-63l-162 233l-162 -233h-63l197 272l-188 258h61l155 -219l155 219h61l-187 -258z" />
    <glyph glyph-name="afii10088" unicode="&#x446;" horiz-adv-x="528" 
d="M538 0h-412q-40 0 -58 15t-18 53v462h52v-447q0 -22 7 -29t30 -7h278v483h52v-483h69v-47z" />
    <glyph glyph-name="afii10089" unicode="&#x447;" horiz-adv-x="510" 
d="M460 0h-52v249h-233q-82 0 -112 36q-23 28 -23 106v139h52v-151q0 -43 13 -60q18 -23 62 -23h241v234h52v-530z" />
    <glyph glyph-name="afii10090" unicode="&#x448;" horiz-adv-x="780" 
d="M730 69q0 -38 -16.5 -53.5t-67.5 -15.5h-512q-51 0 -67.5 15.5t-16.5 53.5v461h52v-447q0 -19 5 -26q7 -10 23 -10h234v483h52v-483h234q16 0 23 10q5 7 5 26v447h52v-461z" />
    <glyph glyph-name="afii10091" unicode="&#x449;" horiz-adv-x="789" 
d="M799 0h-665q-51 0 -67.5 15.5t-16.5 53.5v461h52v-447q0 -19 5 -26q7 -10 23 -10h234v483h52v-483h262v483h52v-483h69v-47z" />
    <glyph glyph-name="afii10092" unicode="&#x44a;" horiz-adv-x="537" 
d="M507 157q0 -94 -39 -131q-28 -26 -98 -26h-230q-32 0 -44.5 12.5t-12.5 48.5v392q0 16 -4.5 23t-22.5 7h-66v47h94q24 0 37.5 -13.5t13.5 -44.5v-169h245q58 0 90 -31q37 -36 37 -115zM451 158q0 52 -18 75t-53 23h-245v-178q0 -19 3.5 -25t21.5 -6h220q36 0 53.5 24.5
t17.5 86.5z" />
    <glyph glyph-name="afii10093" unicode="&#x44b;" horiz-adv-x="636" 
d="M586 0h-52v530h52v-530zM474 157q0 -94 -39 -131q-28 -26 -98 -26h-230q-32 0 -44.5 12.5t-12.5 48.5v469h52v-227h245q58 0 90 -31q37 -36 37 -115zM418 158q0 52 -18 75t-53 23h-245v-178q0 -18 3.5 -24.5t21.5 -6.5h220q36 0 53.5 24.5t17.5 86.5z" />
    <glyph glyph-name="afii10094" unicode="&#x44c;" horiz-adv-x="504" 
d="M474 157q0 -94 -39 -131q-28 -26 -98 -26h-230q-32 0 -44.5 12.5t-12.5 48.5v469h52v-227h245q58 0 90 -31q37 -36 37 -115zM418 158q0 52 -18 75t-53 23h-245v-178q0 -18 3.5 -24.5t21.5 -6.5h220q36 0 53.5 24.5t17.5 86.5z" />
    <glyph glyph-name="afii10095" unicode="&#x44d;" horiz-adv-x="494" 
d="M464 277q0 -148 -51 -211q-34 -42 -90 -57q-33 -9 -93 -9h-200v47h228q103 0 132 79q18 49 18 130h-364v47h364q2 70 -26 119q-35 61 -123 61h-222v47h223q95 0 149.5 -58.5t54.5 -194.5z" />
    <glyph glyph-name="afii10096" unicode="&#x44e;" horiz-adv-x="726" 
d="M696 268q0 -148 -65 -214q-59 -60 -190 -60q-128 0 -190 60q-68 66 -65 196h-84v-250h-52v530h52v-233h84q5 123 65 181t190 58q131 0 190 -58q65 -64 65 -210zM640 263q0 131 -41 178.5t-158 47.5t-158 -47.5t-41 -178.5q0 -124 41 -171q44 -51 158 -51t158 51
q41 47 41 171z" />
    <glyph glyph-name="afii10097" unicode="&#x44f;" horiz-adv-x="521" 
d="M471 0h-52v445q0 23 -6.5 30.5t-32.5 7.5h-213q-34 0 -50 -25.5t-16 -82.5q0 -63 13 -87q18 -33 63 -33h98q40 0 40 -30q0 -21 -14 -34l-201 -191h-70l200 190q9 9 9 12q0 6 -8 6h-57q-70 0 -102 46q-27 39 -27 119q0 85 34 121t89 36h224q44 0 61.5 -16.5t17.5 -64.5
v-449z" />
    <glyph glyph-name="afii10071" unicode="&#x451;" horiz-adv-x="517" 
d="M372 618h-56v82h56v-82zM194 618h-56v82h56v-82zM487 332q0 -50 -22 -69q-18 -16 -56 -16h-323q-2 -68 9 -108q26 -92 118 -92h260v-47h-260q-90 0 -140 65q-28 36 -37 90q-6 36 -6 108q0 74 10 117q16 66 61 103q56 47 166 47q84 0 135 -30q85 -50 85 -168zM431 329
q0 66 -36 108q-39 46 -137 46q-52 0 -79 -9q-43 -14 -67 -54t-26 -126h323q22 0 22 35z" />
    <glyph glyph-name="afii10099" unicode="&#x452;" horiz-adv-x="515" 
d="M485 141q0 -49 -13.5 -104.5t-50.5 -113.5q-32 -50 -72 -93h-67q57 61 95 121q31 49 43 99q13 54 13 105v217q0 49 -27 80t-85 31h-199v-483h-52v601h-80v47h80v52h52v-52h154v-47h-154v-71h194q83 0 123 -38q46 -43 46 -140v-211z" />
    <glyph glyph-name="afii10100" unicode="&#x453;" horiz-adv-x="398" 
d="M267 660l-123 -100l-31 39l123 100zM398 483h-318q-16 0 -22 -8t-6 -30v-445h-52v454q0 37 8 51q15 25 52 25h338v-47z" />
    <glyph glyph-name="afii10101" unicode="&#x454;" horiz-adv-x="491" 
d="M461 0h-200q-132 0 -183 66q-48 62 -48 211q0 135 51 194t150 59h223v-47h-222q-89 0 -123 -61q-25 -44 -25 -119h363v-47h-366q0 -79 20 -130q31 -79 132 -79h228v-47z" />
    <glyph glyph-name="afii10102" unicode="&#x455;" horiz-adv-x="504" 
d="M474 133q0 -81 -46 -113q-29 -20 -83 -20h-306v47h304q44 0 62 25q13 18 13 61q0 36 -19 54.5t-126 42.5l-92 21q-88 20 -122 59q-29 33 -29 88q0 51 27 86q36 46 128 46h254v-47h-275q-41 0 -59.5 -18.5t-18.5 -62.5q0 -47 21 -68t92 -37l96 -22q110 -25 141 -50
q38 -30 38 -92z" />
    <glyph glyph-name="afii10103" unicode="&#x456;" horiz-adv-x="156" 
d="M106 626h-56v74h56v-74zM104 0h-52v530h52v-530z" />
    <glyph glyph-name="afii10104" unicode="&#x457;" horiz-adv-x="156" 
d="M156 590h-52v79h52v-79zM52 590h-52v79h52v-79zM104 0h-52v530h52v-530z" />
    <glyph glyph-name="afii10105" unicode="&#x458;" horiz-adv-x="258" 
d="M208 626h-56v74h56v-74zM206 -9q0 -90 -60 -136q-45 -35 -123 -35q-16 0 -33 2v48q84 -4 124 27.5t40 103.5v529h52v-539z" />
    <glyph glyph-name="afii10106" unicode="&#x459;" horiz-adv-x="825" 
d="M795 157q0 -94 -39 -131q-28 -26 -98 -26h-230q-32 0 -44.5 12.5t-12.5 48.5v409q0 20 -19 20q-12 0 -22 -16l-283 -474h-57l287 485q30 51 76 51q32 0 51 -16t19 -43v-174h245q58 0 90 -31q37 -36 37 -115zM739 156q0 59 -21 81q-19 19 -50 19h-245v-178q0 -19 3.5 -25
t21.5 -6h220q36 0 53.5 24.5t17.5 84.5z" />
    <glyph glyph-name="afii10107" unicode="&#x45a;" horiz-adv-x="858" 
d="M828 154q0 -91 -39 -128q-28 -26 -98 -26h-224q-32 0 -44.5 12.5t-12.5 48.5v192h-308v-253h-52v530h52v-230h308v230h52v-230h239q58 0 90 -31q37 -36 37 -115zM772 155q0 52 -18 75t-53 23h-239v-175q0 -18 3.5 -24.5t21.5 -6.5h214q37 0 54 24.5t17 83.5z" />
    <glyph glyph-name="afii10108" unicode="&#x45b;" horiz-adv-x="535" 
d="M485 0h-52v358q0 63 -27 94t-85 31h-199v-483h-52v601h-80v47h80v52h52v-52h154v-47h-154v-71h194q83 0 123 -38q46 -43 46 -140v-352z" />
    <glyph glyph-name="afii10109" unicode="&#x45c;" horiz-adv-x="448" 
d="M301 660l-123 -100l-31 39l123 100zM458 0h-74l-223 210q-34 32 -34 63t41 69l202 188h71l-236 -223q-22 -21 -22 -34q0 -14 16 -29zM102 0h-52v530h52v-530z" />
    <glyph glyph-name="afii10110" unicode="&#x45e;" horiz-adv-x="516" 
d="M409 670q-20 -66 -69 -93q-33 -18 -82 -18q-64 0 -102 32q-33 28 -49 79h60q8 -27 26 -43q22 -20 65 -20t65 20q18 16 26 43h60zM516 528l-315 -698h-56l79 173l-224 527h56l196 -465l208 463h56z" />
    <glyph glyph-name="afii10193" unicode="&#x45f;" horiz-adv-x="522" 
d="M472 70q0 -35 -13 -51q-16 -19 -56 -19h-114v-176h-56v176h-114q-40 0 -56 19q-13 16 -13 51v460h52v-458q0 -17 4 -21t16 -4h278q12 0 16 4t4 21v458h52v-460z" />
    <glyph glyph-name="afii10050" unicode="&#x490;" horiz-adv-x="547" 
d="M567 705q0 -31 -12 -41.5t-46 -10.5h-356q-19 0 -24 -7.5t-5 -37.5v-608h-54v623q0 40 13 56q17 21 59 21h342q18 0 23.5 6.5t5.5 24.5v94h54v-120z" />
    <glyph glyph-name="afii10098" unicode="&#x491;" horiz-adv-x="404" 
d="M424 541q0 -31 -14.5 -44.5t-46.5 -13.5h-236q-16 0 -20.5 -7.5t-4.5 -23.5v-452h-52v465q0 34 15 49.5t46 15.5h234q16 0 21.5 6t5.5 18v103h52v-116z" />
    <glyph glyph-name="endash" unicode="&#x2013;" horiz-adv-x="592" 
d="M542 242h-492v58h492v-58z" />
    <glyph glyph-name="emdash" unicode="&#x2014;" horiz-adv-x="1140" 
d="M1070 242h-1000v58h1000v-58z" />
    <glyph glyph-name="quoteleft" unicode="&#x2018;" horiz-adv-x="200" 
d="M150 544l-45 -30l-105 156l45 30z" />
    <glyph glyph-name="quoteright" unicode="&#x2019;" horiz-adv-x="210" 
d="M180 670l-105 -156l-45 30l105 156z" />
    <glyph glyph-name="quotesinglbase" unicode="&#x201a;" horiz-adv-x="200" 
d="M150 70l-105 -156l-45 30l105 156z" />
    <glyph glyph-name="quotedblleft" unicode="&#x201c;" horiz-adv-x="355" 
d="M325 544l-45 -30l-105 156l45 30zM180 544l-45 -30l-105 156l45 30z" />
    <glyph glyph-name="quotedblright" unicode="&#x201d;" horiz-adv-x="355" 
d="M325 670l-105 -156l-45 30l105 156zM180 670l-105 -156l-45 30l105 156z" />
    <glyph glyph-name="quotedblbase" unicode="&#x201e;" horiz-adv-x="345" 
d="M295 70l-105 -156l-45 30l105 156zM150 70l-105 -156l-45 30l105 156z" />
    <glyph glyph-name="dagger" unicode="&#x2020;" horiz-adv-x="446" 
d="M416 442h-166v-612h-54v612h-166v48h166v210h54v-210h166v-48z" />
    <glyph glyph-name="daggerdbl" unicode="&#x2021;" horiz-adv-x="446" 
d="M416 26h-166v-196h-54v196h-166v48h166v368h-166v48h166v210h54v-210h166v-48h-166v-368h166v-48z" />
    <glyph glyph-name="bullet" unicode="&#x2022;" horiz-adv-x="540" 
d="M470 348q0 -82 -58.5 -141t-141.5 -59q-82 0 -141 59t-59 141q0 83 59 141.5t141 58.5q83 0 141.5 -58.5t58.5 -141.5z" />
    <glyph glyph-name="ellipsis" unicode="&#x2026;" horiz-adv-x="480" 
d="M410 0h-60v87h60v-87zM270 0h-60v87h60v-87zM130 0h-60v87h60v-87z" />
    <glyph glyph-name="perthousand" unicode="&#x2030;" horiz-adv-x="1000" 
d="M950 161q0 -98 -38 -136q-31 -31 -94 -31t-94 31q-38 38 -38 136t38 136q31 31 94 31t94 -31q38 -38 38 -136zM314 539q0 -98 -38 -136q-31 -31 -94 -31t-94 31q-38 38 -38 136t38 136q31 31 94 31t94 -31q38 -38 38 -136zM525 700l-318 -700h-47l318 700h47zM631 161
q0 -98 -38 -136q-31 -31 -94 -31t-94 31q-38 38 -38 136t38 136q31 31 94 31t94 -31q38 -38 38 -136zM900 161q0 71 -22 100q-20 26 -60 26t-60 -26q-22 -29 -22 -100t21 -98.5t61 -27.5t61 27.5t21 98.5zM264 539q0 74 -20 100t-62 26t-62 -26t-20 -100t20 -100t62 -26
t62 26t20 100zM581 161q0 71 -22 100q-20 26 -60 26t-60 -26q-22 -29 -22 -100t21 -98.5t61 -27.5t61 27.5t21 98.5z" />
    <glyph glyph-name="guilsinglleft" unicode="&#x2039;" horiz-adv-x="289" 
d="M239 74l-43 -29l-131 192q-15 22 -15 44t15 44l131 192l43 -29l-124 -179q-11 -16 -11 -28t11 -28z" />
    <glyph glyph-name="guilsinglright" unicode="&#x203a;" horiz-adv-x="289" 
d="M239 281q0 -22 -15 -44l-131 -192l-43 29l124 179q11 16 11 28t-11 28l-124 179l43 29l131 -192q15 -22 15 -44z" />
    <glyph glyph-name="radicalex" unicode="&#x203e;" horiz-adv-x="400" 
d="M350 242h-300v58h300v-58z" />
    <glyph glyph-name="fraction" unicode="&#x2044;" horiz-adv-x="468" 
d="M478 740l-438 -903h-50l438 903h50z" />
    <glyph glyph-name="afii61352" unicode="&#x2116;" horiz-adv-x="944" 
d="M894 522q0 -59 -25.5 -83.5t-79.5 -24.5t-79.5 24.5t-25.5 83.5v76q0 59 25.5 83.5t79.5 24.5t79.5 -24.5t25.5 -83.5v-76zM894 333h-210v40h210v-40zM633 70q0 -78 -61 -78q-39 0 -69 51l-347 591q-10 17 -20 17q-12 0 -12 -20v-631h-54v637q0 71 64 71q39 0 67 -47
l349 -594q11 -18 19 -18q9 0 10 6q0 -1 0 12v633h54v-630zM852 522v78q0 37 -13.5 52.5t-49.5 15.5t-49.5 -15.5t-13.5 -52.5v-78q0 -39 13.5 -54.5t49.5 -15.5t49.5 15.5t13.5 54.5z" />
    <glyph glyph-name="trademark" unicode="&#x2122;" horiz-adv-x="900" 
d="M850 300h-47v352q0 11 -8 11q-7 0 -11 -12l-112 -312q-16 -44 -49 -44t-49 44l-112 312q-4 12 -11 12q-8 0 -8 -11v-352h-47v368q0 38 40 38q49 0 63 -40l114 -316q7 -13 10 -13q4 0 10 13l114 316q14 40 63 40q40 0 40 -38v-368zM367 657h-160v-357h-47v357h-160v44h367
v-44z" />
    <glyph glyph-name="minus" unicode="&#xad;" horiz-adv-x="400" 
d="M350 242h-300v58h300v-58z" />
    <glyph glyph-name="minus" unicode="&#x2212;" horiz-adv-x="400" 
d="M350 242h-300v58h300v-58z" />
    <glyph glyph-name="periodcentered" unicode="&#x2219;" horiz-adv-x="160" 
d="M110 250h-60v87h60v-87z" />
  </font>
</defs>
</svg>
