<?xml version="1.0" standalone="no"?>
<!DOCTYPE svg PUBLIC "-//W3C//DTD SVG 1.1//EN" "http://www.w3.org/Graphics/SVG/1.1/DTD/svg11.dtd" >
<svg>
<metadata>
Created by FontForge 20090622 at Thu Nov 29 15:24:44 2018
 By deploy user
Copyright (c) 1990-1997 ParaGraph.  !!! Bugs fixed and optimised by Ghidkih Igor (QWERTY) in 2002 year. Enjoy!!!
</metadata>
<defs>
<font id="MagistralBold" horiz-adv-x="659" >
  <font-face 
    font-family="Magistral Bold"
    font-weight="400"
    font-stretch="normal"
    units-per-em="1000"
    panose-1="0 0 4 0 0 0 0 0 0 0"
    ascent="800"
    descent="-200"
    x-height="530"
    cap-height="700"
    bbox="-40 -194 1167 947"
    underline-thickness="20"
    underline-position="-123"
    unicode-range="U+0020-U+2219"
  />
<missing-glyph horiz-adv-x="500" 
d="M63 0v800h375v-800h-375zM125 63h250v675h-250v-675z" />
    <glyph glyph-name=".notdef" horiz-adv-x="500" 
d="M63 0v800h375v-800h-375zM125 63h250v675h-250v-675z" />
    <glyph glyph-name=".null" horiz-adv-x="0" 
 />
    <glyph glyph-name="nonmarkingreturn" horiz-adv-x="233" 
 />
    <glyph glyph-name="space" unicode=" " horiz-adv-x="233" 
 />
    <glyph glyph-name="exclam" unicode="!" horiz-adv-x="258" 
d="M198 700l-9 -505h-120l-9 505h138zM190 0h-122v124h122v-124z" />
    <glyph glyph-name="quotedbl" unicode="&#x22;" horiz-adv-x="389" 
d="M329 700l-5 -249h-98l-6 249h109zM169 700l-5 -249h-98l-6 249h109z" />
    <glyph glyph-name="numbersign" unicode="#" horiz-adv-x="874" 
d="M834 528l-35 -86h-133l-71 -176h133l-35 -86h-133l-72 -180h-100l72 180h-188l-72 -180h-99l71 180h-132l34 86h133l71 176h-133l35 86h133l69 172h100l-69 -172h188l69 172h100l-69 -172h133zM566 442h-188l-71 -176h188z" />
    <glyph glyph-name="dollar" unicode="$" horiz-adv-x="670" 
d="M630 171q0 -101 -48 -139q-40 -32 -144 -32h-66v-68h-78v68h-228v105h228v211l-134 43q-70 22 -96 67q-24 41 -24 108q0 82 33 119q41 47 140 47h81v68h78v-68h214v-105h-214v-200l118 -38q40 -13 56 -21q31 -16 53 -45q31 -41 31 -120zM294 420v175h-27
q-52 0 -71.5 -19.5t-19.5 -64.5q0 -53 52 -70zM494 181q0 71 -72 94l-50 16v-186h24q56 0 77 18t21 58z" />
    <glyph glyph-name="percent" unicode="%" horiz-adv-x="817" 
d="M757 162q0 -95 -40 -134q-35 -34 -115 -34q-81 0 -116 34q-39 38 -39 134t39 134q35 34 116 34q80 0 115 -34q40 -39 40 -134zM633 700l-357 -700h-88l357 700h88zM370 538q0 -95 -40 -134q-35 -34 -115 -34q-81 0 -116 34q-39 38 -39 134t39 134q35 34 116 34
q80 0 115 -34q40 -39 40 -134zM675 162q0 59 -18 80t-55 21q-39 0 -56 -21t-17 -80t17 -80t56 -21q37 0 55 21t18 80zM288 538q0 59 -18 80t-55 21q-39 0 -56 -21t-17 -80t17 -80t56 -21q37 0 55 21t18 80z" />
    <glyph glyph-name="ampersand" unicode="&#x26;" horiz-adv-x="745" 
d="M725 303h-105v-170q0 -77 -29 -105t-111 -28h-233q-49 0 -73 6q-45 11 -74 46q-40 48 -40 144q0 73 26 108q29 39 80 46v2q-43 5 -71 41q-34 44 -34 122q0 98 45 143q42 42 140 42h366v-104h-315q-70 0 -88 -28q-14 -22 -14 -67q0 -58 25 -81t86 -23h419v-94zM491 141
v161h-218q-49 0 -68 -31q-11 -19 -11 -70t16 -71q20 -26 77 -26h157q32 0 39.5 7.5t7.5 29.5z" />
    <glyph glyph-name="quotesingle" unicode="'" horiz-adv-x="230" 
d="M170 700l-6 -249h-98l-6 249h110z" />
    <glyph glyph-name="parenleft" unicode="(" horiz-adv-x="371" 
d="M331 -159q-115 -2 -197 75q-50 47 -65 117q-9 43 -9 126v230q0 90 10 132q16 68 64 112q78 72 197 73v-84q-106 -1 -155 -80q-26 -42 -26 -133v-271q0 -90 26 -132q48 -78 155 -81v-84z" />
    <glyph glyph-name="parenright" unicode=")" horiz-adv-x="372" 
d="M312 159q0 -82 -9 -126q-15 -71 -64 -117q-83 -77 -199 -75v84q52 1 96 26q40 22 60 55q26 44 26 132v271q0 89 -26 133q-20 33 -60 55q-44 24 -96 25v84q121 -2 199 -73q47 -43 63 -112q10 -43 10 -132v-230z" />
    <glyph glyph-name="asterisk" unicode="*" horiz-adv-x="508" 
d="M468 450l-38 -66l-140 81v-163h-72v163l-140 -81l-38 66l142 82l-142 82l36 62l142 -82v164h72v-164l142 82l36 -62l-142 -82z" />
    <glyph glyph-name="plus" unicode="+" horiz-adv-x="579" 
d="M519 268h-184v-184h-91v184h-184v85h184v184h91v-184h184v-85z" />
    <glyph glyph-name="comma" unicode="," horiz-adv-x="278" 
d="M218 83l-129 -199l-89 53l122 203z" />
    <glyph glyph-name="hyphen" unicode="-" horiz-adv-x="437" 
d="M397 218h-357v103h357v-103z" />
    <glyph glyph-name="hyphen" unicode="&#x2010;" horiz-adv-x="437" 
d="M397 218h-357v103h357v-103z" />
    <glyph glyph-name="period" unicode="." horiz-adv-x="242" 
d="M182 0h-122v129h122v-129z" />
    <glyph glyph-name="slash" unicode="/" horiz-adv-x="507" 
d="M507 740l-438 -906h-69l438 906h69z" />
    <glyph glyph-name="zero" unicode="0" horiz-adv-x="644" 
d="M604 253q0 -167 -84 -224q-37 -25 -101 -32q-23 -2 -97 -2q-75 0 -97 2q-64 7 -101 32q-84 58 -84 224v201q0 137 73 201q38 33 97 44q40 8 112 8t112 -8q59 -11 97 -44q73 -64 73 -201v-201zM472 268v180q0 88 -45 125q-36 29 -105 29t-105 -29q-45 -37 -45 -125v-180
q0 -98 30 -133t120 -35q89 0 119.5 35.5t30.5 132.5z" />
    <glyph glyph-name="one" unicode="1" horiz-adv-x="302" 
d="M242 0h-132v547q0 26 -7 37t-26 11h-77v105h151q42 0 66.5 -20t24.5 -68v-612z" />
    <glyph glyph-name="two" unicode="2" horiz-adv-x="627" 
d="M587 514q0 -93 -32 -139q-18 -26 -61 -56l-282 -196q-11 -8 -11 -12q0 -6 8 -6h348v-105h-443q-74 0 -74 84q0 63 43 92l324 222q44 30 44 101q0 54 -14 72q-19 24 -71 24h-279v105h340q78 0 119 -42t41 -144z" />
    <glyph glyph-name="three" unicode="3" horiz-adv-x="619" 
d="M579 193q0 -106 -46 -152q-41 -41 -119 -41h-374v105h281q72 0 91 12q31 20 31 83q0 62 -29 84q-23 17 -66 17h-290v105h282q53 0 73 22t20 74q0 51 -19 72t-63 21h-299v105h351q93 0 133 -52q33 -42 33 -132q0 -85 -33 -123q-28 -32 -72 -36v-3q45 -1 76 -31
q39 -38 39 -130z" />
    <glyph glyph-name="four" unicode="4" horiz-adv-x="693" 
d="M663 118h-89v-118h-132v118h-336q-54 0 -74 37q-12 24 -12 60q0 49 39 91l338 362q37 40 97 40q42 0 63 -22q17 -18 17 -54v-409h89v-105zM442 223v332q0 4 -4 4q-3 0 -12 -10l-268 -297q-12 -13 -12 -17q0 -12 18 -12h278z" />
    <glyph glyph-name="five" unicode="5" horiz-adv-x="618" 
d="M578 217q0 -130 -48 -177q-41 -40 -133 -40h-353v105h312q52 0 71 30q15 24 15 77q0 49 -15 70q-19 26 -61 26h-186q-72 0 -100 20q-40 29 -40 105v177q0 42 23 66t70 24h422v-105h-350q-21 0 -27 -8t-6 -28v-87q0 -34 11.5 -46.5t46.5 -12.5h193q77 0 119 -53
q36 -45 36 -143z" />
    <glyph glyph-name="six" unicode="6" horiz-adv-x="639" 
d="M599 227q0 -103 -30 -155q-42 -72 -157 -72h-175q-68 0 -115 34q-62 45 -62 159v325q0 98 61 147q44 35 122 35h321v-105h-274q-52 0 -75 -23t-23 -68v-75h225q84 0 127 -38q55 -49 55 -164zM463 219q0 54 -24.5 79.5t-81.5 25.5h-165v-125q0 -51 19.5 -72.5t71.5 -21.5
h85q48 0 71.5 26.5t23.5 87.5z" />
    <glyph glyph-name="seven" unicode="7" horiz-adv-x="538" 
d="M548 627q0 -43 -24 -81l-345 -546h-147l361 556q11 17 11 26q0 13 -21 13h-393v105h481q77 0 77 -73z" />
    <glyph glyph-name="eight" unicode="8" horiz-adv-x="633" 
d="M593 185q0 -84 -31 -124t-80 -53q-30 -8 -90 -8h-151q-59 0 -90 8q-50 13 -80.5 54t-30.5 123q0 102 42 140q27 24 70 30v2q-33 4 -58 31q-38 40 -38 119q0 111 46 152t162 41h104q116 0 161 -40q48 -43 48 -153q0 -79 -38 -119q-25 -27 -58 -31v-2q43 -7 70 -30
q42 -37 42 -140zM441 500q0 56 -25 78q-19 17 -68 17h-64q-47 0 -67 -17q-25 -21 -25 -78q0 -48 13 -67q18 -26 69 -26h85q49 0 67 24q15 20 15 69zM457 206q0 56 -29 79q-21 17 -63 17h-97q-42 0 -63 -17q-29 -23 -29 -79q0 -54 18 -75q22 -26 70 -26h105q48 0 70 26
q18 21 18 75z" />
    <glyph glyph-name="nine" unicode="9" horiz-adv-x="617" 
d="M577 230q0 -96 -24 -144q-43 -86 -166 -86h-315v105h271q55 0 78.5 23.5t23.5 84.5v59h-242q-78 0 -122 52q-41 48 -41 162q0 123 53 172q45 42 141 42h141q124 0 171 -68q31 -45 31 -120v-282zM445 377v125q0 52 -28 74q-24 19 -62 19h-81q-45 0 -70 -24
q-28 -27 -28 -88t26 -85q23 -21 81 -21h162z" />
    <glyph glyph-name="colon" unicode=":" horiz-adv-x="242" 
d="M182 404h-122v126h122v-126zM182 0h-122v126h122v-126z" />
    <glyph glyph-name="semicolon" unicode=";" horiz-adv-x="283" 
d="M223 404h-122v126h122v-126zM218 83l-129 -199l-89 53l122 203z" />
    <glyph glyph-name="less" unicode="&#x3c;" horiz-adv-x="581" 
d="M521 172l-461 232l461 232v-92l-297 -140l297 -140v-92z" />
    <glyph glyph-name="equal" unicode="=" horiz-adv-x="580" 
d="M520 348h-460v85h460v-85zM520 197h-460v85h460v-85z" />
    <glyph glyph-name="greater" unicode="&#x3e;" horiz-adv-x="581" 
d="M521 404l-461 -232v92l297 140l-297 140v92z" />
    <glyph glyph-name="question" unicode="?" horiz-adv-x="484" 
d="M444 528q0 -55 -13 -87q-19 -45 -73 -78l-77 -47q-23 -14 -33.5 -28t-10.5 -38v-55h-122v58q0 43 20 71q18 25 56 48l65 39q30 18 41 33q15 22 15 63q0 49 -20 68.5t-69 19.5h-203v105h263q88 0 126 -44q35 -40 35 -128zM237 0h-122v124h122v-124z" />
    <glyph glyph-name="at" unicode="@" horiz-adv-x="1016" 
d="M956 305q0 -161 -31 -225q-40 -83 -135 -83q-48 0 -84 22q-41 25 -52 71q-50 -93 -181 -93q-126 0 -176 86q-32 55 -32 172q0 111 29 167q51 99 181 99h145q50 0 70 -20.5t20 -68.5v-249q0 -102 78 -102q42 0 61 48q16 40 16 186q0 156 -37 217q-52 86 -207 86h-201
q-195 0 -246 -121q-24 -57 -24 -237q0 -158 24 -231q46 -139 229 -139h303v-84h-319q-177 0 -259 113q-44 61 -59 173q-9 67 -9 188q0 118 10 175q14 81 58 137q53 68 140 93q59 17 155 17h194q210 0 290 -132q32 -53 42 -127q7 -47 7 -138zM613 250v143q0 16 -10 26t-32 10
h-75q-60 0 -93 -35q-38 -40 -38 -137q0 -83 18 -117q26 -50 92 -50q64 0 103 45q35 40 35 115z" />
    <glyph glyph-name="A" unicode="A" horiz-adv-x="698" 
d="M728 0h-139l-72 177h-337l-71 -177h-139l264 629q19 45 43.5 62t71.5 17q45 0 70.5 -17.5t44.5 -61.5zM483 271l-114 285q-12 29 -20 29t-20 -29l-115 -285h269z" />
    <glyph glyph-name="B" unicode="B" horiz-adv-x="722" 
d="M682 192q0 -102 -40 -147q-27 -30 -63 -39q-21 -6 -65 -6h-335q-40 0 -50 2q-27 5 -45 26q-24 27 -24 71v500q0 46 23 73.5t73 27.5h344q86 0 127 -42q44 -45 44 -150q0 -75 -33 -114q-28 -33 -66 -36v-4q47 -4 77 -37q33 -36 33 -125zM535 502q0 53 -23 75
q-19 18 -65 18h-216q-23 0 -31 -9t-8 -30v-150h256q53 0 72 25q15 20 15 71zM546 201q0 50 -15 71q-20 29 -71 29h-268v-144q0 -32 9 -42t42 -10h208q56 0 77 25q18 22 18 71z" />
    <glyph glyph-name="C" unicode="C" 
d="M629 0h-295q-150 0 -222 81t-72 259q0 192 68 272q75 88 229 88h281v-105h-219q-70 0 -106 -10q-51 -14 -78 -55q-39 -58 -39 -188q0 -119 33 -170q44 -67 183 -67h237v-105z" />
    <glyph glyph-name="D" unicode="D" horiz-adv-x="749" 
d="M709 358q0 -190 -62 -272q-65 -86 -196 -86h-284q-54 0 -78 19q-29 23 -29 70v499q0 55 25.5 83.5t73.5 28.5h274q130 0 205 -83q45 -50 61 -126q10 -49 10 -133zM573 368q0 125 -49 176t-150 51h-137q-22 0 -31 -7q-14 -11 -14 -35v-400q0 -28 9 -38t34 -10h152
q111 0 151 65q35 57 35 198z" />
    <glyph glyph-name="E" unicode="E" horiz-adv-x="651" 
d="M621 0h-455q-57 0 -80 22q-26 25 -26 82v496q0 46 24 73t84 27h449v-105h-378q-25 0 -36 -10t-11 -34v-141h415v-105h-415v-164q0 -19 9.5 -27.5t45.5 -8.5h374v-105z" />
    <glyph glyph-name="F" unicode="F" horiz-adv-x="621" 
d="M617 595h-392q-17 0 -25 -8.5t-8 -27.5v-152h310v-105h-310v-302h-132v608q0 42 26 67t75 25h456v-105z" />
    <glyph glyph-name="G" unicode="G" horiz-adv-x="727" 
d="M687 90q0 -47 -25.5 -68.5t-68.5 -21.5h-298q-97 0 -163 55q-57 48 -78 135q-14 59 -14 156q0 109 18 173q27 93 96 138q66 43 169 43h348v-105h-311q-113 0 -155 -76q-29 -53 -29 -169t28 -172q36 -73 134 -73h171q24 0 35 11t11 36v191h132v-253z" />
    <glyph glyph-name="H" unicode="H" horiz-adv-x="748" 
d="M688 0h-132v308h-364v-308h-132v700h132v-287h364v287h132v-700z" />
    <glyph glyph-name="I" unicode="I" horiz-adv-x="252" 
d="M192 0h-132v700h132v-700z" />
    <glyph glyph-name="J" unicode="J" horiz-adv-x="445" 
d="M385 245q0 -119 -59 -179q-65 -66 -167 -66h-179v105h115q73 0 113 35q45 39 45 140v420h132v-455z" />
    <glyph glyph-name="K" unicode="K" horiz-adv-x="700" 
d="M730 0h-167l-288 269q-44 41 -44 91q0 44 34 78l265 262h163l-302 -287q-33 -31 -33 -52q0 -29 41 -66zM192 0h-132v700h132v-700z" />
    <glyph glyph-name="L" unicode="L" horiz-adv-x="598" 
d="M618 0h-468q-43 0 -65 18q-25 20 -25 58v624h132v-557q0 -22 10 -30t32 -8h384v-105z" />
    <glyph glyph-name="M" unicode="M" horiz-adv-x="992" 
d="M932 0h-132l4 545q0 21 -12 21q-8 0 -17 -23l-179 -467q-17 -45 -34 -62q-23 -22 -66 -22q-45 0 -69 25q-15 16 -31 59l-179 467q-9 23 -17 23q-11 0 -11 -21l3 -545h-132v616q0 92 113 92q55 0 85 -27q21 -18 38 -63l181 -467q10 -26 19 -26t19 26l181 467q21 54 54 75
q25 15 69 15q113 0 113 -92v-616z" />
    <glyph glyph-name="N" unicode="N" horiz-adv-x="790" 
d="M730 91q0 -99 -104 -99q-76 0 -113 59l-295 466q-11 17 -16 17q-14 0 -14 -20v-514h-128v613q0 45 28.5 70t78.5 25q76 0 111 -55l297 -469q11 -17 16 -17q11 0 11 17v516h128v-609z" />
    <glyph glyph-name="O" unicode="O" horiz-adv-x="799" 
d="M759 350q0 -206 -80 -284q-50 -49 -138 -65q-50 -9 -141 -9q-92 0 -142 9q-86 16 -138 66t-70 141q-10 51 -10 142q0 95 12 151q18 85 69 133.5t137 64.5q49 9 142 9q92 0 142 -9q86 -16 137 -65q80 -77 80 -284zM623 350q0 143 -43 196q-46 57 -181 57
q-134 0 -178.5 -55.5t-44.5 -197.5q0 -140 43 -195q28 -36 78 -49q36 -9 102 -9t102 9q50 13 79 49q43 54 43 195z" />
    <glyph glyph-name="P" unicode="P" horiz-adv-x="728" 
d="M688 474q0 -142 -61 -192q-42 -34 -107 -34h-328v-248h-132v595q0 54 25.5 79.5t77.5 25.5h333q96 0 139 -42q53 -51 53 -184zM552 475q0 70 -24 95t-83 25h-213q-22 0 -31 -9t-9 -33v-200h251q63 0 86 26t23 96z" />
    <glyph glyph-name="Q" unicode="Q" horiz-adv-x="806" 
d="M782 0h-382q-101 0 -147 7q-84 14 -130 59q-55 54 -73 143q-10 50 -10 139q0 98 12 153q18 83 69 133q43 41 111 58q62 16 168 16q107 0 168 -15q67 -17 110 -58t61 -102q20 -66 20 -176q0 -124 -29 -184q-17 -36 -48 -64v-4l100 4v-109zM623 351q0 140 -43 194
q-29 36 -78 49q-36 9 -103 9q-66 0 -102 -9q-50 -13 -78 -49q-43 -55 -43 -194t43 -192q28 -35 78 -46q34 -8 102 -8q69 0 103 8q50 12 78 46q43 53 43 192z" />
    <glyph glyph-name="R" unicode="R" horiz-adv-x="734" 
d="M704 0h-166l-230 227q-33 33 -33 59v16q0 48 59 48h132q52 0 72 31q16 25 16 96q0 72 -25 97q-21 21 -74 21h-214q-22 0 -35.5 -11.5t-13.5 -38.5v-545h-132v581q0 63 29 91t84 28h332q107 0 150 -64q35 -52 35 -154t-30 -158q-39 -72 -132 -72h-90v-5z" />
    <glyph glyph-name="S" unicode="S" 
d="M629 180q0 -85 -35 -130q-39 -50 -125 -50h-430v105h388q66 0 66 76q0 58 -68 79l-276 87q-54 17 -83 52q-36 43 -36 132q0 88 45 130q42 39 115 39h403v-105h-358q-38 0 -55.5 -16.5t-17.5 -53.5q0 -58 65 -79l256 -81q71 -23 100 -50q46 -44 46 -135z" />
    <glyph glyph-name="T" unicode="T" 
d="M669 595h-274v-595h-132v595h-273v105h679v-105z" />
    <glyph glyph-name="U" unicode="U" horiz-adv-x="728" 
d="M668 246q0 -117 -61 -179q-73 -75 -243 -75t-243 75q-61 62 -61 179v454h132v-436q0 -85 34 -122q41 -45 138 -45q98 0 139 45q33 36 33 122v436h132v-454z" />
    <glyph glyph-name="V" unicode="V" horiz-adv-x="674" 
d="M704 700l-254 -632q-31 -76 -113 -76t-113 76l-254 632h143l209 -565q6 -15 15 -15t15 15l209 565h143z" />
    <glyph glyph-name="W" unicode="W" horiz-adv-x="1001" 
d="M1031 700l-169 -610q-13 -46 -31 -66q-27 -32 -82 -32q-88 0 -112 90l-123 453q-5 19 -14 19q-8 0 -13 -19l-124 -453q-25 -90 -111 -90q-45 0 -70 20q-29 23 -44 78l-168 610h134l139 -539q5 -21 15 -21t15 17l130 479q20 72 97 72t97 -72l130 -479q5 -17 15 -17
q11 0 16 21l139 539h134z" />
    <glyph glyph-name="X" unicode="X" horiz-adv-x="628" 
d="M658 0h-157l-187 262l-187 -262h-157l269 355l-261 345h157l179 -252l179 252h157l-261 -345z" />
    <glyph glyph-name="Y" unicode="Y" horiz-adv-x="664" 
d="M694 700l-296 -486v-214h-132v214l-296 486h142l220 -367l220 367h142z" />
    <glyph glyph-name="Z" unicode="Z" horiz-adv-x="613" 
d="M611 628q0 -44 -40 -86l-387 -408q-10 -11 -10 -18q0 -11 12 -11h414v-105h-502q-96 0 -96 72q0 50 43 94l382 395q12 12 12 21q0 13 -19 13h-391v105h503q79 0 79 -72z" />
    <glyph glyph-name="bracketleft" unicode="[" horiz-adv-x="370" 
d="M330 -159h-270v865h270v-84h-180v-697h180v-84z" />
    <glyph glyph-name="backslash" unicode="\" horiz-adv-x="507" 
d="M507 -166h-69l-438 906h69z" />
    <glyph glyph-name="bracketright" unicode="]" horiz-adv-x="372" 
d="M312 -159h-272v84h182v697h-182v84h272v-865z" />
    <glyph glyph-name="asciicircum" unicode="^" horiz-adv-x="590" 
d="M530 589l-58 -68l-148 145q-14 14 -28 14t-28 -14l-149 -145l-59 68l181 169q25 23 54 23t54 -23z" />
    <glyph glyph-name="underscore" unicode="_" horiz-adv-x="572" 
d="M532 0h-492v103h492v-103z" />
    <glyph glyph-name="grave" unicode="`" horiz-adv-x="301" 
d="M261 634l-59 -74l-162 132l60 75z" />
    <glyph glyph-name="a" unicode="a" horiz-adv-x="555" 
d="M515 89q0 -47 -21 -68t-73 -21h-253q-66 0 -96 26q-46 40 -46 144q0 90 45 129q35 31 97 31h230v37q0 31 -15 50q-19 23 -57 23h-261v90h301q149 0 149 -166v-275zM398 118v122h-195q-29 0 -42.5 -17.5t-13.5 -57.5q0 -42 15.5 -58.5t38.5 -16.5h163q19 0 26.5 6t7.5 22z
" />
    <glyph glyph-name="b" unicode="b" horiz-adv-x="558" 
d="M532 262q0 -117 -34 -175q-51 -87 -183 -87h-167q-59 0 -83.5 22.5t-24.5 66.5v611h117v-170h155q134 0 185 -87q35 -60 35 -181zM411 257q0 87 -18 125q-27 58 -107 58h-129v-306q0 -27 8 -35.5t32 -8.5h85q83 0 111 54q18 35 18 113z" />
    <glyph glyph-name="c" unicode="c" horiz-adv-x="513" 
d="M487 0h-255q-103 0 -158 65q-48 57 -48 193q0 154 60 215q56 57 162 57h227v-90h-189q-106 0 -130 -84q-9 -31 -9 -100q0 -76 17 -110q28 -56 133 -56h190v-90z" />
    <glyph glyph-name="d" unicode="d" horiz-adv-x="559" 
d="M519 93q0 -44 -16 -66q-20 -27 -73 -27h-209q-125 0 -169 105q-26 62 -26 168q0 119 41 178q55 79 178 79h157v170h117v-607zM402 135v305h-134q-69 0 -98 -47q-23 -37 -23 -124q0 -86 14 -119q26 -60 107 -60h94q22 0 31 8t9 37z" />
    <glyph glyph-name="e" unicode="e" horiz-adv-x="563" 
d="M537 326q0 -55 -25 -80q-20 -20 -57 -20h-308q0 -46 7 -73q16 -63 107 -63h259v-90h-294q-115 0 -162 67q-38 54 -38 193q0 87 10 129q13 59 53 93q58 50 198 50q121 0 175 -34q75 -47 75 -172zM416 347q0 45 -33 70t-101 25q-80 0 -111 -35q-22 -25 -24 -91h243
q26 0 26 31z" />
    <glyph glyph-name="f" unicode="f" horiz-adv-x="352" 
d="M344 440h-145v-440h-117v440h-74v89h74q3 91 55 134q60 49 207 44v-86q-91 0 -115 -16q-31 -21 -30 -75h145v-90z" />
    <glyph glyph-name="g" unicode="g" horiz-adv-x="573" 
d="M533 60q0 -120 -43 -171q-54 -64 -177 -64h-250v90h223q69 0 98 24q26 22 31 61h-188q-116 0 -160 68q-41 64 -41 205q0 137 56 199q53 58 163 58h171q60 0 86 -21q31 -25 31 -77v-372zM416 90v308q0 24 -13.5 33t-32.5 9h-100q-61 0 -91 -33q-32 -36 -32 -143
q0 -108 30 -143q27 -31 100 -31h139z" />
    <glyph glyph-name="h" unicode="h" horiz-adv-x="562" 
d="M522 0h-117v318q0 62 -27 92t-84 30h-137v-440h-117v700h117v-170h159q103 0 149 -38q57 -47 57 -143v-349z" />
    <glyph glyph-name="i" unicode="i" horiz-adv-x="197" 
d="M157 607h-117v93h117v-93zM157 0h-117v530h117v-530z" />
    <glyph glyph-name="j" unicode="j" horiz-adv-x="275" 
d="M235 607h-117v93h117v-93zM235 13q0 -102 -68 -152q-61 -45 -207 -39v90q83 -1 117 23q41 30 41 102v493h117v-517z" />
    <glyph glyph-name="k" unicode="k" horiz-adv-x="537" 
d="M551 0h-140l-183 194q-36 38 -36 80q0 39 37 80l160 176h136l-199 -214q-17 -18 -17 -38q0 -23 25 -49zM157 0h-117v700h117v-700z" />
    <glyph glyph-name="l" unicode="l" horiz-adv-x="197" 
d="M157 0h-117v700h117v-700z" />
    <glyph glyph-name="m" unicode="m" horiz-adv-x="835" 
d="M795 0h-117v340q0 50 -22 75t-71 25h-109v-440h-117v440h-171q-18 0 -24.5 -6.5t-6.5 -29.5v-404h-117v438q0 39 15 60q22 32 80 32h477q90 0 135 -42q48 -45 48 -130v-358z" />
    <glyph glyph-name="n" unicode="n" horiz-adv-x="565" 
d="M525 0h-117v314q0 65 -22 94q-25 32 -84 32h-119q-14 0 -20 -6t-6 -22v-412h-117v449q0 38 17 57q22 24 81 24h187q100 0 148 -43q52 -47 52 -138v-349z" />
    <glyph glyph-name="o" unicode="o" horiz-adv-x="616" 
d="M590 267q0 -152 -68 -216q-61 -57 -214 -57q-152 0 -214 57q-68 62 -68 212q0 154 68 217q60 56 214 56t214 -56q68 -63 68 -213zM469 264q0 102 -34 140q-38 42 -127 42q-92 0 -128 -42q-33 -38 -33 -140q0 -97 34 -136q38 -44 127 -44q87 0 126 44q35 39 35 136z" />
    <glyph glyph-name="p" unicode="p" horiz-adv-x="559" 
d="M533 276q0 -140 -42 -200q-53 -76 -186 -76h-148v-170h-117v618q0 42 30 65q22 17 66 17h185q100 0 156 -58t56 -196zM412 266q0 82 -14 114q-26 60 -102 60h-115q-7 0 -15.5 -7.5t-8.5 -17.5v-325h133q68 0 100 49q22 34 22 127z" />
    <glyph glyph-name="q" unicode="q" horiz-adv-x="559" 
d="M519 -170h-117v170h-189q-95 0 -145 69q-42 58 -42 186q0 148 51 214q47 61 140 61h214q50 0 73 -31q15 -20 15 -68v-601zM402 90v314q0 18 -10 27t-33 9h-86q-88 0 -113 -61q-13 -32 -13 -117q0 -75 10 -105q23 -67 102 -67h143z" />
    <glyph glyph-name="r" unicode="r" horiz-adv-x="333" 
d="M333 440h-49q-69 0 -100 -37q-27 -32 -27 -104v-299h-117v330q0 106 54 153t160 47h79v-90z" />
    <glyph glyph-name="s" unicode="s" horiz-adv-x="527" 
d="M501 135q0 -79 -44 -113q-29 -22 -85 -22h-339v90h298q26 0 39 15q10 11 10 33q0 26 -15 40q-12 11 -96 34l-102 28q-87 24 -116 64q-25 35 -25 90t25 90q33 46 127 46h299v-90h-281q-28 0 -42 -11t-14 -37q0 -27 16.5 -40.5t66.5 -27.5l114 -32q103 -29 132 -60
q32 -34 32 -97z" />
    <glyph glyph-name="t" unicode="t" horiz-adv-x="341" 
d="M341 0h-73q-94 0 -142 39q-53 44 -53 134v267h-73v90h73v170h117v-170h148v-90h-148v-213q0 -44 3 -60q6 -36 28 -54q28 -23 91 -23h29v-90z" />
    <glyph glyph-name="u" unicode="u" horiz-adv-x="570" 
d="M530 95q0 -52 -28 -75q-24 -20 -83 -20h-187q-92 0 -138 40q-54 47 -54 156v334h117v-313q0 -66 20 -93q25 -34 95 -34h97q23 0 33.5 10.5t10.5 32.5v397h117v-435z" />
    <glyph glyph-name="v" unicode="v" horiz-adv-x="519" 
d="M543 530l-202 -489q-19 -47 -81 -47q-63 0 -82 47l-202 489h121l149 -393q8 -21 14 -21t14 21l148 393h121z" />
    <glyph glyph-name="w" unicode="w" horiz-adv-x="768" 
d="M792 530l-126 -464q-20 -72 -91 -72q-75 0 -91 59l-92 332q-5 17 -8 17t-8 -17l-92 -332q-16 -59 -91 -59q-71 0 -91 72l-126 464h112l102 -392q4 -16 10 -16t10 15l97 350q14 49 77 49t77 -49l98 -350q4 -15 9 -15q7 0 11 16l101 392h112z" />
    <glyph glyph-name="x" unicode="x" horiz-adv-x="493" 
d="M517 0h-137l-134 196l-133 -196h-137l203 272l-190 258h133l124 -182l124 182h133l-189 -258z" />
    <glyph glyph-name="y" unicode="y" horiz-adv-x="542" 
d="M566 528l-316 -699h-119l81 173l-236 528h121l170 -407l180 405h119z" />
    <glyph glyph-name="z" unicode="z" horiz-adv-x="465" 
d="M463 463q0 -40 -31 -72l-275 -283q-8 -8 -8 -13t9 -5h302v-90h-383q-75 0 -75 71q0 40 36 76l272 273q8 8 8 12q0 8 -10 8h-289v90h375q31 0 50 -18t19 -49z" />
    <glyph glyph-name="braceleft" unicode="{" horiz-adv-x="316" 
d="M276 -136q-65 -2 -115 21q-77 35 -86 134q-3 32 -3 67v111q0 53 -52 56v62q52 3 52 56v111q0 35 3 67q9 99 86 134q50 23 115 21v-84q-45 3 -77 -21q-37 -27 -37 -91v-126q0 -76 -47 -94v-8q47 -18 47 -94v-126q0 -64 37 -91q32 -24 77 -21v-84z" />
    <glyph glyph-name="bar" unicode="|" horiz-adv-x="190" 
d="M130 -166h-70v906h70v-906z" />
    <glyph glyph-name="braceright" unicode="}" horiz-adv-x="316" 
d="M296 253q-52 -3 -52 -56v-111q0 -35 -3 -67q-9 -99 -86 -134q-50 -23 -115 -21v84q45 -3 77 21q37 27 37 91v126q0 76 47 94v8q-47 18 -47 94v126q0 64 -37 91q-32 24 -77 21v84q65 2 115 -21q77 -35 86 -134q3 -32 3 -67v-111q0 -53 52 -56v-62z" />
    <glyph glyph-name="asciitilde" unicode="~" horiz-adv-x="633" 
d="M573 407q-32 -48 -73.5 -79t-87.5 -31q-42 0 -79 22l-46 27q-32 19 -69 19q-29 0 -52.5 -15.5t-46.5 -50.5l-59 53q34 49 75 75.5t82 26.5q39 0 74 -20l54 -31q31 -18 67 -18q35 0 62 24q20 18 39 50z" />
    <glyph glyph-name="currency" unicode="&#xa4;" horiz-adv-x="600" 
d="M540 163l-71 -71l-64 64q-48 -29 -105 -29t-105 29l-64 -64l-71 71l64 64q-30 49 -30 105t30 105l-64 64l71 71l64 -64q48 29 105 29t105 -29l64 64l71 -71l-64 -64q30 -49 30 -105t-30 -105zM406 332q0 44 -31 75t-75 31t-75 -31t-31 -75t31 -75t75 -31t75 31t31 75z
" />
    <glyph glyph-name="brokenbar" unicode="&#xa6;" horiz-adv-x="150" 
d="M110 440h-70v300h70v-300zM110 -63h-70v300h70v-300z" />
    <glyph glyph-name="section" unicode="&#xa7;" horiz-adv-x="525" 
d="M465 240q0 -62 -41 -96q-37 -31 -99 -31l63 -54q59 -51 59 -114q0 -62 -49 -94q-37 -24 -102 -24h-185v102h160q65 0 65 34q0 18 -36 49l-184 157q-56 48 -56 117q0 72 52 110q33 24 81 28l-70 60q-46 39 -46 100q0 49 34.5 82.5t104.5 33.5h198v-102h-180q-46 0 -46 -29
q0 -19 30 -44l185 -157q62 -53 62 -128zM354 257q0 33 -21 49l-51 40q-46 2 -69 -7q-42 -17 -42 -61q0 -34 24 -54l42 -35q33 -2 66 7q51 14 51 61z" />
    <glyph glyph-name="dieresis" unicode="&#xa8;" horiz-adv-x="661" 
d="M514 769h-112v96h112v-96zM284 769h-112v96h112v-96zM621 0h-455q-57 0 -80 22q-26 25 -26 82v496q0 46 24 73t84 27h449v-105h-378q-25 0 -36 -10t-11 -34v-141h415v-105h-415v-164q0 -19 9.5 -27.5t45.5 -8.5h374v-105z" />
    <glyph glyph-name="copyright" unicode="&#xa9;" horiz-adv-x="863" 
d="M803 351q0 -113 -25 -182q-30 -81 -100 -126q-80 -51 -246 -51q-168 0 -247 51q-125 81 -125 308t125 307q78 50 247 50q166 0 246 -50q70 -44 100 -126q25 -69 25 -181zM709 351q0 174 -86 231q-65 43 -191 43q-127 0 -192 -43q-86 -57 -86 -231q0 -182 86 -242
q63 -44 192 -44q128 0 191 44q86 60 86 242zM577 162h-185q-81 0 -119 52q-34 46 -34 137q0 96 35 141q41 52 125 52h165v-80h-130q-59 0 -78 -31q-15 -30 -15 -89q0 -52 14 -74q18 -28 73 -28h149v-80z" />
    <glyph glyph-name="guillemotleft" unicode="&#xab;" horiz-adv-x="537" 
d="M477 137l-80 -60l-110 153q-21 29 -21 51q0 24 21 51l110 141l80 -60l-83 -108q-12 -16 -12 -24q0 -7 12 -24zM298 89l-80 -60l-137 191q-21 29 -21 61t21 61l137 191l80 -60l-113 -162q-12 -17 -12 -30t12 -30z" />
    <glyph glyph-name="logicalnot" unicode="&#xac;" horiz-adv-x="534" 
d="M474 132h-90v142h-324v85h414v-227z" />
    <glyph glyph-name="registered" unicode="&#xae;" horiz-adv-x="569" 
d="M509 495q0 -131 -50.5 -180.5t-179.5 -49.5t-179 62q-40 49 -40 159q0 128 45 177q48 53 181 53q119 0 166 -42q57 -51 57 -179zM449 488q0 95 -29 131q-34 43 -132 43q-96 0 -132 -36t-36 -131q0 -90 22 -122q37 -54 136 -54q87 0 125 30q46 37 46 139zM401 380h-75
l-60 69q-7 8 -7 25q0 26 22 26h22q21 0 26 4.5t5 14.5v23q0 10 -7 17t-24 7h-51q-13 0 -16.5 -3t-3.5 -18v-165h-61v199q0 17 7 25q10 12 42 12h104q36 0 52 -14q21 -19 21 -69q0 -72 -50 -72h-21z" />
    <glyph glyph-name="degree" unicode="&#xb0;" horiz-adv-x="340" 
d="M280 663q0 -45 -32.5 -77.5t-77.5 -32.5t-77.5 32.5t-32.5 77.5t32.5 77.5t77.5 32.5t77.5 -32.5t32.5 -77.5zM230 663q0 25 -17.5 42.5t-42.5 17.5t-42.5 -17.5t-17.5 -42.5t17.5 -42.5t42.5 -17.5t42.5 17.5t17.5 42.5z" />
    <glyph glyph-name="plusminus" unicode="&#xb1;" horiz-adv-x="580" 
d="M520 382h-184v-184h-91v184h-185v85h185v184h91v-184h184v-85zM520 67h-460v85h460v-85z" />
    <glyph glyph-name="mu1" unicode="&#xb5;" horiz-adv-x="608" 
d="M548 0h-113v72q-43 -78 -134 -78q-88 0 -129 71v-243h-112v708h117v-327q0 -50 33 -85t92 -35q54 0 89 34q40 39 40 83v330h117v-530z" />
    <glyph glyph-name="paragraph" unicode="&#xb6;" horiz-adv-x="727" 
d="M687 597h-69v-767h-108v767h-67v-767h-108v459h-95q-98 0 -143 61q-37 50 -37 139q0 123 65 175q45 36 134 36h428v-103zM335 392v205h-74q-49 0 -69.5 -25.5t-20.5 -76.5q0 -45 13 -67q21 -36 77 -36h74z" />
    <glyph glyph-name="middot" unicode="&#xb7;" horiz-adv-x="242" 
d="M182 250h-122v129h122v-129z" />
    <glyph glyph-name="cedilla" unicode="&#xb8;" horiz-adv-x="563" 
d="M442 609h-108v98h108v-98zM227 609h-108v98h108v-98zM537 326q0 -55 -25 -80q-20 -20 -57 -20h-308q0 -46 7 -73q16 -63 107 -63h259v-90h-294q-115 0 -162 67q-38 54 -38 193q0 87 10 129q13 59 53 93q58 50 198 50q121 0 175 -34q75 -47 75 -172zM416 347q0 45 -33 70
t-101 25q-80 0 -111 -35q-22 -25 -24 -91h243q26 0 26 31z" />
    <glyph glyph-name="onesuperior" unicode="&#xb9;" horiz-adv-x="1068" 
d="M1008 513q0 -65 -27 -90t-108 -25q-80 0 -107 25t-27 90v79q0 65 27 90t107 25q81 0 108 -25t27 -90v-79zM1008 283h-269v62h269v-62zM665 91q0 -99 -95 -99q-76 0 -109 59l-258 466q-9 17 -13 17q-10 0 -10 -20v-514h-120v613q0 95 99 95q73 0 104 -55l261 -469
q9 -17 14 -17q7 0 7 17v516h120v-609zM926 528v51q0 35 -12.5 47.5t-40.5 12.5q-27 0 -39.5 -12.5t-12.5 -47.5v-51q0 -35 12.5 -47.5t39.5 -12.5q28 0 40.5 12.5t12.5 47.5z" />
    <glyph glyph-name="guillemotright" unicode="&#xbb;" horiz-adv-x="537" 
d="M477 281q0 -32 -21 -61l-137 -191l-80 60l113 162q12 17 12 30t-12 30l-113 162l80 60l137 -191q21 -29 21 -61zM271 281q0 -22 -21 -51l-110 -153l-80 60l83 120q12 17 12 24q0 8 -12 24l-83 108l80 60l110 -141q21 -27 21 -51z" />
    <glyph glyph-name="Agrave" unicode="&#xc0;" horiz-adv-x="698" 
d="M728 0h-139l-72 177h-337l-71 -177h-139l264 629q19 45 43.5 62t71.5 17q45 0 70.5 -17.5t44.5 -61.5zM483 271l-114 285q-12 29 -20 29t-20 -29l-115 -285h269z" />
    <glyph glyph-name="Aacute" unicode="&#xc1;" horiz-adv-x="725" 
d="M685 203q0 -114 -38 -157q-40 -46 -120 -46h-378q-46 0 -70 28q-19 22 -19 65v505q0 51 24.5 76.5t70.5 25.5h494v-105h-410q-27 0 -37 -8t-10 -35v-145h333q84 0 124 -52q36 -46 36 -152zM549 207q0 55 -21 75t-69 20h-267v-145q0 -32 5 -39q9 -13 50 -13h212
q49 0 69.5 20.5t20.5 81.5z" />
    <glyph glyph-name="Acircumflex" unicode="&#xc2;" horiz-adv-x="722" 
d="M682 192q0 -102 -40 -147q-27 -30 -63 -39q-21 -6 -65 -6h-335q-40 0 -50 2q-27 5 -45 26q-24 27 -24 71v500q0 46 23 73.5t73 27.5h344q86 0 127 -42q44 -45 44 -150q0 -75 -33 -114q-28 -33 -66 -36v-4q47 -4 77 -37q33 -36 33 -125zM535 502q0 53 -23 75
q-19 18 -65 18h-216q-23 0 -31 -9t-8 -30v-150h256q53 0 72 25q15 20 15 71zM546 201q0 50 -15 71q-20 29 -71 29h-268v-144q0 -32 9 -42t42 -10h208q56 0 77 25q18 22 18 71z" />
    <glyph glyph-name="Atilde" unicode="&#xc3;" horiz-adv-x="611" 
d="M621 595h-377q-38 0 -45 -9t-7 -37v-549h-132v599q0 50 25.5 75.5t67.5 25.5h468v-105z" />
    <glyph glyph-name="Adieresis" unicode="&#xc4;" horiz-adv-x="793" 
d="M803 0h-813v105h59l236 529q16 36 36 52q28 22 76 22q45 0 70 -17.5t42 -56.5l235 -529h59v-105zM609 105l-196 454q-9 22 -16 22q-8 0 -17 -22l-196 -454h425z" />
    <glyph glyph-name="Aring" unicode="&#xc5;" horiz-adv-x="651" 
d="M621 0h-455q-57 0 -80 22q-26 25 -26 82v496q0 46 24 73t84 27h449v-105h-378q-25 0 -36 -10t-11 -34v-141h415v-105h-415v-164q0 -19 9.5 -27.5t45.5 -8.5h374v-105z" />
    <glyph glyph-name="AE" unicode="&#xc6;" horiz-adv-x="1068" 
d="M1088 0h-168l-238 267q-46 52 -46 93q0 37 36 80l220 260h160l-257 -287q-29 -32 -29 -52q0 -28 37 -66zM600 0h-132v700h132v-700zM432 360q0 -41 -46 -93l-238 -267h-168l285 295q37 38 37 66q0 20 -29 52l-257 287h160l220 -260q36 -43 36 -80z" />
    <glyph glyph-name="Ccedilla" unicode="&#xc7;" horiz-adv-x="665" 
d="M625 187q0 -120 -63 -159q-45 -28 -150 -28h-362v105h322q60 0 83 13q34 19 34 85q0 57 -25 79q-22 19 -80 19h-320v105h303q71 0 92 22q17 18 17 73q0 60 -23 79q-18 15 -61 15h-338v105h368q50 0 74 -5q44 -9 73 -38q43 -44 43 -146q0 -85 -40 -123q-25 -23 -59 -31v-4
q64 -3 92 -52q20 -35 20 -114z" />
    <glyph glyph-name="Egrave" unicode="&#xc8;" horiz-adv-x="786" 
d="M726 0h-132l4 532q0 23 -10 23q-6 0 -26 -32l-288 -465q-20 -32 -36 -45q-28 -21 -75 -21q-103 0 -103 120v588h132l-3 -522q0 -32 12 -32q6 0 19 22l282 462q27 45 55 62q25 16 62 16q107 0 107 -126v-582z" />
    <glyph glyph-name="Eacute" unicode="&#xc9;" horiz-adv-x="786" 
d="M587 859q-22 -76 -75 -110q-46 -29 -122 -29q-82 0 -129 34.5t-67 104.5h95q8 -26 28 -44q24 -21 73 -21q50 0 74 21q20 18 28 44h95zM726 0h-132l4 532q0 23 -10 23q-6 0 -26 -32l-288 -465q-20 -32 -36 -45q-28 -21 -75 -21q-103 0 -103 120v588h132l-3 -522
q0 -32 12 -32q6 0 19 22l282 462q27 45 55 62q25 16 62 16q107 0 107 -126v-582z" />
    <glyph glyph-name="Ecircumflex" unicode="&#xca;" horiz-adv-x="700" 
d="M730 0h-167l-288 269q-48 45 -48 90q0 41 38 79l265 262h163l-302 -287q-37 -35 -37 -54q0 -24 45 -64zM192 0h-132v700h132v-700z" />
    <glyph glyph-name="Edieresis" unicode="&#xcb;" horiz-adv-x="695" 
d="M725 0h-140l-221 559q-8 20 -16 20q-9 0 -17 -20l-221 -559h-140l271 642q28 66 107 66t107 -66z" />
    <glyph glyph-name="Igrave" unicode="&#xcc;" horiz-adv-x="992" 
d="M932 0h-132l4 545q0 21 -12 21q-8 0 -17 -23l-179 -467q-19 -49 -37 -66q-21 -18 -63 -18q-40 0 -60.5 17t-39.5 67l-179 467q-9 23 -17 23q-11 0 -11 -21l3 -545h-132v616q0 92 113 92q44 0 69 -16q33 -20 54 -74l181 -467q10 -26 19 -26t19 26l181 467q21 54 54 74
q25 16 69 16q113 0 113 -92v-616z" />
    <glyph glyph-name="Iacute" unicode="&#xcd;" horiz-adv-x="748" 
d="M688 0h-132v308h-364v-308h-132v700h132v-287h364v287h132v-700z" />
    <glyph glyph-name="Icircumflex" unicode="&#xce;" horiz-adv-x="798" 
d="M758 350q0 -206 -79 -284q-49 -48 -138 -65q-50 -9 -141 -9q-92 0 -142 9q-86 16 -138 66t-70 141q-10 51 -10 142q0 95 12 151q18 85 69 133.5t137 64.5q49 9 142 9q92 0 141 -9q88 -16 138 -65q79 -77 79 -284zM622 350q0 138 -44 194q-47 59 -179 59q-62 0 -95 -8
q-52 -13 -83 -51q-45 -56 -45 -194q0 -135 45 -193q30 -38 81 -51q33 -9 97 -9q132 0 179 60q44 56 44 193z" />
    <glyph glyph-name="Idieresis" unicode="&#xcf;" horiz-adv-x="743" 
d="M683 0h-132v553q0 25 -8.5 33.5t-31.5 8.5h-278q-24 0 -32.5 -9.5t-8.5 -32.5v-553h-132v605q0 45 26 70t79 25h414q54 0 79 -25t25 -70v-605z" />
    <glyph glyph-name="Eth" unicode="&#xd0;" horiz-adv-x="728" 
d="M688 474q0 -142 -61 -192q-42 -34 -107 -34h-328v-248h-132v595q0 54 25.5 79.5t77.5 25.5h333q96 0 139 -42q53 -51 53 -184zM552 475q0 70 -24 95t-83 25h-213q-22 0 -31 -9t-9 -33v-200h251q63 0 86 26t23 96z" />
    <glyph glyph-name="Ntilde" unicode="&#xd1;" 
d="M629 0h-295q-150 0 -222 81t-72 259q0 192 68 272q75 88 229 88h281v-105h-219q-70 0 -106 -10q-51 -14 -78 -55q-39 -58 -39 -188q0 -119 33 -170q44 -67 183 -67h237v-105z" />
    <glyph glyph-name="Ograve" unicode="&#xd2;" 
d="M669 595h-274v-595h-132v595h-273v105h679v-105z" />
    <glyph glyph-name="Oacute" unicode="&#xd3;" horiz-adv-x="684" 
d="M704 700l-367 -700h-143l85 155l-299 545h146l221 -424l213 424h144z" />
    <glyph glyph-name="Ocircumflex" unicode="&#xd4;" horiz-adv-x="932" 
d="M892 359q0 -143 -40 -208q-51 -83 -196 -83h-124v-68h-132v68h-124q-145 0 -196 83q-40 65 -40 208q0 141 47 208q31 45 83 62q45 14 130 14h100v57h132v-57h99q86 0 131 -14q52 -17 83 -62q47 -67 47 -208zM756 359q0 84 -19 121q-30 58 -127 58h-78v-365h59q55 0 84 9
q47 14 66 56q15 34 15 121zM400 173v365h-78q-99 0 -128 -58q-18 -35 -18 -121q0 -87 15 -121q18 -42 66 -56q29 -9 84 -9h59z" />
    <glyph glyph-name="Otilde" unicode="&#xd5;" horiz-adv-x="646" 
d="M666 0h-156l-187 262l-187 -262h-156l268 355l-260 345h156l179 -252l179 252h156l-260 -345z" />
    <glyph glyph-name="Odieresis" unicode="&#xd6;" horiz-adv-x="769" 
d="M779 0h-607q-58 0 -82 20q-30 25 -30 82v598h132v-540q0 -37 6 -44q9 -11 39 -11h314v595h132v-595h96v-105z" />
    <glyph glyph-name="multiply" unicode="&#xd7;" horiz-adv-x="716" 
d="M656 0h-132v298h-321q-82 0 -125 61q-28 39 -28 113v228h132v-204q0 -54 18 -72q21 -21 75 -21h249v297h132v-700z" />
    <glyph glyph-name="Oslash" unicode="&#xd8;" horiz-adv-x="1044" 
d="M984 89q0 -44 -22.5 -66.5t-68.5 -22.5h-742q-44 0 -67.5 22.5t-23.5 66.5v611h132v-551q0 -25 6 -33q8 -11 31 -11h227v595h132v-595h228q22 0 30 11q6 8 6 33v551h132v-611z" />
    <glyph glyph-name="Ugrave" unicode="&#xd9;" horiz-adv-x="1070" 
d="M1080 0h-929q-45 0 -68 23t-23 66v611h132v-551q0 -25 6 -33q8 -11 30 -11h228v595h132v-595h264v595h132v-595h96v-105z" />
    <glyph glyph-name="Uacute" unicode="&#xda;" horiz-adv-x="792" 
d="M752 207q0 -102 -32 -146q-44 -61 -138 -61h-372q-39 0 -62 27t-23 79v441q0 27 -8.5 37.5t-29.5 10.5h-97v105h172q47 0 71 -26t24 -75v-186h332q100 0 137 -67q26 -47 26 -139zM616 211q0 63 -28 84q-18 13 -67 13h-264v-160q0 -24 6 -32q8 -11 38 -11h213
q55 0 78.5 20t23.5 86z" />
    <glyph glyph-name="Ucircumflex" unicode="&#xdb;" horiz-adv-x="955" 
d="M895 0h-132v700h132v-700zM687 207q0 -102 -32 -146q-44 -61 -138 -61h-372q-39 0 -62 27t-23 79v594h132v-287h332q100 0 137 -67q26 -47 26 -139zM551 211q0 63 -28 84q-18 13 -67 13h-264v-160q0 -24 6 -32q8 -11 38 -11h213q55 0 78.5 20t23.5 86z" />
    <glyph glyph-name="Udieresis" unicode="&#xdc;" horiz-adv-x="727" 
d="M687 207q0 -102 -32 -146q-44 -61 -138 -61h-372q-39 0 -62 27t-23 79v594h132v-287h332q100 0 137 -67q26 -47 26 -139zM551 211q0 63 -28 84q-18 13 -67 13h-264v-160q0 -24 6 -32q8 -11 38 -11h213q55 0 78.5 20t23.5 86z" />
    <glyph glyph-name="Yacute" unicode="&#xdd;" horiz-adv-x="666" 
d="M626 356q0 -112 -17 -176q-21 -75 -71 -118q-72 -62 -198 -62h-300v105h245q88 0 138 34q38 26 53 66q13 36 14 98h-426v105h426q-6 94 -52 139q-49 48 -140 48h-248v105h290q136 0 209 -72q77 -76 77 -272z" />
    <glyph glyph-name="Thorn" unicode="&#xde;" horiz-adv-x="1038" 
d="M998 350q0 -94 -12 -150q-18 -86 -68.5 -134.5t-136.5 -64.5q-50 -9 -142 -9t-142 9q-86 16 -137 65q-41 40 -63 111q-19 63 -17 128h-88v-305h-132v700h132v-290h88q-1 63 19 121q21 65 61 103q51 49 137 65q50 9 142 9q93 0 142 -9q85 -16 137 -65q47 -44 65 -120
q15 -62 15 -164zM862 350q0 138 -45 194q-31 38 -83 51q-33 8 -95 8q-61 0 -95 -8q-54 -13 -84 -51q-44 -56 -44 -194q0 -135 44 -193q29 -37 78 -51q35 -9 101 -9q63 0 97 9q51 13 81 51q45 58 45 193z" />
    <glyph glyph-name="germandbls" unicode="&#xdf;" horiz-adv-x="739" 
d="M679 0h-132v549q0 22 -13 34t-36 12h-220q-46 0 -69 -24t-23 -96q0 -68 14 -91q21 -35 66 -35h138q60 0 60 -43v-16q0 -32 -30 -61l-234 -229h-170l264 240v4h-91q-82 0 -122 69q-31 53 -31 166q0 106 33 157q41 64 148 64h343q47 0 76 -27t29 -83v-590z" />
    <glyph glyph-name="agrave" unicode="&#xe0;" horiz-adv-x="555" 
d="M515 89q0 -47 -21 -68t-73 -21h-253q-66 0 -96 26q-46 40 -46 144q0 90 45 129q35 31 97 31h230v37q0 31 -15 50q-19 23 -57 23h-261v90h301q149 0 149 -166v-275zM398 118v122h-195q-29 0 -42.5 -17.5t-13.5 -57.5q0 -42 15.5 -58.5t38.5 -16.5h163q19 0 26.5 6t7.5 22z
" />
    <glyph glyph-name="aacute" unicode="&#xe1;" horiz-adv-x="574" 
d="M548 260q0 -129 -37 -186q-34 -52 -100 -70q-39 -10 -120 -10t-121 11q-70 18 -103 74q-27 46 -27 138v276q0 77 29 126q48 81 163 81h285v-90h-231q-73 0 -102 -27t-27 -75h178q126 0 178 -78q35 -53 35 -170zM427 252q0 92 -27 127q-30 39 -91 39h-152v-212
q0 -53 27 -84q33 -38 105 -38q68 0 103 33t35 135z" />
    <glyph glyph-name="acircumflex" unicode="&#xe2;" horiz-adv-x="551" 
d="M525 150q0 -81 -34.5 -115.5t-108.5 -34.5h-252q-49 0 -69.5 18.5t-20.5 59.5v369q0 41 24 62t71 21h240q87 0 120 -38q28 -32 28 -98q0 -61 -23.5 -87.5t-63.5 -31.5v-2q42 -5 65.5 -34.5t23.5 -88.5zM402 379q0 34 -15.5 47.5t-46.5 13.5h-154q-15 0 -22 -6t-7 -20v-95
h181q33 0 48.5 15.5t15.5 44.5zM404 162q0 35 -15 51t-49 16h-183v-107q0 -15 6.5 -23.5t24.5 -8.5h146q38 0 54 16t16 56z" />
    <glyph glyph-name="atilde" unicode="&#xe3;" horiz-adv-x="463" 
d="M483 440h-294q-14 0 -23 -9t-9 -33v-398h-117v443q0 42 11 59q18 28 63 28h369v-90z" />
    <glyph glyph-name="adieresis" unicode="&#xe4;" horiz-adv-x="577" 
d="M587 0h-597v90h48l165 394q22 52 86 52q63 0 85 -52l166 -394h47v-90zM426 90l-127 329q-5 14 -10 14q-6 0 -11 -14l-126 -329h274z" />
    <glyph glyph-name="aring" unicode="&#xe5;" horiz-adv-x="563" 
d="M537 326q0 -55 -25 -80q-20 -20 -57 -20h-308q0 -46 7 -73q16 -63 107 -63h259v-90h-294q-115 0 -162 67q-38 54 -38 193q0 87 10 129q13 59 53 93q58 50 198 50q121 0 175 -34q75 -47 75 -172zM416 347q0 45 -33 70t-101 25q-80 0 -111 -35q-22 -25 -24 -91h243
q26 0 26 31z" />
    <glyph glyph-name="ae" unicode="&#xe6;" horiz-adv-x="805" 
d="M825 0h-138l-173 210q-31 38 -31 60q0 26 37 72l150 188h136l-181 -217q-22 -26 -22 -39q0 -15 22 -41zM459 0h-113v530h113v-530zM322 270q0 -22 -31 -60l-173 -210h-138l200 233q22 26 22 41q0 13 -22 39l-182 217h136l151 -188q37 -46 37 -72z" />
    <glyph glyph-name="ccedilla" unicode="&#xe7;" horiz-adv-x="530" 
d="M500 148q0 -80 -41 -117q-34 -31 -106 -31h-313v90h266q49 0 63 26q10 18 10 46q0 37 -22 53q-18 13 -50 13h-252v90h256q33 0 49 15t16 46q0 32 -17.5 46.5t-50.5 14.5h-258v90h302q76 0 110.5 -33.5t34.5 -101.5q0 -60 -23 -88t-61 -32v-3q36 -4 60 -31q27 -31 27 -93z
" />
    <glyph glyph-name="egrave" unicode="&#xe8;" horiz-adv-x="599" 
d="M559 0h-117l4 377q0 14 -6 14q-4 0 -14 -14l-233 -341q-29 -42 -76 -42q-77 0 -77 75v461h117l-5 -377q0 -14 8 -14q4 0 14 14l236 347q24 36 72 36q77 0 77 -81v-455z" />
    <glyph glyph-name="eacute" unicode="&#xe9;" horiz-adv-x="599" 
d="M486 693q-20 -68 -57 -101q-44 -39 -128 -39t-128 39q-37 33 -57 101h91q8 -26 25 -43q24 -24 69 -24t69 24q17 17 25 43h91zM559 0h-117l4 377q0 14 -6 14q-4 0 -14 -14l-233 -341q-29 -42 -76 -42q-77 0 -77 75v461h117l-5 -377q0 -14 8 -14q4 0 14 14l236 347
q24 36 72 36q77 0 77 -81v-455z" />
    <glyph glyph-name="ecircumflex" unicode="&#xea;" horiz-adv-x="514" 
d="M544 0h-141l-193 211q-30 33 -30 62q0 28 37 69l169 188h139l-201 -214q-25 -27 -25 -43q0 -17 19 -37zM157 0h-117v530h117v-530z" />
    <glyph glyph-name="edieresis" unicode="&#xeb;" horiz-adv-x="566" 
d="M576 0h-120l-163 409q-6 15 -10 15t-10 -15l-163 -409h-120l215 492q19 44 78 44t78 -44z" />
    <glyph glyph-name="igrave" unicode="&#xec;" horiz-adv-x="740" 
d="M700 0h-117l5 384q0 10 -6 10q-3 0 -9 -12l-135 -344q-17 -44 -68 -44t-68 44l-136 344q-4 11 -8 11q-6 0 -6 -9l5 -384h-117v460q0 37 28 58q24 18 63 18q67 0 90 -57l134 -337q8 -21 15 -21t15 21l134 337q23 57 90 57q39 0 64 -18q27 -21 27 -58v-460z" />
    <glyph glyph-name="iacute" unicode="&#xed;" horiz-adv-x="567" 
d="M527 0h-117v228h-253v-228h-117v530h117v-212h253v212h117v-530z" />
    <glyph glyph-name="icircumflex" unicode="&#xee;" horiz-adv-x="616" 
d="M590 267q0 -152 -68 -216q-61 -57 -214 -57q-152 0 -214 57q-68 62 -68 212q0 154 68 217q60 56 214 56t214 -56q68 -63 68 -213zM469 264q0 102 -34 140q-38 42 -127 42q-92 0 -128 -42q-33 -38 -33 -140q0 -97 34 -136q38 -44 127 -44q87 0 126 44q35 39 35 136z" />
    <glyph glyph-name="idieresis" unicode="&#xef;" horiz-adv-x="568" 
d="M528 0h-117v409q0 19 -7 25t-21 6h-198q-28 0 -28 -31v-409h-117v442q0 41 18 62q23 26 72 26h308q51 0 73 -26q17 -20 17 -62v-442z" />
    <glyph glyph-name="eth" unicode="&#xf0;" horiz-adv-x="559" 
d="M533 276q0 -140 -42 -200q-53 -76 -186 -76h-148v-170h-117v618q0 42 30 65q22 17 66 17h185q100 0 156 -58t56 -196zM412 266q0 82 -14 114q-26 60 -102 60h-115q-7 0 -15.5 -7.5t-8.5 -17.5v-325h133q68 0 100 49q22 34 22 127z" />
    <glyph glyph-name="ntilde" unicode="&#xf1;" horiz-adv-x="513" 
d="M487 0h-255q-103 0 -158 65q-48 57 -48 193q0 154 60 215q56 57 162 57h227v-90h-189q-106 0 -130 -84q-9 -31 -9 -100q0 -76 17 -110q28 -56 133 -56h190v-90z" />
    <glyph glyph-name="ograve" unicode="&#xf2;" horiz-adv-x="515" 
d="M515 440h-199v-440h-117v440h-199v90h515v-90z" />
    <glyph glyph-name="oacute" unicode="&#xf3;" horiz-adv-x="571" 
d="M581 530l-317 -700h-119l81 172l-236 528h124l169 -402l179 402h119z" />
    <glyph glyph-name="ocircumflex" unicode="&#xf4;" horiz-adv-x="805" 
d="M779 259q0 -126 -44 -187q-52 -72 -170 -72h-104v-170h-117v170h-104q-118 0 -170 72q-44 61 -44 187q0 127 37 188q51 83 173 83h108v170h117v-170h108q121 0 173 -83q37 -59 37 -188zM658 258q0 105 -25 140q-30 42 -112 42h-60v-350h58q90 0 118 47q21 36 21 121z
M344 90v350h-60q-81 0 -112 -42q-25 -34 -25 -140q0 -85 21 -121q28 -47 118 -47h58z" />
    <glyph glyph-name="otilde" unicode="&#xf5;" horiz-adv-x="522" 
d="M532 0h-138l-133 196l-133 -196h-138l204 272l-191 258h134l124 -182l124 182h134l-190 -258z" />
    <glyph glyph-name="odieresis" unicode="&#xf6;" horiz-adv-x="591" 
d="M601 0h-481q-38 0 -59 18t-21 56v456h117v-402q0 -22 8 -30t32 -8h212v440h117v-440h75v-90z" />
    <glyph glyph-name="divide" unicode="&#xf7;" horiz-adv-x="555" 
d="M515 0h-117v222h-234q-76 0 -109 44q-25 33 -25 106v158h117v-133q0 -44 10 -59q17 -26 64 -26h177v218h117v-530z" />
    <glyph glyph-name="oslash" unicode="&#xf8;" horiz-adv-x="819" 
d="M779 80q0 -42 -19 -60q-22 -20 -74 -20h-553q-54 0 -73.5 19.5t-19.5 60.5v450h117v-405q0 -19 6 -27t22 -8h166v440h117v-440h167q15 0 21 8t6 27v405h117v-450z" />
    <glyph glyph-name="ugrave" unicode="&#xf9;" horiz-adv-x="855" 
d="M855 0h-722q-55 0 -74 19t-19 61v450h117v-405q0 -20 4 -26q6 -9 23 -9h167v440h117v-440h194v440h117v-440h76v-90z" />
    <glyph glyph-name="uacute" unicode="&#xfa;" horiz-adv-x="614" 
d="M588 159q0 -95 -40 -131q-31 -28 -102 -28h-269q-39 0 -59 19t-20 62v325q0 18 -5.5 26t-24.5 8h-68v90h148q28 0 47.5 -17t19.5 -58v-126h239q64 0 99 -40t35 -130zM467 166q0 41 -14.5 57t-47.5 16h-190v-112q0 -22 7.5 -29.5t25.5 -7.5h153q37 0 51.5 16.5t14.5 59.5z
" />
    <glyph glyph-name="ucircumflex" unicode="&#xfb;" horiz-adv-x="750" 
d="M710 0h-117v530h117v-530zM530 159q0 -95 -40 -131q-31 -28 -102 -28h-269q-39 0 -59 19t-20 62v449h117v-201h239q64 0 99 -40t35 -130zM409 166q0 41 -14.5 57t-47.5 16h-190v-112q0 -22 7.5 -29.5t25.5 -7.5h153q37 0 51.5 16.5t14.5 59.5z" />
    <glyph glyph-name="udieresis" unicode="&#xfc;" horiz-adv-x="556" 
d="M530 159q0 -95 -40 -131q-31 -28 -102 -28h-269q-39 0 -59 19t-20 62v449h117v-201h239q64 0 99 -40t35 -130zM409 166q0 41 -14.5 57t-47.5 16h-190v-112q0 -22 7.5 -29.5t25.5 -7.5h153q37 0 51.5 16.5t14.5 59.5z" />
    <glyph glyph-name="yacute" unicode="&#xfd;" horiz-adv-x="522" 
d="M496 275q0 -148 -47 -209q-51 -66 -184 -66h-239v90h208q97 0 126 56q16 31 16 86h-336v90h335q2 49 -24 80q-32 38 -115 38h-203v90h262q100 0 150.5 -57.5t50.5 -197.5z" />
    <glyph glyph-name="thorn" unicode="&#xfe;" horiz-adv-x="817" 
d="M791 270q0 -155 -66 -219q-59 -57 -213 -57q-149 0 -212 57q-70 63 -65 177h-78v-228h-117v530h117v-212h78q6 110 66.5 164t210.5 54q155 0 213 -55q66 -62 66 -211zM670 267q0 99 -29 136q-34 43 -129 43t-128 -43q-28 -37 -28 -144q0 -92 29 -130q34 -45 127 -45
t128 45q30 38 30 138z" />
    <glyph glyph-name="ydieresis" unicode="&#xff;" horiz-adv-x="568" 
d="M528 0h-117v399q0 25 -8 33t-34 8h-153q-30 0 -44 -16.5t-14 -57.5q0 -44 11 -60q13 -19 51 -19h71q51 0 51 -45q0 -31 -20 -54l-165 -188h-137l174 183q7 7 7 12q0 6 -10 6h-28q-62 0 -96 45q-30 40 -30 126q0 85 39 124q34 34 91 34h270q45 0 66 -19q25 -23 25 -78
v-433z" />
    <glyph glyph-name="mu" unicode="&#x3bc;" horiz-adv-x="608" 
d="M548 0h-113v72q-43 -78 -134 -78q-88 0 -129 71v-243h-112v708h117v-327q0 -50 33 -85t92 -35q54 0 89 34q40 39 40 83v330h117v-530z" />
    <glyph glyph-name="afii10023" unicode="&#x401;" horiz-adv-x="661" 
d="M514 769h-112v96h112v-96zM284 769h-112v96h112v-96zM621 0h-455q-57 0 -80 22q-26 25 -26 82v496q0 46 24 73t84 27h449v-105h-378q-25 0 -36 -10t-11 -34v-141h415v-105h-415v-164q0 -19 9.5 -27.5t45.5 -8.5h374v-105z" />
    <glyph glyph-name="afii10051" unicode="&#x402;" horiz-adv-x="827" 
d="M787 211q0 -120 -35 -165.5t-114 -45.5h-178v105h106q54 0 71 21q14 17 14 78q0 66 -17.5 86.5t-55.5 20.5h-285v-311h-132v595h-171v105h597v-105h-294v-190h339q85 0 123 -53q32 -44 32 -141z" />
    <glyph glyph-name="afii10052" unicode="&#x403;" horiz-adv-x="561" 
d="M380 872l-162 -132l-59 74l161 133zM561 595h-377q-38 0 -45 -9t-7 -37v-549h-132v599q0 50 25.5 75.5t67.5 25.5h468v-105z" />
    <glyph glyph-name="afii10053" unicode="&#x404;" horiz-adv-x="665" 
d="M625 0h-300q-124 0 -197 62q-51 43 -71 117q-17 63 -17 177q0 92 11 144q17 82 66 129q73 71 208 71h291v-105h-249q-92 0 -140 -46q-23 -22 -37 -62.5t-14 -80.5h426v-98h-426q-5 -122 67 -171q47 -32 138 -32h244v-105z" />
    <glyph glyph-name="afii10054" unicode="&#x405;" 
d="M629 180q0 -85 -35 -130q-39 -50 -125 -50h-430v105h388q66 0 66 76q0 58 -68 79l-276 87q-54 17 -83 52q-36 43 -36 132q0 88 45 130q42 39 115 39h403v-105h-358q-38 0 -55.5 -16.5t-17.5 -53.5q0 -58 65 -79l256 -81q71 -23 100 -50q46 -44 46 -135z" />
    <glyph glyph-name="afii10055" unicode="&#x406;" horiz-adv-x="252" 
d="M192 0h-132v700h132v-700z" />
    <glyph glyph-name="afii10056" unicode="&#x407;" horiz-adv-x="444" 
d="M384 760h-116v110h116v-110zM176 760h-116v110h116v-110zM288 0h-132v700h132v-700z" />
    <glyph glyph-name="afii10057" unicode="&#x408;" horiz-adv-x="445" 
d="M385 245q0 -119 -59 -179q-65 -66 -167 -66h-179v105h115q73 0 113 35q45 39 45 140v420h132v-455z" />
    <glyph glyph-name="afii10058" unicode="&#x409;" horiz-adv-x="1183" 
d="M1143 204q0 -100 -32 -143q-45 -61 -138 -61h-372q-38 0 -61.5 27t-23.5 79v473q0 18 -14 18q-8 0 -16 -11l-347 -586h-149l410 653q35 55 121 55q127 0 127 -92v-210h335q97 0 134 -60q26 -42 26 -142zM1007 208q0 71 -27 90q-16 11 -60 11h-272v-161q0 -23 6.5 -33
t37.5 -10h213q56 0 79 19.5t23 83.5z" />
    <glyph glyph-name="afii10059" unicode="&#x40a;" horiz-adv-x="1207" 
d="M1167 205q0 -100 -32 -144q-44 -61 -138 -61h-367q-37 0 -60.5 27t-23.5 79v202h-354v-308h-132v700h132v-287h354v287h132v-287h329q97 0 134 -68q26 -48 26 -140zM1031 208q0 71 -27 90q-14 10 -61 10h-265v-160q0 -22 6.5 -32.5t37.5 -10.5h206q56 0 79.5 19.5
t23.5 83.5z" />
    <glyph glyph-name="afii10060" unicode="&#x40b;" horiz-adv-x="814" 
d="M774 0h-132v247q0 34 -18 49t-54 15h-277v-311h-132v595h-171v105h597v-105h-294v-190h336q67 0 101 -27q44 -35 44 -112v-266z" />
    <glyph glyph-name="afii10061" unicode="&#x40c;" horiz-adv-x="670" 
d="M400 872l-162 -132l-59 74l161 133zM670 0h-167l-288 269q-48 45 -48 90q0 41 38 79l265 262h163l-302 -287q-37 -35 -37 -54q0 -24 45 -64zM132 0h-132v700h132v-700z" />
    <glyph glyph-name="afii10062" unicode="&#x40e;" horiz-adv-x="724" 
d="M559 869q-19 -70 -68 -104.5t-129 -34.5q-83 0 -130 34.5t-67 104.5h95q7 -26 29 -44q25 -21 73 -21q49 0 73 21q20 18 28 44h96zM724 700l-367 -700h-143l85 155l-299 545h146l221 -424l213 424h144z" />
    <glyph glyph-name="afii10145" unicode="&#x40f;" horiz-adv-x="744" 
d="M684 84q0 -44 -22 -64t-67 -20h-157v-169h-132v169h-157q-45 0 -67 20t-22 64v616h132v-558q0 -18 5 -26q6 -11 27 -11h296q20 0 27 11q5 7 5 26v558h132v-616z" />
    <glyph glyph-name="afii10017" unicode="&#x410;" horiz-adv-x="698" 
d="M728 0h-139l-72 177h-337l-71 -177h-139l264 629q19 45 43.5 62t71.5 17q45 0 70.5 -17.5t44.5 -61.5zM483 271l-114 285q-12 29 -20 29t-20 -29l-115 -285h269z" />
    <glyph glyph-name="afii10018" unicode="&#x411;" horiz-adv-x="725" 
d="M685 203q0 -114 -38 -157q-40 -46 -120 -46h-378q-46 0 -70 28q-19 22 -19 65v505q0 51 24.5 76.5t70.5 25.5h494v-105h-410q-27 0 -37 -8t-10 -35v-145h333q84 0 124 -52q36 -46 36 -152zM549 207q0 55 -21 75t-69 20h-267v-145q0 -32 5 -39q9 -13 50 -13h212
q49 0 69.5 20.5t20.5 81.5z" />
    <glyph glyph-name="afii10019" unicode="&#x412;" horiz-adv-x="722" 
d="M682 192q0 -102 -40 -147q-27 -30 -63 -39q-21 -6 -65 -6h-335q-40 0 -50 2q-27 5 -45 26q-24 27 -24 71v500q0 46 23 73.5t73 27.5h344q86 0 127 -42q44 -45 44 -150q0 -75 -33 -114q-28 -33 -66 -36v-4q47 -4 77 -37q33 -36 33 -125zM535 502q0 53 -23 75
q-19 18 -65 18h-216q-23 0 -31 -9t-8 -30v-150h256q53 0 72 25q15 20 15 71zM546 201q0 50 -15 71q-20 29 -71 29h-268v-144q0 -32 9 -42t42 -10h208q56 0 77 25q18 22 18 71z" />
    <glyph glyph-name="afii10020" unicode="&#x413;" horiz-adv-x="611" 
d="M621 595h-377q-38 0 -45 -9t-7 -37v-549h-132v599q0 50 25.5 75.5t67.5 25.5h468v-105z" />
    <glyph glyph-name="afii10021" unicode="&#x414;" horiz-adv-x="793" 
d="M803 0h-813v105h59l236 529q16 36 36 52q28 22 76 22q45 0 70 -17.5t42 -56.5l235 -529h59v-105zM609 105l-196 454q-9 22 -16 22q-8 0 -17 -22l-196 -454h425z" />
    <glyph glyph-name="afii10022" unicode="&#x415;" horiz-adv-x="651" 
d="M621 0h-455q-57 0 -80 22q-26 25 -26 82v496q0 46 24 73t84 27h449v-105h-378q-25 0 -36 -10t-11 -34v-141h415v-105h-415v-164q0 -19 9.5 -27.5t45.5 -8.5h374v-105z" />
    <glyph glyph-name="afii10024" unicode="&#x416;" horiz-adv-x="1068" 
d="M1088 0h-168l-238 267q-46 52 -46 93q0 37 36 80l220 260h160l-257 -287q-29 -32 -29 -52q0 -28 37 -66zM600 0h-132v700h132v-700zM432 360q0 -41 -46 -93l-238 -267h-168l285 295q37 38 37 66q0 20 -29 52l-257 287h160l220 -260q36 -43 36 -80z" />
    <glyph glyph-name="afii10025" unicode="&#x417;" horiz-adv-x="665" 
d="M625 187q0 -120 -63 -159q-45 -28 -150 -28h-362v105h322q60 0 83 13q34 19 34 85q0 57 -25 79q-22 19 -80 19h-320v105h303q71 0 92 22q17 18 17 73q0 60 -23 79q-18 15 -61 15h-338v105h368q50 0 74 -5q44 -9 73 -38q43 -44 43 -146q0 -85 -40 -123q-25 -23 -59 -31v-4
q64 -3 92 -52q20 -35 20 -114z" />
    <glyph glyph-name="afii10026" unicode="&#x418;" horiz-adv-x="786" 
d="M726 0h-132l4 532q0 23 -10 23q-6 0 -26 -32l-288 -465q-20 -32 -36 -45q-28 -21 -75 -21q-103 0 -103 120v588h132l-3 -522q0 -32 12 -32q6 0 19 22l282 462q27 45 55 62q25 16 62 16q107 0 107 -126v-582z" />
    <glyph glyph-name="afii10027" unicode="&#x419;" horiz-adv-x="786" 
d="M587 859q-22 -76 -75 -110q-46 -29 -122 -29q-82 0 -129 34.5t-67 104.5h95q8 -26 28 -44q24 -21 73 -21q50 0 74 21q20 18 28 44h95zM726 0h-132l4 532q0 23 -10 23q-6 0 -26 -32l-288 -465q-20 -32 -36 -45q-28 -21 -75 -21q-103 0 -103 120v588h132l-3 -522
q0 -32 12 -32q6 0 19 22l282 462q27 45 55 62q25 16 62 16q107 0 107 -126v-582z" />
    <glyph glyph-name="afii10028" unicode="&#x41a;" horiz-adv-x="700" 
d="M730 0h-167l-288 269q-48 45 -48 90q0 41 38 79l265 262h163l-302 -287q-37 -35 -37 -54q0 -24 45 -64zM192 0h-132v700h132v-700z" />
    <glyph glyph-name="afii10029" unicode="&#x41b;" horiz-adv-x="695" 
d="M725 0h-140l-221 559q-8 20 -16 20q-9 0 -17 -20l-221 -559h-140l271 642q28 66 107 66t107 -66z" />
    <glyph glyph-name="afii10030" unicode="&#x41c;" horiz-adv-x="992" 
d="M932 0h-132l4 545q0 21 -12 21q-8 0 -17 -23l-179 -467q-19 -49 -37 -66q-21 -18 -63 -18q-40 0 -60.5 17t-39.5 67l-179 467q-9 23 -17 23q-11 0 -11 -21l3 -545h-132v616q0 92 113 92q44 0 69 -16q33 -20 54 -74l181 -467q10 -26 19 -26t19 26l181 467q21 54 54 74
q25 16 69 16q113 0 113 -92v-616z" />
    <glyph glyph-name="afii10031" unicode="&#x41d;" horiz-adv-x="748" 
d="M688 0h-132v308h-364v-308h-132v700h132v-287h364v287h132v-700z" />
    <glyph glyph-name="afii10032" unicode="&#x41e;" horiz-adv-x="798" 
d="M758 350q0 -206 -79 -284q-49 -48 -138 -65q-50 -9 -141 -9q-92 0 -142 9q-86 16 -138 66t-70 141q-10 51 -10 142q0 95 12 151q18 85 69 133.5t137 64.5q49 9 142 9q92 0 141 -9q88 -16 138 -65q79 -77 79 -284zM622 350q0 138 -44 194q-47 59 -179 59q-62 0 -95 -8
q-52 -13 -83 -51q-45 -56 -45 -194q0 -135 45 -193q30 -38 81 -51q33 -9 97 -9q132 0 179 60q44 56 44 193z" />
    <glyph glyph-name="afii10033" unicode="&#x41f;" horiz-adv-x="743" 
d="M683 0h-132v553q0 25 -8.5 33.5t-31.5 8.5h-278q-24 0 -32.5 -9.5t-8.5 -32.5v-553h-132v605q0 45 26 70t79 25h414q54 0 79 -25t25 -70v-605z" />
    <glyph glyph-name="afii10034" unicode="&#x420;" horiz-adv-x="728" 
d="M688 474q0 -142 -61 -192q-42 -34 -107 -34h-328v-248h-132v595q0 54 25.5 79.5t77.5 25.5h333q96 0 139 -42q53 -51 53 -184zM552 475q0 70 -24 95t-83 25h-213q-22 0 -31 -9t-9 -33v-200h251q63 0 86 26t23 96z" />
    <glyph glyph-name="afii10035" unicode="&#x421;" 
d="M629 0h-295q-150 0 -222 81t-72 259q0 192 68 272q75 88 229 88h281v-105h-219q-70 0 -106 -10q-51 -14 -78 -55q-39 -58 -39 -188q0 -119 33 -170q44 -67 183 -67h237v-105z" />
    <glyph glyph-name="afii10036" unicode="&#x422;" 
d="M669 595h-274v-595h-132v595h-273v105h679v-105z" />
    <glyph glyph-name="afii10037" unicode="&#x423;" horiz-adv-x="684" 
d="M704 700l-367 -700h-143l85 155l-299 545h146l221 -424l213 424h144z" />
    <glyph glyph-name="afii10038" unicode="&#x424;" horiz-adv-x="932" 
d="M892 359q0 -143 -40 -208q-51 -83 -196 -83h-124v-68h-132v68h-124q-145 0 -196 83q-40 65 -40 208q0 141 47 208q31 45 83 62q45 14 130 14h100v57h132v-57h99q86 0 131 -14q52 -17 83 -62q47 -67 47 -208zM756 359q0 84 -19 121q-30 58 -127 58h-78v-365h59q55 0 84 9
q47 14 66 56q15 34 15 121zM400 173v365h-78q-99 0 -128 -58q-18 -35 -18 -121q0 -87 15 -121q18 -42 66 -56q29 -9 84 -9h59z" />
    <glyph glyph-name="afii10039" unicode="&#x425;" horiz-adv-x="646" 
d="M666 0h-156l-187 262l-187 -262h-156l268 355l-260 345h156l179 -252l179 252h156l-260 -345z" />
    <glyph glyph-name="afii10040" unicode="&#x426;" horiz-adv-x="769" 
d="M779 0h-607q-58 0 -82 20q-30 25 -30 82v598h132v-540q0 -37 6 -44q9 -11 39 -11h314v595h132v-595h96v-105z" />
    <glyph glyph-name="afii10041" unicode="&#x427;" horiz-adv-x="716" 
d="M656 0h-132v298h-321q-82 0 -125 61q-28 39 -28 113v228h132v-204q0 -54 18 -72q21 -21 75 -21h249v297h132v-700z" />
    <glyph glyph-name="afii10042" unicode="&#x428;" horiz-adv-x="1044" 
d="M984 89q0 -44 -22.5 -66.5t-68.5 -22.5h-742q-44 0 -67.5 22.5t-23.5 66.5v611h132v-551q0 -25 6 -33q8 -11 31 -11h227v595h132v-595h228q22 0 30 11q6 8 6 33v551h132v-611z" />
    <glyph glyph-name="afii10043" unicode="&#x429;" horiz-adv-x="1070" 
d="M1080 0h-929q-45 0 -68 23t-23 66v611h132v-551q0 -25 6 -33q8 -11 30 -11h228v595h132v-595h264v595h132v-595h96v-105z" />
    <glyph glyph-name="afii10044" unicode="&#x42a;" horiz-adv-x="792" 
d="M752 207q0 -102 -32 -146q-44 -61 -138 -61h-372q-39 0 -62 27t-23 79v441q0 27 -8.5 37.5t-29.5 10.5h-97v105h172q47 0 71 -26t24 -75v-186h332q100 0 137 -67q26 -47 26 -139zM616 211q0 63 -28 84q-18 13 -67 13h-264v-160q0 -24 6 -32q8 -11 38 -11h213
q55 0 78.5 20t23.5 86z" />
    <glyph glyph-name="afii10045" unicode="&#x42b;" horiz-adv-x="955" 
d="M895 0h-132v700h132v-700zM687 207q0 -102 -32 -146q-44 -61 -138 -61h-372q-39 0 -62 27t-23 79v594h132v-287h332q100 0 137 -67q26 -47 26 -139zM551 211q0 63 -28 84q-18 13 -67 13h-264v-160q0 -24 6 -32q8 -11 38 -11h213q55 0 78.5 20t23.5 86z" />
    <glyph glyph-name="afii10046" unicode="&#x42c;" horiz-adv-x="727" 
d="M687 207q0 -102 -32 -146q-44 -61 -138 -61h-372q-39 0 -62 27t-23 79v594h132v-287h332q100 0 137 -67q26 -47 26 -139zM551 211q0 63 -28 84q-18 13 -67 13h-264v-160q0 -24 6 -32q8 -11 38 -11h213q55 0 78.5 20t23.5 86z" />
    <glyph glyph-name="afii10047" unicode="&#x42d;" horiz-adv-x="666" 
d="M626 356q0 -112 -17 -176q-21 -75 -71 -118q-72 -62 -198 -62h-300v105h245q88 0 138 34q38 26 53 66q13 36 14 98h-426v105h426q-6 94 -52 139q-49 48 -140 48h-248v105h290q136 0 209 -72q77 -76 77 -272z" />
    <glyph glyph-name="afii10048" unicode="&#x42e;" horiz-adv-x="1038" 
d="M998 350q0 -94 -12 -150q-18 -86 -68.5 -134.5t-136.5 -64.5q-50 -9 -142 -9t-142 9q-86 16 -137 65q-41 40 -63 111q-19 63 -17 128h-88v-305h-132v700h132v-290h88q-1 63 19 121q21 65 61 103q51 49 137 65q50 9 142 9q93 0 142 -9q85 -16 137 -65q47 -44 65 -120
q15 -62 15 -164zM862 350q0 138 -45 194q-31 38 -83 51q-33 8 -95 8q-61 0 -95 -8q-54 -13 -84 -51q-44 -56 -44 -194q0 -135 44 -193q29 -37 78 -51q35 -9 101 -9q63 0 97 9q51 13 81 51q45 58 45 193z" />
    <glyph glyph-name="afii10049" unicode="&#x42f;" horiz-adv-x="739" 
d="M679 0h-132v549q0 22 -13 34t-36 12h-220q-46 0 -69 -24t-23 -96q0 -68 14 -91q21 -35 66 -35h138q60 0 60 -43v-16q0 -32 -30 -61l-234 -229h-170l264 240v4h-91q-82 0 -122 69q-31 53 -31 166q0 106 33 157q41 64 148 64h343q47 0 76 -27t29 -83v-590z" />
    <glyph glyph-name="afii10065" unicode="&#x430;" horiz-adv-x="555" 
d="M515 89q0 -47 -21 -68t-73 -21h-253q-66 0 -96 26q-46 40 -46 144q0 90 45 129q35 31 97 31h230v37q0 31 -15 50q-19 23 -57 23h-261v90h301q149 0 149 -166v-275zM398 118v122h-195q-29 0 -42.5 -17.5t-13.5 -57.5q0 -42 15.5 -58.5t38.5 -16.5h163q19 0 26.5 6t7.5 22z
" />
    <glyph glyph-name="afii10066" unicode="&#x431;" horiz-adv-x="574" 
d="M548 260q0 -129 -37 -186q-34 -52 -100 -70q-39 -10 -120 -10t-121 11q-70 18 -103 74q-27 46 -27 138v276q0 77 29 126q48 81 163 81h285v-90h-231q-73 0 -102 -27t-27 -75h178q126 0 178 -78q35 -53 35 -170zM427 252q0 92 -27 127q-30 39 -91 39h-152v-212
q0 -53 27 -84q33 -38 105 -38q68 0 103 33t35 135z" />
    <glyph glyph-name="afii10067" unicode="&#x432;" horiz-adv-x="551" 
d="M525 150q0 -81 -34.5 -115.5t-108.5 -34.5h-252q-49 0 -69.5 18.5t-20.5 59.5v369q0 41 24 62t71 21h240q87 0 120 -38q28 -32 28 -98q0 -61 -23.5 -87.5t-63.5 -31.5v-2q42 -5 65.5 -34.5t23.5 -88.5zM402 379q0 34 -15.5 47.5t-46.5 13.5h-154q-15 0 -22 -6t-7 -20v-95
h181q33 0 48.5 15.5t15.5 44.5zM404 162q0 35 -15 51t-49 16h-183v-107q0 -15 6.5 -23.5t24.5 -8.5h146q38 0 54 16t16 56z" />
    <glyph glyph-name="afii10068" unicode="&#x433;" horiz-adv-x="463" 
d="M483 440h-294q-14 0 -23 -9t-9 -33v-398h-117v443q0 42 11 59q18 28 63 28h369v-90z" />
    <glyph glyph-name="afii10069" unicode="&#x434;" horiz-adv-x="577" 
d="M587 0h-597v90h48l165 394q22 52 86 52q63 0 85 -52l166 -394h47v-90zM426 90l-127 329q-5 14 -10 14q-6 0 -11 -14l-126 -329h274z" />
    <glyph glyph-name="afii10070" unicode="&#x435;" horiz-adv-x="563" 
d="M537 326q0 -55 -25 -80q-20 -20 -57 -20h-308q0 -46 7 -73q16 -63 107 -63h259v-90h-294q-115 0 -162 67q-38 54 -38 193q0 87 10 129q13 59 53 93q58 50 198 50q121 0 175 -34q75 -47 75 -172zM416 347q0 45 -33 70t-101 25q-80 0 -111 -35q-22 -25 -24 -91h243
q26 0 26 31z" />
    <glyph glyph-name="afii10072" unicode="&#x436;" horiz-adv-x="805" 
d="M825 0h-138l-173 210q-31 38 -31 60q0 26 37 72l150 188h136l-181 -217q-22 -26 -22 -39q0 -15 22 -41zM459 0h-113v530h113v-530zM322 270q0 -22 -31 -60l-173 -210h-138l200 233q22 26 22 41q0 13 -22 39l-182 217h136l151 -188q37 -46 37 -72z" />
    <glyph glyph-name="afii10073" unicode="&#x437;" horiz-adv-x="530" 
d="M500 148q0 -80 -41 -117q-34 -31 -106 -31h-313v90h266q49 0 63 26q10 18 10 46q0 37 -22 53q-18 13 -50 13h-252v90h256q33 0 49 15t16 46q0 32 -17.5 46.5t-50.5 14.5h-258v90h302q76 0 110.5 -33.5t34.5 -101.5q0 -60 -23 -88t-61 -32v-3q36 -4 60 -31q27 -31 27 -93z
" />
    <glyph glyph-name="afii10074" unicode="&#x438;" horiz-adv-x="599" 
d="M559 0h-117l4 377q0 14 -6 14q-4 0 -14 -14l-233 -341q-29 -42 -76 -42q-77 0 -77 75v461h117l-5 -377q0 -14 8 -14q4 0 14 14l236 347q24 36 72 36q77 0 77 -81v-455z" />
    <glyph glyph-name="afii10075" unicode="&#x439;" horiz-adv-x="599" 
d="M486 693q-20 -68 -57 -101q-44 -39 -128 -39t-128 39q-37 33 -57 101h91q8 -26 25 -43q24 -24 69 -24t69 24q17 17 25 43h91zM559 0h-117l4 377q0 14 -6 14q-4 0 -14 -14l-233 -341q-29 -42 -76 -42q-77 0 -77 75v461h117l-5 -377q0 -14 8 -14q4 0 14 14l236 347
q24 36 72 36q77 0 77 -81v-455z" />
    <glyph glyph-name="afii10076" unicode="&#x43a;" horiz-adv-x="514" 
d="M544 0h-141l-193 211q-30 33 -30 62q0 28 37 69l169 188h139l-201 -214q-25 -27 -25 -43q0 -17 19 -37zM157 0h-117v530h117v-530z" />
    <glyph glyph-name="afii10077" unicode="&#x43b;" horiz-adv-x="566" 
d="M576 0h-120l-163 409q-6 15 -10 15t-10 -15l-163 -409h-120l215 492q19 44 78 44t78 -44z" />
    <glyph glyph-name="afii10078" unicode="&#x43c;" horiz-adv-x="740" 
d="M700 0h-117l5 384q0 10 -6 10q-3 0 -9 -12l-135 -344q-17 -44 -68 -44t-68 44l-136 344q-4 11 -8 11q-6 0 -6 -9l5 -384h-117v460q0 37 28 58q24 18 63 18q67 0 90 -57l134 -337q8 -21 15 -21t15 21l134 337q23 57 90 57q39 0 64 -18q27 -21 27 -58v-460z" />
    <glyph glyph-name="afii10079" unicode="&#x43d;" horiz-adv-x="567" 
d="M527 0h-117v228h-253v-228h-117v530h117v-212h253v212h117v-530z" />
    <glyph glyph-name="afii10080" unicode="&#x43e;" horiz-adv-x="616" 
d="M590 267q0 -152 -68 -216q-61 -57 -214 -57q-152 0 -214 57q-68 62 -68 212q0 154 68 217q60 56 214 56t214 -56q68 -63 68 -213zM469 264q0 102 -34 140q-38 42 -127 42q-92 0 -128 -42q-33 -38 -33 -140q0 -97 34 -136q38 -44 127 -44q87 0 126 44q35 39 35 136z" />
    <glyph glyph-name="afii10081" unicode="&#x43f;" horiz-adv-x="568" 
d="M528 0h-117v409q0 19 -7 25t-21 6h-198q-28 0 -28 -31v-409h-117v442q0 41 18 62q23 26 72 26h308q51 0 73 -26q17 -20 17 -62v-442z" />
    <glyph glyph-name="afii10082" unicode="&#x440;" horiz-adv-x="559" 
d="M533 276q0 -140 -42 -200q-53 -76 -186 -76h-148v-170h-117v618q0 42 30 65q22 17 66 17h185q100 0 156 -58t56 -196zM412 266q0 82 -14 114q-26 60 -102 60h-115q-7 0 -15.5 -7.5t-8.5 -17.5v-325h133q68 0 100 49q22 34 22 127z" />
    <glyph glyph-name="afii10083" unicode="&#x441;" horiz-adv-x="513" 
d="M487 0h-255q-103 0 -158 65q-48 57 -48 193q0 154 60 215q56 57 162 57h227v-90h-189q-106 0 -130 -84q-9 -31 -9 -100q0 -76 17 -110q28 -56 133 -56h190v-90z" />
    <glyph glyph-name="afii10084" unicode="&#x442;" horiz-adv-x="515" 
d="M515 440h-199v-440h-117v440h-199v90h515v-90z" />
    <glyph glyph-name="afii10085" unicode="&#x443;" horiz-adv-x="571" 
d="M581 530l-317 -700h-119l81 172l-236 528h124l169 -402l179 402h119z" />
    <glyph glyph-name="afii10086" unicode="&#x444;" horiz-adv-x="805" 
d="M779 259q0 -126 -44 -187q-52 -72 -170 -72h-104v-170h-117v170h-104q-118 0 -170 72q-44 61 -44 187q0 127 37 188q51 83 173 83h108v170h117v-170h108q121 0 173 -83q37 -59 37 -188zM658 258q0 105 -25 140q-30 42 -112 42h-60v-350h58q90 0 118 47q21 36 21 121z
M344 90v350h-60q-81 0 -112 -42q-25 -34 -25 -140q0 -85 21 -121q28 -47 118 -47h58z" />
    <glyph glyph-name="afii10087" unicode="&#x445;" horiz-adv-x="522" 
d="M532 0h-138l-133 196l-133 -196h-138l204 272l-191 258h134l124 -182l124 182h134l-190 -258z" />
    <glyph glyph-name="afii10088" unicode="&#x446;" horiz-adv-x="591" 
d="M601 0h-481q-38 0 -59 18t-21 56v456h117v-402q0 -22 8 -30t32 -8h212v440h117v-440h75v-90z" />
    <glyph glyph-name="afii10089" unicode="&#x447;" horiz-adv-x="555" 
d="M515 0h-117v222h-234q-76 0 -109 44q-25 33 -25 106v158h117v-133q0 -44 10 -59q17 -26 64 -26h177v218h117v-530z" />
    <glyph glyph-name="afii10090" unicode="&#x448;" horiz-adv-x="819" 
d="M779 80q0 -42 -19 -60q-22 -20 -74 -20h-553q-54 0 -73.5 19.5t-19.5 60.5v450h117v-405q0 -19 6 -27t22 -8h166v440h117v-440h167q15 0 21 8t6 27v405h117v-450z" />
    <glyph glyph-name="afii10091" unicode="&#x449;" horiz-adv-x="855" 
d="M855 0h-722q-55 0 -74 19t-19 61v450h117v-405q0 -20 4 -26q6 -9 23 -9h167v440h117v-440h194v440h117v-440h76v-90z" />
    <glyph glyph-name="afii10092" unicode="&#x44a;" horiz-adv-x="614" 
d="M588 159q0 -95 -40 -131q-31 -28 -102 -28h-269q-39 0 -59 19t-20 62v325q0 18 -5.5 26t-24.5 8h-68v90h148q28 0 47.5 -17t19.5 -58v-126h239q64 0 99 -40t35 -130zM467 166q0 41 -14.5 57t-47.5 16h-190v-112q0 -22 7.5 -29.5t25.5 -7.5h153q37 0 51.5 16.5t14.5 59.5z
" />
    <glyph glyph-name="afii10093" unicode="&#x44b;" horiz-adv-x="750" 
d="M710 0h-117v530h117v-530zM530 159q0 -95 -40 -131q-31 -28 -102 -28h-269q-39 0 -59 19t-20 62v449h117v-201h239q64 0 99 -40t35 -130zM409 166q0 41 -14.5 57t-47.5 16h-190v-112q0 -22 7.5 -29.5t25.5 -7.5h153q37 0 51.5 16.5t14.5 59.5z" />
    <glyph glyph-name="afii10094" unicode="&#x44c;" horiz-adv-x="556" 
d="M530 159q0 -95 -40 -131q-31 -28 -102 -28h-269q-39 0 -59 19t-20 62v449h117v-201h239q64 0 99 -40t35 -130zM409 166q0 41 -14.5 57t-47.5 16h-190v-112q0 -22 7.5 -29.5t25.5 -7.5h153q37 0 51.5 16.5t14.5 59.5z" />
    <glyph glyph-name="afii10095" unicode="&#x44d;" horiz-adv-x="522" 
d="M496 275q0 -148 -47 -209q-51 -66 -184 -66h-239v90h208q97 0 126 56q16 31 16 86h-336v90h335q2 49 -24 80q-32 38 -115 38h-203v90h262q100 0 150.5 -57.5t50.5 -197.5z" />
    <glyph glyph-name="afii10096" unicode="&#x44e;" horiz-adv-x="817" 
d="M791 270q0 -155 -66 -219q-59 -57 -213 -57q-149 0 -212 57q-70 63 -65 177h-78v-228h-117v530h117v-212h78q6 110 66.5 164t210.5 54q155 0 213 -55q66 -62 66 -211zM670 267q0 99 -29 136q-34 43 -129 43t-128 -43q-28 -37 -28 -144q0 -92 29 -130q34 -45 127 -45
t128 45q30 38 30 138z" />
    <glyph glyph-name="afii10097" unicode="&#x44f;" horiz-adv-x="568" 
d="M528 0h-117v399q0 25 -8 33t-34 8h-153q-30 0 -44 -16.5t-14 -57.5q0 -44 11 -60q13 -19 51 -19h71q51 0 51 -45q0 -31 -20 -54l-165 -188h-137l174 183q7 7 7 12q0 6 -10 6h-28q-62 0 -96 45q-30 40 -30 126q0 85 39 124q34 34 91 34h270q45 0 66 -19q25 -23 25 -78
v-433z" />
    <glyph glyph-name="afii10071" unicode="&#x451;" horiz-adv-x="563" 
d="M442 609h-108v98h108v-98zM227 609h-108v98h108v-98zM537 326q0 -55 -25 -80q-20 -20 -57 -20h-308q0 -46 7 -73q16 -63 107 -63h259v-90h-294q-115 0 -162 67q-38 54 -38 193q0 87 10 129q13 59 53 93q58 50 198 50q121 0 175 -34q75 -47 75 -172zM416 347q0 45 -33 70
t-101 25q-80 0 -111 -35q-22 -25 -24 -91h243q26 0 26 31z" />
    <glyph glyph-name="afii10099" unicode="&#x452;" horiz-adv-x="600" 
d="M560 149q0 -48 -14 -107.5t-42.5 -115t-60.5 -96.5h-130q52 68 81 124q49 94 49 200v171q0 53 -26.5 84t-84.5 31h-137v-440h-117v590h-78v66h78v44h117v-44h155v-66h-155v-60h173q87 0 132 -37q37 -31 51 -74q9 -31 9 -86v-184z" />
    <glyph glyph-name="afii10100" unicode="&#x453;" horiz-adv-x="443" 
d="M321 699l-162 -132l-59 74l161 133zM443 440h-294q-14 0 -23 -9t-9 -33v-398h-117v443q0 42 11 59q18 28 63 28h369v-90z" />
    <glyph glyph-name="afii10101" unicode="&#x454;" horiz-adv-x="523" 
d="M497 0h-239q-60 0 -94 9q-57 15 -90 58q-48 64 -48 210q0 135 52 194t151 59h261v-86h-224q-72 0 -99 -44q-20 -32 -20 -82h336v-84h-336q-2 -55 17 -93q25 -51 105 -51h228v-90z" />
    <glyph glyph-name="afii10102" unicode="&#x455;" horiz-adv-x="527" 
d="M501 135q0 -79 -44 -113q-29 -22 -85 -22h-339v90h298q26 0 39 15q10 11 10 33q0 26 -15 40q-12 11 -96 34l-102 28q-87 24 -116 64q-25 35 -25 90t25 90q33 46 127 46h299v-90h-281q-28 0 -42 -11t-14 -37q0 -27 16.5 -40.5t66.5 -27.5l114 -32q103 -29 132 -60
q32 -34 32 -97z" />
    <glyph glyph-name="afii10103" unicode="&#x456;" horiz-adv-x="197" 
d="M157 607h-117v93h117v-93zM157 0h-117v530h117v-530z" />
    <glyph glyph-name="afii10104" unicode="&#x457;" horiz-adv-x="253" 
d="M273 600h-100v108h100v-108zM80 600h-100v108h100v-108zM185 0h-117v530h117v-530z" />
    <glyph glyph-name="afii10105" unicode="&#x458;" horiz-adv-x="275" 
d="M235 607h-117v93h117v-93zM235 13q0 -102 -68 -152q-61 -45 -207 -39v90q83 -1 117 23q41 30 41 102v493h117v-517z" />
    <glyph glyph-name="afii10106" unicode="&#x459;" horiz-adv-x="907" 
d="M881 162q0 -95 -40 -134q-29 -28 -97 -28h-274q-42 0 -60.5 19.5t-18.5 61.5v341q0 25 -15 25q-10 0 -18 -14l-238 -433h-130l285 484q31 52 112 52q66 0 93.5 -18.5t27.5 -59.5v-140h244q58 0 90 -31q39 -37 39 -125zM760 164q0 39 -14.5 54.5t-47.5 15.5h-190v-107
q0 -20 6.5 -28.5t26.5 -8.5h157q32 0 47 17t15 57z" />
    <glyph glyph-name="afii10107" unicode="&#x45a;" horiz-adv-x="926" 
d="M900 159q0 -93 -40 -131q-30 -28 -97 -28h-274q-42 0 -60.5 19.5t-18.5 61.5v149h-253v-230h-117v530h117v-210h253v210h117v-210h244q56 0 90 -34q39 -39 39 -127zM779 164q0 37 -13.5 51.5t-49.5 14.5h-189v-103q0 -20 6.5 -28.5t25.5 -8.5h157q33 0 48 17t15 57z" />
    <glyph glyph-name="afii10108" unicode="&#x45b;" horiz-adv-x="600" 
d="M560 0h-117v316q0 62 -27 93t-84 31h-137v-440h-117v590h-78v66h78v44h117v-44h155v-66h-155v-60h159q102 0 148 -38q58 -48 58 -143v-349z" />
    <glyph glyph-name="afii10109" unicode="&#x45c;" horiz-adv-x="514" 
d="M399 693l-162 -132l-59 74l161 133zM544 0h-141l-193 211q-30 33 -30 62q0 28 37 69l169 188h139l-201 -214q-25 -27 -25 -43q0 -17 19 -37zM157 0h-117v530h117v-530z" />
    <glyph glyph-name="afii10110" unicode="&#x45e;" horiz-adv-x="571" 
d="M470 693q-16 -65 -57 -101q-44 -39 -128 -39q-85 0 -127.5 38.5t-57.5 101.5h91q6 -25 25 -43q25 -24 69 -24t69 24q19 18 25 43h91zM581 530l-317 -700h-119l81 172l-236 528h124l169 -402l179 402h119z" />
    <glyph glyph-name="afii10193" unicode="&#x45f;" horiz-adv-x="567" 
d="M527 70q0 -33 -16.5 -51.5t-56.5 -18.5h-110v-176h-120v176h-110q-41 0 -57.5 18.5t-16.5 51.5v460h117v-410q0 -20 5 -25t20 -5h204q14 0 19 5t5 25v410h117v-460z" />
    <glyph glyph-name="afii10050" unicode="&#x490;" horiz-adv-x="610" 
d="M630 666q0 -31 -14 -48q-18 -22 -60 -22h-326q-18 0 -23 -9t-5 -35v-552h-132v603q0 46 23 71.5t72 25.5h297q23 0 29.5 8t6.5 31v86h132v-159z" />
    <glyph glyph-name="afii10098" unicode="&#x491;" horiz-adv-x="458" 
d="M478 514q0 -38 -16.5 -53.5t-57.5 -15.5h-218q-19 0 -24 -5t-5 -27v-413h-117v456q0 37 17.5 55.5t51.5 18.5h224q16 0 25 8q6 6 6 20v100h114v-144z" />
    <glyph glyph-name="endash" unicode="&#x2013;" horiz-adv-x="572" 
d="M532 218h-492v103h492v-103z" />
    <glyph glyph-name="emdash" unicode="&#x2014;" horiz-adv-x="1087" 
d="M1027 218h-967v103h967v-103z" />
    <glyph glyph-name="quoteleft" unicode="&#x2018;" horiz-adv-x="291" 
d="M281 542l-95 -58l-126 201l87 53z" />
    <glyph glyph-name="quoteright" unicode="&#x2019;" horiz-adv-x="261" 
d="M221 680l-134 -196l-87 53l126 201z" />
    <glyph glyph-name="quotesinglbase" unicode="&#x201a;" horiz-adv-x="281" 
d="M221 80l-134 -196l-87 53l127 201z" />
    <glyph glyph-name="quotedblleft" unicode="&#x201c;" horiz-adv-x="495" 
d="M435 542l-94 -58l-127 201l87 53zM230 542l-94 -58l-126 201l87 53z" />
    <glyph glyph-name="quotedblright" unicode="&#x201d;" horiz-adv-x="495" 
d="M435 680l-134 -196l-86 53l126 201zM231 680l-134 -196l-87 53l127 201z" />
    <glyph glyph-name="quotedblbase" unicode="&#x201e;" horiz-adv-x="485" 
d="M425 80l-134 -196l-87 53l127 201zM220 80l-133 -196l-87 53l126 201z" />
    <glyph glyph-name="dagger" unicode="&#x2020;" horiz-adv-x="493" 
d="M453 416h-161v-586h-91v586h-161v85h161v199h91v-199h161v-85z" />
    <glyph glyph-name="daggerdbl" unicode="&#x2021;" horiz-adv-x="493" 
d="M453 23h-161v-193h-91v193h-161v85h161v309h-161v85h161v198h91v-198h161v-85h-161v-309h161v-85z" />
    <glyph glyph-name="bullet" unicode="&#x2022;" horiz-adv-x="493" 
d="M433 349q0 -76 -55 -131.5t-131 -55.5q-77 0 -132 55.5t-55 131.5q0 77 54.5 131.5t132.5 54.5q77 0 131.5 -54.5t54.5 -131.5z" />
    <glyph glyph-name="ellipsis" unicode="&#x2026;" horiz-adv-x="664" 
d="M604 0h-122v129h122v-129zM393 0h-122v129h122v-129zM182 0h-122v129h122v-129z" />
    <glyph glyph-name="perthousand" unicode="&#x2030;" horiz-adv-x="1174" 
d="M1114 162q0 -95 -40 -134q-35 -34 -115 -34q-81 0 -116 34q-39 38 -39 134t39 134q35 34 116 34q80 0 115 -34q40 -39 40 -134zM757 162q0 -95 -40 -134q-35 -34 -115 -34q-81 0 -116 34q-39 38 -39 134t39 134q35 34 116 34q80 0 115 -34q40 -39 40 -134zM633 700
l-357 -700h-88l357 700h88zM370 538q0 -95 -40 -134q-35 -34 -115 -34q-81 0 -116 34q-39 38 -39 134t39 134q35 34 116 34q80 0 115 -34q40 -39 40 -134zM1032 162q0 59 -18 80t-55 21q-39 0 -56 -21t-17 -80t17 -80t56 -21q37 0 55 21t18 80zM675 162q0 59 -18 80t-55 21
q-39 0 -56 -21t-17 -80t17 -80t56 -21q37 0 55 21t18 80zM288 538q0 59 -18 80t-55 21q-39 0 -56 -21t-17 -80t17 -80t56 -21q37 0 55 21t18 80z" />
    <glyph glyph-name="guilsinglleft" unicode="&#x2039;" horiz-adv-x="358" 
d="M298 89l-80 -59l-137 190q-21 29 -21 61t21 61l137 191l80 -60l-113 -162q-12 -17 -12 -30t12 -30z" />
    <glyph glyph-name="guilsinglright" unicode="&#x203a;" horiz-adv-x="358" 
d="M298 281q0 -32 -21 -61l-137 -190l-80 59l113 162q12 17 12 30t-12 30l-113 162l80 60l137 -191q21 -29 21 -61z" />
    <glyph glyph-name="radicalex" unicode="&#x203e;" horiz-adv-x="437" 
d="M397 218h-357v103h357v-103z" />
    <glyph glyph-name="fraction" unicode="&#x2044;" horiz-adv-x="507" 
d="M507 740l-438 -906h-69l438 906h69z" />
    <glyph glyph-name="afii61352" unicode="&#x2116;" horiz-adv-x="1068" 
d="M1008 513q0 -65 -27 -90t-108 -25q-80 0 -107 25t-27 90v79q0 65 27 90t107 25q81 0 108 -25t27 -90v-79zM1008 283h-269v62h269v-62zM665 91q0 -99 -95 -99q-76 0 -109 59l-258 466q-9 17 -13 17q-10 0 -10 -20v-514h-120v613q0 95 99 95q73 0 104 -55l261 -469
q9 -17 14 -17q7 0 7 17v516h120v-609zM926 528v51q0 35 -12.5 47.5t-40.5 12.5q-27 0 -39.5 -12.5t-12.5 -47.5v-51q0 -35 12.5 -47.5t39.5 -12.5q28 0 40.5 12.5t12.5 47.5z" />
    <glyph glyph-name="trademark" unicode="&#x2122;" horiz-adv-x="1039" 
d="M979 298h-85v300q0 11 -8 11q-6 0 -11 -12l-98 -258q-17 -45 -65 -45t-65 45l-97 258q-5 12 -11 12q-8 0 -8 -11v-300h-85v360q0 48 75 48q66 0 82 -42l99 -266q7 -13 10 -13q4 0 10 13l99 266q16 42 82 42q76 0 76 -48v-360zM393 621h-152v-323h-89v323h-152v80h393v-80
z" />
    <glyph glyph-name="minus" unicode="&#xad;" horiz-adv-x="437" 
d="M397 218h-357v103h357v-103z" />
    <glyph glyph-name="minus" unicode="&#x2212;" horiz-adv-x="437" 
d="M397 218h-357v103h357v-103z" />
    <glyph glyph-name="periodcentered" unicode="&#x2219;" horiz-adv-x="242" 
d="M182 250h-122v129h122v-129z" />
  </font>
</defs>
</svg>
