<svg xmlns="http://www.w3.org/2000/svg" width="150" height="150" viewBox="0 0 150 150"><defs><style>.cls-1 {fill: #f6f6f6;} .cls-2 {fill: #cecece;fill-rule: evenodd;}</style></defs><rect id="shape" data-name="shape" class="cls-1" width="150" height="150"/><path id="avatar" class="cls-2" d="M75.652,12.2a31.653,31.653,0,1,1-31.3,31.651A31.479,31.479,0,0,1,75.652,12.2Zm0,75.495c12.79,0,16.957-3.956,16.957-3.956s30.453-4,37.5,28.352c0.9,4.134,0,10.234,0,15.824s-5.975,11.209-14.022,11.209H34.565c-8.183,0-14.022-4.766-14.022-13.187s-0.371-11.35.978-16.154c8.378-29.831,36.2-26.373,36.2-26.373S62.862,87.692,75.652,87.692Z"/></svg>
