<?xml version="1.0" standalone="no"?>
<!DOCTYPE svg PUBLIC "-//W3C//DTD SVG 1.1//EN" "http://www.w3.org/Graphics/SVG/1.1/DTD/svg11.dtd" >
<svg>
<metadata>
Created by FontForge 20090622 at Sun Dec 30 16:03:30 2018
 By deploy user
Copyright (c) 1990-1997 ParaGraph.  !!! Bugs fixed and optimised by Ghidkih Igor (QWERTY) in 2002 year. Enjoy!!!
</metadata>
<defs>
<font id="MagistralBlack" horiz-adv-x="670" >
  <font-face 
    font-family="Magistral Black"
    font-weight="400"
    font-stretch="normal"
    units-per-em="1000"
    panose-1="0 0 4 0 0 0 0 0 0 0"
    ascent="800"
    descent="-200"
    x-height="530"
    cap-height="700"
    bbox="-40 -189 1257 1007"
    underline-thickness="20"
    underline-position="-123"
    unicode-range="U+0020-U+2219"
  />
<missing-glyph horiz-adv-x="500" 
d="M63 0v800h375v-800h-375zM125 63h250v675h-250v-675z" />
    <glyph glyph-name=".notdef" horiz-adv-x="500" 
d="M63 0v800h375v-800h-375zM125 63h250v675h-250v-675z" />
    <glyph glyph-name=".null" horiz-adv-x="0" 
 />
    <glyph glyph-name="nonmarkingreturn" horiz-adv-x="233" 
 />
    <glyph glyph-name="space" unicode=" " horiz-adv-x="233" 
 />
    <glyph glyph-name="exclam" unicode="!" horiz-adv-x="328" 
d="M278 700l-20 -459h-188l-20 459h228zM262 0h-196v182h196v-182z" />
    <glyph glyph-name="quotedbl" unicode="&#x22;" horiz-adv-x="523" 
d="M473 700l-12 -325h-162l-12 325h186zM236 700l-12 -325h-162l-12 325h186z" />
    <glyph glyph-name="numbersign" unicode="#" horiz-adv-x="903" 
d="M873 523l-36 -90h-147l-63 -157h146l-36 -90h-146l-75 -186h-111l75 186h-193l-76 -186h-110l75 186h-146l35 90h147l64 157h-147l37 90h146l72 177h110l-71 -177h193l71 177h110l-70 -177h146zM580 433h-194l-64 -157h194z" />
    <glyph glyph-name="dollar" unicode="$" horiz-adv-x="772" 
d="M722 188q0 -100 -41 -143q-31 -32 -82 -41q-21 -4 -81 -4h-82v-72h-96v72h-271v174h364q36 0 46 5q15 8 15 21q0 29 -44 39l-255 60q-73 17 -113 80q-32 51 -32 132q0 86 37 132q30 38 77 50q25 7 76 7h100v72h96v-72h248v-174h-336q-34 0 -47 -2q-23 -4 -23 -25
q0 -27 54 -39l234 -53q84 -19 118 -60q38 -45 38 -159z" />
    <glyph glyph-name="percent" unicode="%" horiz-adv-x="818" 
d="M768 164q0 -91 -39.5 -130.5t-121.5 -39.5q-81 0 -119 38q-41 41 -41 132q0 90 41 132q36 37 119 37q84 0 120 -37q41 -42 41 -132zM665 700l-406 -700h-104l406 700h104zM371 536q0 -90 -39.5 -129.5t-120.5 -39.5q-82 0 -120 38q-41 41 -41 131q0 91 41 132
q38 38 120 38q81 0 119 -38q41 -41 41 -132zM680 164q0 48 -13 66q-16 22 -60 22q-43 0 -59 -22q-13 -18 -13 -66q0 -49 13 -67q16 -22 59 -22q44 0 60 22q13 18 13 67zM283 536q0 50 -13 67q-17 22 -59 22q-43 0 -60 -22q-13 -17 -13 -67q0 -48 13 -66q16 -22 60 -22
q43 0 59 22q13 18 13 66z" />
    <glyph glyph-name="ampersand" unicode="&#x26;" horiz-adv-x="834" 
d="M824 278h-91v-76q0 -116 -49 -161q-45 -41 -168 -41h-263q-113 0 -164 59q-39 45 -39 132q0 78 27 116q31 43 84 45v2q-44 8 -73 40q-36 41 -36 116q0 102 44 146t167 44h447v-174h-346q-54 0 -67 -7q-23 -12 -23 -41q0 -33 27 -43q14 -5 61 -5h462v-152zM507 215v63
h-175q-32 0 -46 -15t-14 -37q0 -30 19 -43q14 -9 52 -9h113q35 0 43 8.5t8 32.5z" />
    <glyph glyph-name="quotesingle" unicode="'" horiz-adv-x="288" 
d="M238 700l-13 -325h-162l-13 325h188z" />
    <glyph glyph-name="parenleft" unicode="(" horiz-adv-x="411" 
d="M381 -164q-162 -10 -264 98q-44 47 -58 115q-9 44 -9 123v201q0 85 10 128q16 67 56.5 110t101.5 69q76 32 163 28v-130q-55 4 -103 -20q-43 -20 -64 -53q-24 -38 -24 -119v-228q0 -80 24 -118q20 -33 64 -54q48 -23 103 -20v-130z" />
    <glyph glyph-name="parenright" unicode=")" horiz-adv-x="411" 
d="M361 172q0 -79 -9 -123q-14 -68 -58 -115q-102 -108 -264 -98v130q55 -3 103 20q44 21 64 54q24 39 24 118v228q0 81 -24 119q-21 33 -64 53q-48 24 -103 20v130q87 4 163 -28q61 -26 101.5 -69t56.5 -110q10 -43 10 -128v-201z" />
    <glyph glyph-name="asterisk" unicode="*" horiz-adv-x="490" 
d="M460 562l-121 -69l120 -70l-48 -83l-118 68v-137h-96v137l-118 -68l-48 83l120 70l-121 69l47 81l120 -70v140h96v-140l120 70z" />
    <glyph glyph-name="plus" unicode="+" horiz-adv-x="707" 
d="M657 247h-235v-235h-136v235h-236v130h236v235h136v-235h235v-130z" />
    <glyph glyph-name="comma" unicode="," horiz-adv-x="357" 
d="M307 93l-169 -246l-138 82l153 256z" />
    <glyph glyph-name="hyphen" unicode="-" horiz-adv-x="487" 
d="M457 189h-427v158h427v-158z" />
    <glyph glyph-name="hyphen" unicode="&#x2010;" horiz-adv-x="487" 
d="M457 189h-427v158h427v-158z" />
    <glyph glyph-name="period" unicode="." horiz-adv-x="298" 
d="M248 0h-198v180h198v-180z" />
    <glyph glyph-name="slash" unicode="/" horiz-adv-x="518" 
d="M528 740l-438 -910h-100l438 910h100z" />
    <glyph glyph-name="zero" unicode="0" horiz-adv-x="684" 
d="M654 276q0 -199 -79 -252q-48 -32 -233 -32t-233 32q-79 53 -79 252v143q0 176 74 239q38 33 111 44q42 6 127 6t127 -6q73 -11 111 -44q74 -63 74 -239v-143zM428 291v134q0 59 -20 81t-66 22t-66 -22t-20 -81v-134q0 -77 18 -98t68 -21t68 21t18 98z" />
    <glyph glyph-name="one" unicode="1" horiz-adv-x="403" 
d="M353 0h-226v468q0 35 -9.5 46.5t-32.5 11.5h-85v174h241q112 0 112 -114v-586z" />
    <glyph glyph-name="two" unicode="2" horiz-adv-x="677" 
d="M647 510q0 -97 -28 -147q-23 -40 -78 -67l-212 -105q-10 -5 -10 -10q0 -4 7 -4h308v-177h-505q-51 0 -77 41q-22 34 -22 88q0 104 61 136l295 156q35 19 35 60q0 24 -13 37t-58 13h-279v169h421q74 0 116 -46q39 -43 39 -144z" />
    <glyph glyph-name="three" unicode="3" horiz-adv-x="689" 
d="M659 201q0 -56 -8 -86q-12 -41 -45 -71q-48 -44 -132 -44h-444v174h277q79 0 95 8q25 12 25 45q0 36 -25 47q-12 5 -52 5h-303v154h291q45 0 59 14t14 38q0 25 -14 37t-57 12h-302v166h429q97 0 139 -56q33 -44 33 -124q0 -79 -30.5 -114.5t-82.5 -41.5v-3q54 0 90 -30
q43 -36 43 -130z" />
    <glyph glyph-name="four" unicode="4" horiz-adv-x="769" 
d="M749 95h-104v-95h-226v95h-314q-47 0 -70 33q-6 6 -13 28q-12 35 -12 80q0 91 54 140l319 287q50 45 135 45q70 0 102 -32q25 -25 25 -81v-316h104v-184zM419 279v175q0 4 -4 4q-2 0 -13 -10l-169 -150q-7 -6 -7 -10q0 -9 13 -9h180z" />
    <glyph glyph-name="five" unicode="5" horiz-adv-x="682" 
d="M652 235q0 -141 -50 -190q-46 -45 -162 -45h-400v174h306q50 0 64 18q10 13 10 39q0 22 -11 34q-15 16 -54 16h-181q-73 0 -100 18q-44 30 -44 121v168q0 53 29 82.5t90 29.5h485v-170h-335q-27 0 -35 -8.5t-8 -27.5v-11q0 -24 14 -36q11 -10 37 -10h186q80 0 123 -54
q24 -30 31 -71q5 -24 5 -77z" />
    <glyph glyph-name="six" unicode="6" horiz-adv-x="682" 
d="M652 235q0 -110 -29 -162q-41 -73 -156 -73h-263q-70 0 -118 40q-56 47 -56 156v319q0 98 60 144q53 41 141 41h385v-174h-293q-43 0 -55 -10t-12 -36v-47h216q87 0 127 -34q53 -45 53 -164zM420 222q0 31 -13 44t-52 13h-99v-55q0 -34 17 -44q10 -6 35 -6h62q50 0 50 48
z" />
    <glyph glyph-name="seven" unicode="7" horiz-adv-x="603" 
d="M613 603q0 -58 -29 -104l-316 -499h-250l335 501q10 15 10 19q0 10 -25 10h-348v170h531q92 0 92 -97z" />
    <glyph glyph-name="eight" unicode="8" horiz-adv-x="688" 
d="M658 190q0 -84 -30 -124q-32 -44 -92 -57q-37 -9 -118 -9h-148q-81 0 -118 9q-60 13 -92 57q-30 40 -30 124q0 99 43 136q28 24 77 31v2q-34 4 -61 28q-43 39 -43 118q0 106 46.5 150.5t200.5 44.5h102q154 0 202 -46q45 -43 45 -149q0 -79 -43 -118q-27 -24 -61 -28v-2
q49 -7 77 -31q43 -37 43 -136zM410 474q0 31 -13.5 41.5t-42.5 10.5h-20q-29 0 -42.5 -10.5t-13.5 -41.5q0 -23 9.5 -33.5t36.5 -10.5h40q27 0 36.5 10.5t9.5 33.5zM426 230q0 26 -18 39q-12 9 -46 9h-36q-33 0 -46 -9q-18 -13 -18 -39q0 -27 12 -40q14 -16 48 -16h44
q34 0 48 16q12 13 12 40z" />
    <glyph glyph-name="nine" unicode="9" horiz-adv-x="678" 
d="M648 232q0 -94 -23 -141q-45 -91 -179 -91h-394v174h318q28 0 40 10t12 33v45h-240q-72 0 -112 47t-40 169q0 63 6 91q10 50 43 83q48 48 141 48h220q129 0 177 -73q31 -47 31 -118v-277zM422 418v70q0 15 -9 26q-12 12 -31 12h-57q-27 0 -43 -11q-20 -14 -20 -45
q0 -29 18 -43q12 -9 48 -9h94z" />
    <glyph glyph-name="colon" unicode=":" horiz-adv-x="298" 
d="M248 350h-198v180h198v-180zM248 0h-198v180h198v-180z" />
    <glyph glyph-name="semicolon" unicode=";" horiz-adv-x="359" 
d="M309 356h-196v174h196v-174zM307 93l-169 -246l-138 82l153 256z" />
    <glyph glyph-name="less" unicode="&#x3c;" horiz-adv-x="709" 
d="M659 175l-609 310l609 310v-122l-383 -188l383 -188v-122z" />
    <glyph glyph-name="equal" unicode="=" horiz-adv-x="708" 
d="M658 355h-608v130h608v-130zM658 151h-608v130h608v-130z" />
    <glyph glyph-name="greater" unicode="&#x3e;" horiz-adv-x="709" 
d="M659 485l-609 -310v122l383 188l-383 188v122z" />
    <glyph glyph-name="question" unicode="?" horiz-adv-x="510" 
d="M480 534q0 -66 -23 -109q-19 -37 -64 -67l-50 -34q-23 -15 -34 -37q-9 -17 -9 -29v-17h-196v35q0 41 20 70q13 19 55 47l31 21q26 18 35 29q11 16 11 42q0 27 -17 35q-12 6 -50 6h-179v174h313q92 0 129 -50q28 -38 28 -116zM300 0h-196v182h196v-182z" />
    <glyph glyph-name="at" unicode="@" horiz-adv-x="985" 
d="M935 303q0 -151 -29 -214q-41 -88 -144 -88q-50 0 -86 20q-43 24 -54 68q-49 -88 -163 -88q-127 0 -176 86q-32 57 -32 165q0 110 28 167q50 103 178 103h138q63 0 82 -20t19 -72v-237q0 -84 65 -84q37 0 55.5 33.5t18.5 154.5q0 153 -35 216q-32 58 -91 80
q-42 15 -110 15h-184q-87 0 -136 -18q-79 -29 -108 -111q-21 -59 -21 -219q0 -148 23 -221q26 -82 99 -113q49 -21 132 -21h278v-94h-303q-185 0 -264 116q-38 56 -53 146q-12 76 -12 211q0 102 6 151q12 85 48 140q84 127 312 127h176q226 0 302 -147q41 -80 41 -252z
M573 256v116q0 21 -15 28q-9 4 -26 4h-39q-55 0 -83.5 -32t-28.5 -115q0 -71 12 -98q18 -40 67 -40q46 0 77 33q36 39 36 104z" />
    <glyph glyph-name="A" unicode="A" horiz-adv-x="778" 
d="M808 0h-238l-55 144h-252l-55 -144h-238l259 623q18 44 48 62q37 23 112 23q61 0 93 -13q45 -19 67 -72zM461 304l-63 177q-5 15 -9 15t-9 -15l-63 -177h144z" />
    <glyph glyph-name="B" unicode="B" horiz-adv-x="775" 
d="M745 196q0 -102 -42 -147q-30 -33 -73 -43q-26 -6 -84 -6h-366q-75 0 -104 33q-26 30 -26 78v476q0 50 24 78q30 35 79 35h380q108 0 152 -46t44 -150q0 -71 -35 -109q-29 -32 -70 -35v-4q50 -4 83 -36q38 -37 38 -124zM505 482q0 18 -12 31t-50 13h-129q-20 0 -29 -8
t-9 -30v-57h168q44 0 55 21q6 12 6 30zM519 229q0 18 -9 30q-15 20 -58 20h-176v-53q0 -33 8.5 -42.5t41.5 -9.5h120q48 0 60.5 14.5t12.5 40.5z" />
    <glyph glyph-name="C" unicode="C" horiz-adv-x="645" 
d="M643 0h-310q-88 0 -139 16q-60 20 -100 70q-64 80 -64 255q0 190 61 268q72 91 245 91h296v-174h-187q-70 0 -96 -7q-43 -10 -64 -48q-23 -41 -23 -126q0 -84 17 -116q20 -37 68 -48q29 -7 102 -7h194v-174z" />
    <glyph glyph-name="D" unicode="D" horiz-adv-x="778" 
d="M748 354q0 -192 -54 -266q-64 -88 -201 -88h-328q-54 0 -83 26q-32 29 -32 78v470q0 64 23 91q30 35 84 35h319q136 0 209 -85q63 -73 63 -261zM516 356q0 105 -47 146q-34 30 -127 30h-17q-24 0 -35 -8q-14 -10 -14 -39v-258q0 -31 11 -42t36 -11h31q97 0 131 40
q31 37 31 142z" />
    <glyph glyph-name="E" unicode="E" horiz-adv-x="691" 
d="M671 0h-504q-56 0 -85 24q-32 27 -32 88v480q0 52 30 80t85 28h503v-170h-346q-23 0 -34.5 -9.5t-11.5 -34.5v-53h382v-152h-382v-76q0 -17 10 -26t43 -9h342v-170z" />
    <glyph glyph-name="F" unicode="F" horiz-adv-x="696" 
d="M694 530h-375q-22 0 -32.5 -10.5t-10.5 -36.5v-49h305v-158h-305v-276h-226v582q0 57 31.5 87.5t91.5 30.5h521v-170z" />
    <glyph glyph-name="G" unicode="G" horiz-adv-x="760" 
d="M730 105q0 -53 -34 -81q-29 -24 -75 -24h-331q-109 0 -176 59q-84 74 -84 287q0 106 16 170q23 92 84 136q66 48 176 48h408v-166h-306q-85 0 -121 -58q-25 -40 -25 -126t26 -128q30 -48 98 -48h68q26 0 38 11t12 41v144h226v-265z" />
    <glyph glyph-name="H" unicode="H" horiz-adv-x="806" 
d="M756 0h-226v278h-254v-278h-226v700h226v-248h254v248h226v-700z" />
    <glyph glyph-name="I" unicode="I" horiz-adv-x="326" 
d="M276 0h-226v700h226v-700z" />
    <glyph glyph-name="J" unicode="J" horiz-adv-x="512" 
d="M462 258q0 -120 -64 -185q-72 -73 -189 -73h-229v174h101q76 0 111 28q44 35 44 132v366h226v-442z" />
    <glyph glyph-name="K" unicode="K" horiz-adv-x="793" 
d="M823 0h-272l-212 271q-31 40 -31 88q0 46 22 77l188 264h268l-243 -289q-21 -25 -21 -50q0 -33 29 -65zM276 0h-226v700h226v-700z" />
    <glyph glyph-name="L" unicode="L" horiz-adv-x="666" 
d="M686 0h-529q-49 0 -76 22q-31 26 -31 68v610h226v-483q0 -24 10.5 -33.5t36.5 -9.5h363v-174z" />
    <glyph glyph-name="M" unicode="M" horiz-adv-x="1071" 
d="M1021 0h-228l8 426q0 23 -9 23q-6 0 -14 -25l-108 -338q-15 -47 -36 -66q-32 -28 -99 -28t-99 28q-21 19 -36 66l-108 338q-8 25 -14 25q-8 0 -8 -23l7 -426h-227v585q0 123 172 123q61 0 98 -17q57 -27 81 -99l113 -340q11 -32 21 -32t21 32l113 340q24 72 81 99
q37 17 99 17q172 0 172 -123v-585z" />
    <glyph glyph-name="N" unicode="N" horiz-adv-x="864" 
d="M814 117q0 -42 -21 -72q-37 -53 -131 -53q-103 0 -152 69l-253 357q-12 17 -19 17q-14 0 -14 -20v-415h-174v584q0 64 48 96q41 28 109 28q102 0 148 -65l255 -360q12 -17 19 -17q11 0 11 17v417h174v-583z" />
    <glyph glyph-name="O" unicode="O" horiz-adv-x="830" 
d="M800 350q0 -96 -11 -151q-18 -88 -67.5 -134.5t-142.5 -62.5q-58 -10 -164 -10t-164 10q-93 16 -142.5 62.5t-67.5 134.5q-11 55 -11 151q0 97 11 152q18 88 68 134t141 62q59 10 165 10t165 -10q91 -16 141 -62t68 -134q11 -55 11 -152zM568 350q0 55 -3 75
q-5 31 -23 58q-22 32 -53 43q-24 8 -74 8q-49 0 -74 -8q-32 -11 -53 -43q-26 -39 -26 -133q0 -93 26 -133q21 -32 53 -43q25 -8 74 -8q50 0 74 8q31 11 53 43q26 38 26 133z" />
    <glyph glyph-name="P" unicode="P" horiz-adv-x="787" 
d="M757 460q0 -166 -63 -220q-44 -38 -123 -38h-295v-202h-226v568q0 64 28 96q32 36 93 36h387q101 0 147 -49q52 -56 52 -191zM531 455q0 38 -19.5 54.5t-71.5 16.5h-125q-39 0 -39 -41v-109h162q58 0 75.5 18.5t17.5 60.5z" />
    <glyph glyph-name="Q" unicode="Q" horiz-adv-x="845" 
d="M843 0h-428q-233 0 -306 64q-79 69 -79 286q0 97 11 152q18 88 68 134t141 62q59 10 165 10t165 -10q91 -16 141 -62q79 -73 79 -267q0 -132 -35 -199v-4l78 8v-174zM568 354q0 55 -3 75q-5 31 -23 58q-22 32 -53 43q-24 8 -74 8q-49 0 -74 -8q-32 -11 -53 -43
q-26 -39 -26 -133q0 -93 26 -133q21 -32 53 -43q25 -8 74 -8q50 0 74 8q31 11 53 43q26 38 26 133z" />
    <glyph glyph-name="R" unicode="R" horiz-adv-x="789" 
d="M769 0h-272l-135 182q-48 65 -48 95v15q0 35 28.5 57t72.5 22h36q46 0 63 21q15 18 15 58q0 41 -16.5 58.5t-63.5 17.5h-125q-24 0 -36 -11.5t-12 -43.5v-471h-226v566q0 70 27 100q30 34 94 34h381q121 0 167 -68q36 -54 36 -160q0 -110 -26 -172q-37 -87 -130 -87h-30
v-4z" />
    <glyph glyph-name="S" unicode="S" horiz-adv-x="702" 
d="M682 193q0 -94 -34 -139q-27 -35 -68 -47q-25 -7 -73 -7h-480v174h388q39 0 39 22t-45 35l-271 76q-51 14 -80 53q-38 51 -38 156q0 96 44 140t120 44h462v-174h-356q-29 0 -37 -4q-11 -5 -11 -19q0 -22 59 -38l236 -63q65 -17 97 -49q48 -47 48 -160z" />
    <glyph glyph-name="T" unicode="T" horiz-adv-x="706" 
d="M716 526h-250v-526h-226v526h-250v174h726v-174z" />
    <glyph glyph-name="U" unicode="U" horiz-adv-x="794" 
d="M744 280q0 -137 -73 -209q-49 -48 -127 -66q-55 -13 -147 -13t-147 13q-78 18 -127 66q-73 72 -73 209v420h226v-402q0 -71 35 -99q31 -25 86 -25t86 25q35 29 35 99v402h226v-420z" />
    <glyph glyph-name="V" unicode="V" horiz-adv-x="778" 
d="M808 700l-243 -595q-22 -54 -56 -79q-44 -34 -120 -34t-120 34q-34 25 -56 79l-243 595h242l164 -475q5 -15 13 -15t13 15l164 475h242z" />
    <glyph glyph-name="W" unicode="W" horiz-adv-x="1148" 
d="M1178 700l-171 -563q-26 -86 -66 -117q-35 -28 -106 -28q-75 0 -113 32q-31 27 -49 89l-89 304q-7 18 -10 18t-10 -18l-89 -304q-18 -62 -49 -89q-38 -32 -113 -32q-71 0 -106 28q-40 31 -66 117l-171 563h230l116 -422q6 -21 13 -21q8 0 11 17l105 358q22 76 129 76
t129 -76l105 -358q3 -17 11 -17q7 0 13 21l116 422h230z" />
    <glyph glyph-name="X" unicode="X" horiz-adv-x="734" 
d="M764 0h-270l-127 197l-127 -197h-270l265 355l-257 345h270l119 -187l119 187h270l-257 -345z" />
    <glyph glyph-name="Y" unicode="Y" horiz-adv-x="772" 
d="M802 700l-303 -506v-194h-226v194l-303 506h242l174 -302l174 302h242z" />
    <glyph glyph-name="Z" unicode="Z" horiz-adv-x="675" 
d="M673 607q0 -46 -18 -77q-11 -21 -41 -49l-297 -283q-10 -10 -10 -13q0 -11 12 -11h347v-174h-538q-126 0 -126 92q0 78 68 143l278 265q11 10 11 15q0 11 -18 11h-308v174h543q97 0 97 -93z" />
    <glyph glyph-name="bracketleft" unicode="[" horiz-adv-x="411" 
d="M381 -164h-331v872h331v-130h-191v-612h191v-130z" />
    <glyph glyph-name="backslash" unicode="\" horiz-adv-x="518" 
d="M528 -170h-100l-438 910h100z" />
    <glyph glyph-name="bracketright" unicode="]" horiz-adv-x="411" 
d="M361 -164h-331v130h191v612h-191v130h331v-872z" />
    <glyph glyph-name="asciicircum" unicode="^" horiz-adv-x="612" 
d="M562 587l-68 -82l-150 117q-19 15 -36 15t-36 -15l-151 -117l-71 82l193 147q28 21 63 21t63 -21z" />
    <glyph glyph-name="underscore" unicode="_" horiz-adv-x="552" 
d="M522 0h-492v158h492v-158z" />
    <glyph glyph-name="grave" unicode="`" horiz-adv-x="339" 
d="M309 678l-87 -108l-192 158l87 109z" />
    <glyph glyph-name="a" unicode="a" horiz-adv-x="616" 
d="M586 113q0 -58 -26.5 -85.5t-89.5 -27.5h-312q-66 0 -97 28q-43 39 -43 149q0 99 46 134q30 23 94 23h232v8q0 22 -10 35q-16 21 -60 21h-266v132h351q84 0 131 -46q50 -49 50 -149v-222zM390 175v33h-139q-19 0 -28 -8t-9 -26q0 -16 9 -24t26 -8h102q20 0 29.5 7.5
t9.5 25.5z" />
    <glyph glyph-name="b" unicode="b" horiz-adv-x="611" 
d="M593 266q0 -119 -35 -178q-52 -88 -187 -88h-233q-56 0 -85 31q-23 25 -23 65v604h196v-170h142q136 0 189 -86q36 -59 36 -178zM393 268q0 54 -13 83q-18 41 -65 41h-89v-202q0 -29 9.5 -38.5t35.5 -9.5h40q51 0 68 36q14 29 14 90z" />
    <glyph glyph-name="c" unicode="c" horiz-adv-x="551" 
d="M533 0h-306q-109 0 -162 63q-47 55 -47 195q0 156 59 217q53 55 160 55h285v-134h-194q-83 0 -103 -71q-7 -25 -7 -63q0 -66 16 -92q22 -36 105 -36h194v-134z" />
    <glyph glyph-name="d" unicode="d" horiz-adv-x="610" 
d="M580 112q0 -51 -17 -76q-25 -36 -91 -36h-263q-125 0 -167 102q-24 58 -24 176q0 122 39 177q53 75 176 75h151v170h196v-588zM384 180v214h-86q-41 0 -62.5 -31t-21.5 -96t14 -92q20 -39 70 -39h47q20 0 29.5 8.5t9.5 35.5z" />
    <glyph glyph-name="e" unicode="e" horiz-adv-x="605" 
d="M587 322q0 -71 -32 -97q-19 -15 -52 -15h-289q-2 -26 9 -43.5t37 -22.5q13 -2 51 -2h257v-142h-335q-76 0 -108 9q-52 14 -79.5 59t-27.5 191q0 103 3 131q8 62 40.5 95t105.5 44q47 7 144 7q94 0 134 -5q56 -8 85 -31q57 -46 57 -178zM391 362q0 35 -60 39q-15 1 -28 1
q-61 0 -76.5 -15t-12.5 -53h145q32 0 32 28z" />
    <glyph glyph-name="f" unicode="f" horiz-adv-x="431" 
d="M427 390h-148v-390h-196v390h-79v140h79q4 91 71.5 135.5t272.5 42.5v-122q-106 -1 -126 -13q-25 -15 -22 -43h148v-140z" />
    <glyph glyph-name="g" unicode="g" horiz-adv-x="612" 
d="M582 59q0 -116 -42 -169q-56 -70 -188 -70h-297v128h236q54 0 72 14t23 38h-169q-54 0 -85 10q-46 15 -73 57q-41 63 -41 200q0 136 54.5 199.5t167.5 63.5h218q65 0 94.5 -25t29.5 -79v-367zM386 142v204q0 24 -13.5 33t-32.5 9h-22q-56 0 -78 -28t-22 -100
q0 -66 22.5 -92t89.5 -26h56z" />
    <glyph glyph-name="h" unicode="h" horiz-adv-x="625" 
d="M595 0h-196v270q0 59 -29.5 90.5t-81.5 31.5h-62v-392h-196v700h196v-170h117q64 0 91 -4q51 -8 88 -35q73 -54 73 -145v-346z" />
    <glyph glyph-name="i" unicode="i" horiz-adv-x="256" 
d="M226 583h-196v117h196v-117zM226 0h-196v530h196v-530z" />
    <glyph glyph-name="j" unicode="j" horiz-adv-x="336" 
d="M306 583h-196v117h196v-117zM306 41q0 -123 -77 -173q-66 -42 -269 -38v126q77 -1 110 25q40 32 40 101v448h196v-489z" />
    <glyph glyph-name="k" unicode="k" horiz-adv-x="635" 
d="M649 0h-220l-144 190q-31 41 -31 85q0 38 32 83l121 172h212l-161 -211q-14 -18 -14 -38q0 -23 20 -48zM226 0h-196v700h196v-700z" />
    <glyph glyph-name="l" unicode="l" horiz-adv-x="256" 
d="M226 0h-196v700h196v-700z" />
    <glyph glyph-name="m" unicode="m" horiz-adv-x="860" 
d="M830 0h-196v294q0 53 -21.5 75.5t-62.5 22.5h-22v-392h-196v392h-75q-18 0 -24.5 -7t-6.5 -28v-357h-196v435q0 35 19 59q29 36 105 36h455q108 0 164.5 -52.5t56.5 -143.5v-334z" />
    <glyph glyph-name="n" unicode="n" horiz-adv-x="626" 
d="M596 0h-196v269q0 63 -22 91q-25 32 -81 32h-35q-18 0 -27 -8t-9 -30v-354h-196v435q0 43 22 65q31 30 116 30h184q119 0 178 -47q66 -53 66 -157v-326z" />
    <glyph glyph-name="o" unicode="o" horiz-adv-x="648" 
d="M630 265q0 -155 -70 -217q-61 -54 -236 -54t-236 54q-70 62 -70 217t70 217q61 54 236 54t236 -54q70 -62 70 -217zM430 265q0 69 -19 95q-25 34 -87 34t-87 -34q-19 -26 -19 -95q0 -66 19 -93q25 -36 87 -36q81 0 99 64q7 25 7 65z" />
    <glyph glyph-name="p" unicode="p" horiz-adv-x="615" 
d="M597 281q0 -147 -43 -208q-51 -73 -183 -73h-145v-170h-196v599q0 56 36 82q27 19 75 19h246q100 0 153 -55q57 -59 57 -194zM397 266q0 54 -9 77q-18 45 -70 45h-69q-9 0 -16 -7t-7 -18v-221h86q51 0 73 41q12 23 12 83z" />
    <glyph glyph-name="q" unicode="q" horiz-adv-x="615" 
d="M585 -170h-196v170h-182q-92 0 -145 68q-44 57 -44 182q0 152 49 216t139 64h272q63 0 90 -38q17 -24 17 -74v-588zM389 142v209q0 22 -11.5 31.5t-35.5 9.5h-23q-67 0 -88 -40q-13 -24 -13 -92q0 -54 11 -77q20 -41 76 -41h84z" />
    <glyph glyph-name="r" unicode="r" horiz-adv-x="419" 
d="M419 392h-68q-70 0 -97.5 -36.5t-27.5 -102.5v-253h-196v307q0 121 62 172t197 51h130v-138z" />
    <glyph glyph-name="s" unicode="s" horiz-adv-x="552" 
d="M534 138q0 -78 -44 -113q-31 -25 -87 -25h-379v142h289q6 0 11.5 3.5t5.5 10.5t-8 11.5t-61 21.5l-114 37q-83 27 -109 70q-20 33 -20 89q0 58 25 95q34 50 123 50h354v-136h-288q-19 0 -23 -1q-9 -2 -9 -9q0 -8 11 -12q8 -4 40 -15l134 -45q94 -32 121.5 -71.5
t27.5 -102.5z" />
    <glyph glyph-name="t" unicode="t" horiz-adv-x="418" 
d="M420 394h-151v-121q0 -76 34 -106q28 -25 86 -25h29v-142h-114q-111 0 -164 36q-67 45 -67 130v228h-75v136h75v170h196v-170h151v-136z" />
    <glyph glyph-name="u" unicode="u" horiz-adv-x="634" 
d="M604 108q0 -57 -33 -84q-29 -24 -86 -24h-240q-94 0 -148 45q-67 56 -67 196v289h196v-264q0 -64 19 -91q23 -33 83 -33h36q23 0 33.5 10.5t10.5 32.5v345h196v-422z" />
    <glyph glyph-name="v" unicode="v" horiz-adv-x="628" 
d="M652 530l-224 -488q-22 -48 -114 -48t-114 48l-224 488h204l121 -306q7 -18 13 -18t13 18l121 306h204z" />
    <glyph glyph-name="w" unicode="w" horiz-adv-x="902" 
d="M926 530l-121 -430q-15 -52 -39 -75q-34 -31 -101 -31q-113 0 -136 77l-70 231q-5 16 -8 16t-8 -16l-70 -231q-23 -77 -136 -77q-67 0 -101 31q-24 23 -39 75l-121 430h186l80 -305q4 -16 10 -16q4 0 9 15l78 256q17 56 112 56t112 -56l78 -256q5 -15 9 -15q6 0 10 16
l80 305h186z" />
    <glyph glyph-name="x" unicode="x" horiz-adv-x="604" 
d="M628 0h-228l-98 150l-98 -150h-228l211 272l-194 258h223l86 -136l86 136h223l-194 -258z" />
    <glyph glyph-name="y" unicode="y" horiz-adv-x="634" 
d="M658 530l-317 -701h-196l83 171l-252 530h200l139 -336l147 336h196z" />
    <glyph glyph-name="z" unicode="z" horiz-adv-x="540" 
d="M538 433q0 -69 -48 -106l-222 -170q-8 -6 -8 -11q0 -4 9 -4h260v-142h-440q-43 0 -66 31q-21 27 -21 71q0 66 49 103l229 175q8 6 8 9q0 5 -10 5h-257v136h419q98 0 98 -97z" />
    <glyph glyph-name="braceleft" unicode="{" horiz-adv-x="329" 
d="M299 -136q-83 -4 -144 21q-82 34 -90 134q-3 38 -3 67v89q0 61 -52 66v86q52 5 52 66v89q0 29 3 67q8 100 90 134q61 25 144 21v-130q-48 0 -72.5 -19.5t-24.5 -62.5v-110q0 -76 -51 -94v-8q51 -18 51 -94v-110q0 -43 24.5 -62.5t72.5 -19.5v-130z" />
    <glyph glyph-name="bar" unicode="|" horiz-adv-x="200" 
d="M150 -170h-100v910h100v-910z" />
    <glyph glyph-name="braceright" unicode="}" horiz-adv-x="329" 
d="M319 241q-52 -5 -52 -66v-89q0 -29 -3 -67q-8 -100 -90 -134q-61 -25 -144 -21v130q48 0 72.5 19.5t24.5 62.5v110q0 76 51 94v8q-51 18 -51 94v110q0 43 -24.5 62.5t-72.5 19.5v130q83 4 144 -21q82 -34 90 -134q3 -38 3 -67v-89q0 -61 52 -66v-86z" />
    <glyph glyph-name="asciitilde" unicode="~" horiz-adv-x="644" 
d="M594 449q-39 -56 -85 -85t-99 -29q-38 0 -78 18l-47 21q-25 11 -61 11q-32 0 -58 -19q-19 -13 -36 -36l-80 69q39 54 88 81q40 22 80 22q36 0 74 -16l55 -23q33 -14 63 -14q43 0 71 25q20 18 33 41z" />
    <glyph glyph-name="currency" unicode="&#xa4;" horiz-adv-x="706" 
d="M656 91l-86 -86l-74 74q-62 -42 -142 -42q-79 0 -142 43l-76 -75l-86 86l74 75q-40 63 -40 138q0 80 42 145l-76 76l86 87l76 -76q64 41 142 41q79 0 141 -40l75 75l86 -87l-74 -75q42 -62 42 -143q0 -79 -42 -141zM453 307q0 41 -29.5 70t-69.5 29q-41 0 -70 -29
t-29 -70q0 -40 29 -69.5t70 -29.5q40 0 69.5 29.5t29.5 69.5z" />
    <glyph glyph-name="brokenbar" unicode="&#xa6;" horiz-adv-x="180" 
d="M140 440h-100v300h100v-300zM140 -63h-100v300h100v-300z" />
    <glyph glyph-name="section" unicode="&#xa7;" horiz-adv-x="526" 
d="M476 241q0 -78 -61 -112q-30 -17 -68 -17l59 -52q60 -53 60 -116q0 -60 -50 -93q-37 -24 -102 -24h-205v130h157q31 0 39 1q18 4 18 17q0 7 -35 37l-178 152q-60 51 -60 120q0 76 57 116q27 19 65 24l-67 58q-46 40 -46 100q0 50 35 84t111 34h211v-130h-176h-26
q-13 -2 -13 -13q0 -7 30 -32l180 -153q65 -55 65 -131zM334 259q0 30 -18 43l-38 28q-29 2 -48 -5q-38 -14 -38 -51q0 -31 21 -47l27 -21q23 -2 50 6q44 13 44 47z" />
    <glyph glyph-name="dieresis" unicode="&#xa8;" horiz-adv-x="701" 
d="M581 746h-182v119h182v-119zM314 746h-182v119h182v-119zM671 0h-504q-56 0 -85 24q-32 27 -32 88v480q0 52 30 80t85 28h503v-170h-346q-23 0 -34.5 -9.5t-11.5 -34.5v-53h382v-152h-382v-76q0 -17 10 -26t43 -9h342v-170z" />
    <glyph glyph-name="copyright" unicode="&#xa9;" horiz-adv-x="808" 
d="M758 351q0 -105 -20 -167q-28 -90 -104 -140q-79 -52 -230 -52t-228.5 51t-105.5 141q-20 62 -20 167q0 106 19 167q28 87 105 138q52 34 111 45q39 7 119 7t119 -7q59 -11 111 -45q77 -51 105 -138q19 -61 19 -167zM643 351q0 165 -78 217q-56 37 -161 37t-161 -37
q-78 -52 -78 -217q0 -164 78 -216q60 -40 161 -40t161 40q78 52 78 216zM541 177h-168q-78 0 -111 44t-33 133q0 96 37 138t110 42h152v-87h-104q-48 0 -64 -29q-9 -16 -9 -64q0 -44 9 -61q14 -27 56 -27h125v-89z" />
    <glyph glyph-name="guillemotleft" unicode="&#xab;" horiz-adv-x="636" 
d="M586 180l-128 -96l-102 133q-30 39 -30 64t30 64l102 133l128 -96l-54 -77q-11 -16 -11 -24t11 -24zM345 110l-124 -96l-145 189q-26 34 -26 78t26 78l145 189l124 -96l-97 -139q-11 -16 -11 -32t11 -32z" />
    <glyph glyph-name="logicalnot" unicode="&#xac;" horiz-adv-x="708" 
d="M658 101h-140v158h-468v130h608v-288z" />
    <glyph glyph-name="registered" unicode="&#xae;" horiz-adv-x="534" 
d="M484 492q0 -112 -49.5 -164.5t-167.5 -52.5q-60 0 -94 10q-52 14 -85 56q-38 49 -38 151q0 109 43 157q51 57 174 57q113 0 165 -49t52 -165zM417 488q0 89 -29.5 122.5t-120.5 33.5q-89 0 -119.5 -32.5t-30.5 -117.5q0 -82 22 -112q33 -45 128 -45q75 0 109 28
q41 34 41 123zM380 389h-86l-38 52q-14 19 -14 34q0 32 26 32h12q14 0 19 4.5t5 12.5v11q0 8 -4.5 13t-23.5 5h-28q-16 0 -19.5 -2.5t-3.5 -21.5v-140h-70v187q0 16 6 22.5t51 6.5h88q40 0 53 -8q23 -14 23 -68q0 -74 -47 -74h-11z" />
    <glyph glyph-name="degree" unicode="&#xb0;" horiz-adv-x="298" 
d="M268 649q0 -49 -34.5 -84t-84.5 -35q-49 0 -84 35t-35 84q0 50 35 84.5t84 34.5q50 0 84.5 -34.5t34.5 -84.5zM208 649q0 25 -17 42t-42 17t-42 -17t-17 -42t17 -42t42 -17t42 17t17 42z" />
    <glyph glyph-name="plusminus" unicode="&#xb1;" horiz-adv-x="708" 
d="M658 450h-236v-235h-136v235h-236v130h236v235h136v-235h236v-130zM658 23h-608v130h608v-130z" />
    <glyph glyph-name="mu1" unicode="&#xb5;" 
d="M620 0h-187v73q-25 -79 -100 -79q-74 0 -96 72v-243h-187v707h197v-300q0 -46 22 -71t65 -25q37 0 61 23q28 27 28 70v303h197v-530z" />
    <glyph glyph-name="paragraph" unicode="&#xb6;" horiz-adv-x="762" 
d="M732 570h-65v-740h-136v740h-62v-740h-136v459h-94q-104 0 -151 61q-38 49 -38 138q0 124 66 176q46 36 142 36h474v-130zM333 419v151h-69q-40 0 -57 -21t-17 -55q0 -26 10 -44q17 -31 61 -31h72z" />
    <glyph glyph-name="middot" unicode="&#xb7;" horiz-adv-x="298" 
d="M248 250h-198v180h198v-180z" />
    <glyph glyph-name="cedilla" unicode="&#xb8;" horiz-adv-x="605" 
d="M522 598h-173v118h173v-118zM261 598h-173v118h173v-118zM587 322q0 -71 -32 -97q-19 -15 -52 -15h-289q-2 -26 9 -43.5t37 -22.5q13 -2 51 -2h257v-142h-335q-76 0 -108 9q-52 14 -79.5 59t-27.5 191q0 103 3 131q8 62 40.5 95t105.5 44q47 7 144 7q94 0 134 -5
q56 -8 85 -31q57 -46 57 -178zM391 362q0 35 -60 39q-15 1 -28 1q-61 0 -76.5 -15t-12.5 -53h145q32 0 32 28z" />
    <glyph glyph-name="onesuperior" unicode="&#xb9;" horiz-adv-x="1206" 
d="M1156 502q0 -70 -27.5 -96.5t-121.5 -26.5q-93 0 -121 26t-28 97v83q0 69 28 96t121 27t121 -27t28 -96v-83zM1153 230h-294v80h294v-80zM776 117q0 -63 -42 -96q-38 -29 -102 -29q-100 0 -145 69l-231 357q-11 17 -18 17q-14 0 -14 -20v-415h-174v584q0 63 45 96
q40 28 104 28q99 0 141 -65l233 -360q11 -17 18 -17q11 0 11 17v417h174v-583zM1066 535v19q0 47 -11.5 62.5t-47.5 15.5t-47.5 -15.5t-11.5 -62.5v-19q0 -49 12.5 -63.5t46.5 -14.5q41 0 50 21q9 18 9 57z" />
    <glyph glyph-name="guillemotright" unicode="&#xbb;" horiz-adv-x="636" 
d="M586 281q0 -44 -26 -78l-145 -189l-124 96l97 139q11 16 11 32t-11 32l-97 139l124 96l145 -189q26 -34 26 -78zM310 281q0 -25 -30 -64l-102 -133l-128 96l54 77q11 16 11 24t-11 24l-54 77l128 96l102 -133q30 -39 30 -64z" />
    <glyph glyph-name="Agrave" unicode="&#xc0;" horiz-adv-x="798" 
d="M818 0h-238l-55 144h-252l-55 -144h-238l259 623q18 44 48 62q37 23 112 23q61 0 93 -13q45 -19 67 -72zM471 304l-63 177q-5 15 -9 15t-9 -15l-63 -177h144z" />
    <glyph glyph-name="Aacute" unicode="&#xc1;" horiz-adv-x="784" 
d="M754 223q0 -118 -39 -169q-41 -54 -114 -54h-453q-43 0 -70.5 27.5t-27.5 70.5v490q0 112 109 112h554v-174h-394q-29 0 -36 -9.5t-7 -32.5v-50h323q75 0 115 -46t40 -165zM522 230q0 29 -15.5 40.5t-49.5 11.5h-181v-62q0 -33 12 -41q7 -5 36 -5h133q38 0 51.5 12.5
t13.5 43.5z" />
    <glyph glyph-name="Acircumflex" unicode="&#xc2;" horiz-adv-x="775" 
d="M745 196q0 -102 -42 -147q-30 -33 -73 -43q-26 -6 -84 -6h-366q-75 0 -104 33q-26 30 -26 78v476q0 50 24 78q30 35 79 35h380q108 0 152 -46t44 -150q0 -71 -35 -109q-29 -32 -70 -35v-4q50 -4 83 -36q38 -37 38 -124zM505 482q0 18 -12 31t-50 13h-129q-20 0 -29 -8
t-9 -30v-57h168q44 0 55 21q6 12 6 30zM519 229q0 18 -9 30q-15 20 -58 20h-176v-53q0 -33 8.5 -42.5t41.5 -9.5h120q48 0 60.5 14.5t12.5 40.5z" />
    <glyph glyph-name="Atilde" unicode="&#xc3;" horiz-adv-x="672" 
d="M682 526h-359q-33 0 -40 -9t-7 -36v-481h-226v572q0 64 28 94q32 34 83 34h521v-174z" />
    <glyph glyph-name="Adieresis" unicode="&#xc4;" horiz-adv-x="818" 
d="M828 0h-838v174h69l189 455q33 79 161 79t161 -79l188 -455h70v-174zM532 174l-112 304q-7 18 -11 18t-11 -18l-112 -304h246z" />
    <glyph glyph-name="Aring" unicode="&#xc5;" horiz-adv-x="691" 
d="M671 0h-504q-56 0 -85 24q-32 27 -32 88v480q0 52 30 80t85 28h503v-170h-346q-23 0 -34.5 -9.5t-11.5 -34.5v-53h382v-152h-382v-76q0 -17 10 -26t43 -9h342v-170z" />
    <glyph glyph-name="AE" unicode="&#xc6;" horiz-adv-x="1200" 
d="M1220 0h-274l-170 266q-41 64 -41 96q0 26 32 78l161 260h260l-204 -288q-27 -38 -27 -52q0 -20 34 -64zM713 0h-226v700h226v-700zM465 362q0 -32 -41 -96l-170 -266h-274l229 296q34 44 34 64q0 13 -27 52l-200 288h260l157 -260q32 -53 32 -78z" />
    <glyph glyph-name="Ccedilla" unicode="&#xc7;" horiz-adv-x="708" 
d="M678 189q0 -115 -60 -158q-33 -24 -96 -29q-18 -2 -95 -2h-387v174h314q57 0 71 8q21 12 21 45q0 29 -19 42q-13 9 -72 9h-302v152h297q58 0 71.5 12.5t13.5 40.5q0 30 -19 38q-11 5 -63 5h-309v174h388q69 0 100 -6q55 -10 87 -43q40 -42 40 -144q0 -82 -39 -119
q-26 -24 -63 -31v-4q69 3 100 -51q21 -36 21 -113z" />
    <glyph glyph-name="Egrave" unicode="&#xc8;" horiz-adv-x="862" 
d="M812 0h-230l10 411q1 26 -10 26q-6 0 -26 -34l-199 -340q-42 -71 -151 -71q-93 0 -130 53q-26 38 -26 115v540h230l-10 -401v-11q0 -24 12 -24q6 0 20 25l193 337q47 82 151 82q166 0 166 -173v-535z" />
    <glyph glyph-name="Eacute" unicode="&#xc9;" horiz-adv-x="862" 
d="M688 888q-30 -88 -89 -132q-64 -48 -171 -48t-171 48q-59 44 -89 132h141q14 -32 36 -49q32 -25 83 -25q53 0 84 25q19 15 35 49h141zM812 0h-230l10 411q1 26 -10 26q-6 0 -26 -34l-199 -340q-42 -71 -151 -71q-93 0 -130 53q-26 38 -26 115v540h230l-10 -401
q-1 -35 12 -35q6 0 20 25l193 337q47 82 151 82q166 0 166 -173v-535z" />
    <glyph glyph-name="Ecircumflex" unicode="&#xca;" horiz-adv-x="813" 
d="M843 0h-272l-212 271q-41 52 -41 87q0 33 32 78l188 264h268l-243 -289q-29 -34 -29 -52q0 -23 37 -63zM296 0h-226v700h226v-700z" />
    <glyph glyph-name="Edieresis" unicode="&#xcb;" horiz-adv-x="780" 
d="M810 0h-240l-169 463q-8 17 -11 17q-2 0 -11 -17l-169 -463h-240l269 636q30 72 151 72t151 -72z" />
    <glyph glyph-name="Igrave" unicode="&#xcc;" horiz-adv-x="1071" 
d="M1021 0h-228l8 426q0 23 -9 23q-6 0 -14 -25l-108 -338q-15 -47 -36 -66q-32 -28 -99 -28t-99 28q-21 19 -36 66l-108 338q-8 25 -14 25q-8 0 -8 -23l7 -426h-227v585q0 123 172 123q61 0 98 -17q57 -27 81 -99l113 -340q11 -32 21 -32t21 32l113 340q24 72 81 99
q37 17 99 17q172 0 172 -123v-585z" />
    <glyph glyph-name="Iacute" unicode="&#xcd;" horiz-adv-x="806" 
d="M756 0h-226v278h-254v-278h-226v700h226v-248h254v248h226v-700z" />
    <glyph glyph-name="Icircumflex" unicode="&#xce;" horiz-adv-x="830" 
d="M800 350q0 -96 -11 -151q-18 -88 -67.5 -134.5t-142.5 -62.5q-58 -10 -164 -10t-164 10q-93 16 -142.5 62.5t-67.5 134.5q-11 55 -11 151q0 97 11 152q18 88 68 134t141 62q59 10 165 10t165 -10q91 -16 141 -62t68 -134q11 -55 11 -152zM568 350q0 55 -3 75
q-5 31 -23 58q-22 32 -53 43q-24 8 -74 8q-49 0 -74 -8q-32 -11 -53 -43q-26 -39 -26 -133q0 -93 26 -133q21 -32 53 -43q25 -8 74 -8q50 0 74 8q31 11 53 43q26 38 26 133z" />
    <glyph glyph-name="Idieresis" unicode="&#xcf;" horiz-adv-x="800" 
d="M750 0h-226v486q0 26 -10 36t-35 10h-158q-25 0 -35 -10t-10 -36v-486h-226v599q0 44 28.5 72.5t103.5 28.5h438q73 0 103 -30q27 -27 27 -71v-599z" />
    <glyph glyph-name="Eth" unicode="&#xd0;" horiz-adv-x="787" 
d="M757 460q0 -166 -63 -220q-44 -38 -123 -38h-295v-202h-226v568q0 64 28 96q32 36 93 36h387q101 0 147 -49q52 -56 52 -191zM531 455q0 38 -19.5 54.5t-71.5 16.5h-125q-39 0 -39 -41v-109h162q58 0 75.5 18.5t17.5 60.5z" />
    <glyph glyph-name="Ntilde" unicode="&#xd1;" horiz-adv-x="663" 
d="M643 0h-310q-88 0 -139 16q-60 20 -100 70q-64 80 -64 255q0 190 61 268q72 91 245 91h296v-174h-187q-70 0 -96 -7q-43 -10 -64 -48q-23 -41 -23 -126q0 -84 17 -116q20 -37 68 -48q29 -7 102 -7h194v-174z" />
    <glyph glyph-name="Ograve" unicode="&#xd2;" horiz-adv-x="706" 
d="M716 526h-250v-526h-226v526h-250v174h726v-174z" />
    <glyph glyph-name="Oacute" unicode="&#xd3;" horiz-adv-x="751" 
d="M771 700l-377 -700h-246l112 199l-280 501h252l146 -298l147 298h246z" />
    <glyph glyph-name="Ocircumflex" unicode="&#xd4;" horiz-adv-x="996" 
d="M966 359q0 -142 -31 -204q-26 -52 -81 -70q-38 -12 -108 -12h-135v-73h-226v73h-135q-70 0 -108 12q-55 18 -81 70q-31 62 -31 204t38 205q28 47 84 62q39 11 126 11h107v63h226v-63h107q87 0 126 -11q56 -15 84 -62q38 -63 38 -205zM734 354q0 67 -23 88t-72 21h-28
v-216h20q78 0 97 53q6 20 6 54zM385 247v216h-28q-68 0 -86 -41q-9 -20 -9 -68q0 -36 8 -58q19 -49 95 -49h20z" />
    <glyph glyph-name="Otilde" unicode="&#xd5;" horiz-adv-x="754" 
d="M774 0h-270l-127 197l-127 -197h-270l265 355l-257 345h270l119 -187l119 187h270l-257 -345z" />
    <glyph glyph-name="Odieresis" unicode="&#xd6;" horiz-adv-x="842" 
d="M852 0h-666q-38 0 -52 2q-28 5 -48 24q-36 33 -36 102v572h226v-461q0 -43 10 -54t45 -11h201v526h226v-526h94v-174z" />
    <glyph glyph-name="multiply" unicode="&#xd7;" horiz-adv-x="794" 
d="M744 0h-226v277h-317q-93 0 -134 73q-27 48 -27 120v230h226v-174q0 -50 14 -62.5t67 -12.5h171v249h226v-700z" />
    <glyph glyph-name="Oslash" unicode="&#xd8;" horiz-adv-x="1132" 
d="M1082 105q0 -50 -28.5 -77.5t-81.5 -27.5h-812q-51 0 -80.5 27.5t-29.5 77.5v595h226v-477q0 -28 8.5 -38.5t32.5 -10.5h136v526h226v-526h136q29 0 36 17q5 10 5 32v477h226v-595z" />
    <glyph glyph-name="Ugrave" unicode="&#xd9;" horiz-adv-x="1166" 
d="M1176 0h-1016q-51 0 -80.5 27.5t-29.5 77.5v595h226v-477q0 -28 8.5 -38.5t32.5 -10.5h136v526h226v-526h177v526h226v-526h94v-174z" />
    <glyph glyph-name="Uacute" unicode="&#xda;" horiz-adv-x="868" 
d="M838 220q0 -103 -33 -152q-46 -68 -140 -68h-434q-41 0 -70.5 33.5t-29.5 98.5v347q0 26 -8.5 36.5t-25.5 10.5h-107v174h252q56 0 87 -34q28 -30 28 -77v-142h314q102 0 140 -80q27 -56 27 -147zM606 236q0 39 -27 49q-10 4 -58 4h-164v-73q0 -23 6 -31q8 -11 37 -11
h117q56 0 66 6q23 13 23 56z" />
    <glyph glyph-name="Ucircumflex" unicode="&#xdb;" horiz-adv-x="1097" 
d="M1047 0h-226v700h226v-700zM757 220q0 -103 -33 -152q-46 -68 -140 -68h-434q-41 0 -70.5 33.5t-29.5 98.5v568h226v-253h314q102 0 140 -80q27 -56 27 -147zM525 236q0 39 -27 49q-10 4 -58 4h-164v-73q0 -23 6 -31q8 -11 37 -11h117q56 0 66 6q23 13 23 56z" />
    <glyph glyph-name="Udieresis" unicode="&#xdc;" horiz-adv-x="787" 
d="M757 220q0 -103 -33 -152q-46 -68 -140 -68h-434q-41 0 -70.5 33.5t-29.5 98.5v568h226v-253h314q102 0 140 -80q27 -56 27 -147zM525 236q0 39 -27 49q-10 4 -58 4h-164v-73q0 -23 6 -31q8 -11 37 -11h117q56 0 66 6q23 13 23 56z" />
    <glyph glyph-name="Yacute" unicode="&#xdd;" horiz-adv-x="682" 
d="M652 356q0 -115 -16 -179q-18 -75 -66 -117q-68 -60 -196 -60h-344v174h209q81 0 121 16q62 25 60 88h-367v158h367q-9 46 -51 68t-117 22h-213v174h335q138 0 208 -71t70 -273z" />
    <glyph glyph-name="Thorn" unicode="&#xde;" horiz-adv-x="1169" 
d="M1139 350q0 -96 -11 -151q-18 -88 -67.5 -134.5t-142.5 -62.5q-58 -10 -164 -10t-164 10q-93 16 -142 62q-38 35 -59 98q-20 57 -20 119h-93v-281h-226v700h226v-264h95q2 131 77 200q50 46 142 62q58 10 164 10t165 -10q91 -16 141 -62t68 -134q11 -55 11 -152zM907 350
q0 55 -3 75q-5 31 -23 58q-22 32 -53 43q-24 8 -74 8q-49 0 -74 -8q-32 -11 -53 -43q-26 -39 -26 -133q0 -93 26 -133q21 -32 53 -43q25 -8 74 -8q50 0 74 8q31 11 53 43q26 38 26 133z" />
    <glyph glyph-name="germandbls" unicode="&#xdf;" horiz-adv-x="791" 
d="M741 0h-226v480q0 23 -12.5 34.5t-35.5 11.5h-142q-34 0 -49 -19.5t-15 -56.5q0 -39 8 -51q16 -30 60 -30h46q102 0 102 -69v-16q0 -40 -43 -97l-142 -187h-272l195 209h-30q-81 0 -119 67q-31 55 -31 190q0 112 34 166q27 42 74 57q33 11 94 11h402q47 0 77 -32
q25 -27 25 -82v-586z" />
    <glyph glyph-name="agrave" unicode="&#xe0;" horiz-adv-x="616" 
d="M586 113q0 -58 -26.5 -85.5t-89.5 -27.5h-312q-66 0 -97 28q-43 39 -43 149q0 99 46 134q30 23 94 23h232v8q0 22 -10 35q-16 21 -60 21h-266v132h351q84 0 131 -46q50 -49 50 -149v-222zM390 175v33h-139q-19 0 -28 -8t-9 -26q0 -16 9 -24t26 -8h102q20 0 29.5 7.5
t9.5 25.5z" />
    <glyph glyph-name="aacute" unicode="&#xe1;" horiz-adv-x="627" 
d="M609 248q0 -124 -38 -180q-34 -50 -100 -64q-44 -10 -156 -10q-106 0 -153 11q-74 16 -105 68q-27 45 -27 146v272q0 78 32 127q28 42 80 64q44 18 90 18h349v-134h-233q-69 0 -95 -21q-29 -24 -27 -65h168q131 0 180 -70q35 -50 35 -162zM409 238q0 56 -11 78
q-19 38 -65 38h-107v-146q0 -52 46 -66q18 -6 41 -6q43 0 63 12q33 20 33 90z" />
    <glyph glyph-name="acircumflex" unicode="&#xe2;" horiz-adv-x="616" 
d="M598 148q0 -79 -37 -114q-25 -23 -65 -30q-23 -4 -77 -4h-259q-75 0 -101 22q-29 24 -29 75v326q0 57 33 84q28 23 102 23h251q55 0 78 -4q45 -7 69 -32q32 -33 32 -101q0 -62 -29 -89.5t-77 -30.5v-2q50 -4 79.5 -32.5t29.5 -90.5zM401 368q0 14 -11 21t-39 7h-85
q-40 0 -40 -34v-30h119q33 0 44.5 8t11.5 28zM402 175q0 19 -11 27t-42 8h-123v-36q0 -16 6.5 -24t24.5 -8h93q31 0 41.5 9.5t10.5 23.5z" />
    <glyph glyph-name="atilde" unicode="&#xe3;" horiz-adv-x="531" 
d="M551 396h-288q-16 0 -26.5 -11.5t-10.5 -35.5v-349h-196v429q0 48 15 69q23 32 67 32h439v-134z" />
    <glyph glyph-name="adieresis" unicode="&#xe4;" horiz-adv-x="644" 
d="M654 0h-664v142h53l159 335q28 59 120 59t120 -59l159 -335h53v-142zM415 142l-84 218q-5 11 -9 11q-3 0 -9 -11l-84 -218h186z" />
    <glyph glyph-name="aring" unicode="&#xe5;" horiz-adv-x="605" 
d="M587 322q0 -71 -32 -97q-19 -15 -52 -15h-289q-2 -26 9 -43.5t37 -22.5q13 -2 51 -2h257v-142h-335q-76 0 -108 9q-52 14 -79.5 59t-27.5 191q0 103 3 131q8 62 40.5 95t105.5 44q47 7 144 7q94 0 134 -5q56 -8 85 -31q57 -46 57 -178zM391 362q0 35 -60 39q-15 1 -28 1
q-61 0 -76.5 -15t-12.5 -53h145q32 0 32 28z" />
    <glyph glyph-name="ae" unicode="&#xe6;" horiz-adv-x="938" 
d="M958 0h-217l-132 211q-25 40 -25 58t30 72l105 189h215l-127 -207q-25 -41 -25 -49q0 -14 25 -51zM562 0h-186v530h186v-530zM354 269q0 -18 -25 -58l-132 -211h-217l151 223q25 37 25 51q0 8 -25 49l-127 207h215l105 -189q30 -54 30 -72z" />
    <glyph glyph-name="ccedilla" unicode="&#xe7;" horiz-adv-x="581" 
d="M561 144q0 -78 -43 -114q-36 -30 -126 -30h-362v142h279q56 0 56 33q0 35 -58 35h-262v122h263q55 0 55 32t-54 32h-269v134h351q94 0 130 -32t36 -101q0 -59 -29 -91t-77 -30v-4q47 2 78.5 -33t31.5 -95z" />
    <glyph glyph-name="egrave" unicode="&#xe8;" horiz-adv-x="671" 
d="M641 0h-196l10 275q1 16 -8 16q-5 0 -18 -16l-188 -235q-23 -29 -46 -38q-18 -8 -53 -8q-112 0 -112 100v436h196l-10 -275q-1 -15 9 -15q6 0 18 15l192 241q32 40 92 40q114 0 114 -106v-430z" />
    <glyph glyph-name="eacute" unicode="&#xe9;" horiz-adv-x="671" 
d="M561 720q-17 -81 -67 -126q-53 -48 -159 -48t-159 48q-50 45 -67 126h129q7 -25 24 -43q26 -28 73 -28t73 28q17 18 24 43h129zM641 0h-196l10 275q1 16 -8 16q-5 0 -18 -16l-188 -235q-23 -29 -46 -38q-18 -8 -53 -8q-112 0 -112 100v436h196l-10 -275q-1 -15 9 -15
q6 0 18 15l192 241q32 40 92 40q114 0 114 -106v-430z" />
    <glyph glyph-name="ecircumflex" unicode="&#xea;" horiz-adv-x="617" 
d="M647 0h-220l-155 213q-26 36 -26 59q0 24 32 70l130 188h216l-157 -202q-29 -37 -29 -55t23 -46zM226 0h-196v530h196v-530z" />
    <glyph glyph-name="edieresis" unicode="&#xeb;" 
d="M680 0h-196l-139 342q-6 14 -10 14t-10 -14l-139 -342h-196l235 489q23 47 110 47t110 -47z" />
    <glyph glyph-name="igrave" unicode="&#xec;" horiz-adv-x="820" 
d="M790 0h-196l10 286q0 12 -7 12q-6 0 -11 -14l-84 -238q-18 -52 -92 -52t-92 52l-84 237q-5 14 -11 14q-7 0 -7 -12l10 -285h-196v435q0 49 44 77q39 24 97 24q107 0 137 -82l83 -230q8 -23 19 -23t19 23l83 230q30 82 137 82q58 0 97 -24q44 -28 44 -77v-435z" />
    <glyph glyph-name="iacute" unicode="&#xed;" horiz-adv-x="626" 
d="M596 0h-196v202h-174v-202h-196v530h196v-186h174v186h196v-530z" />
    <glyph glyph-name="icircumflex" unicode="&#xee;" horiz-adv-x="648" 
d="M630 265q0 -155 -70 -217q-61 -54 -236 -54t-236 54q-70 62 -70 217t70 217q61 54 236 54t236 -54q70 -62 70 -217zM430 265q0 69 -19 95q-25 34 -87 34t-87 -34q-19 -26 -19 -95q0 -66 19 -93q25 -36 87 -36q81 0 99 64q7 25 7 65z" />
    <glyph glyph-name="idieresis" unicode="&#xef;" horiz-adv-x="630" 
d="M600 0h-196v363q0 18 -9 25.5t-26 7.5h-108q-16 0 -25.5 -7.5t-9.5 -25.5v-363h-196v428q0 48 25 73q28 29 95 29h330q67 0 95 -29q25 -25 25 -73v-428z" />
    <glyph glyph-name="eth" unicode="&#xf0;" horiz-adv-x="615" 
d="M597 281q0 -147 -43 -208q-51 -73 -183 -73h-145v-170h-196v599q0 56 36 82q27 19 75 19h246q100 0 153 -55q57 -59 57 -194zM397 266q0 54 -9 77q-18 45 -70 45h-69q-9 0 -16 -7t-7 -18v-221h86q51 0 73 41q12 23 12 83z" />
    <glyph glyph-name="ntilde" unicode="&#xf1;" horiz-adv-x="551" 
d="M533 0h-306q-109 0 -162 63q-47 55 -47 195q0 156 59 217q53 55 160 55h285v-134h-194q-83 0 -103 -71q-7 -25 -7 -63q0 -66 16 -92q22 -36 105 -36h194v-134z" />
    <glyph glyph-name="ograve" unicode="&#xf2;" horiz-adv-x="592" 
d="M592 390h-198v-390h-196v390h-198v140h592v-140z" />
    <glyph glyph-name="oacute" unicode="&#xf3;" horiz-adv-x="662" 
d="M672 530l-317 -701h-196l83 171l-252 530h209l135 -325l142 325h196z" />
    <glyph glyph-name="ocircumflex" unicode="&#xf4;" horiz-adv-x="908" 
d="M890 260q0 -129 -44 -190q-50 -70 -172 -70h-123v-170h-194v170h-123q-122 0 -172 70q-44 61 -44 190t37 189q50 81 175 81h127v170h194v-170h127q125 0 175 -81q37 -60 37 -189zM694 262q0 67 -15 91q-24 39 -107 39h-21v-254h19q47 0 69 7q34 12 46 48q9 25 9 69z
M357 138v254h-21q-83 0 -107 -39q-15 -24 -15 -91q0 -56 15.5 -83.5t49.5 -36.5q17 -4 59 -4h19z" />
    <glyph glyph-name="otilde" unicode="&#xf5;" horiz-adv-x="632" 
d="M642 0h-228l-98 150l-98 -150h-228l211 272l-194 258h223l86 -136l86 136h223l-194 -258z" />
    <glyph glyph-name="odieresis" unicode="&#xf6;" 
d="M680 0h-566q-37 0 -59 20q-25 23 -25 62v448h196v-347q0 -23 9 -32t33 -9h133v388h196v-388h83v-142z" />
    <glyph glyph-name="divide" unicode="&#xf7;" horiz-adv-x="626" 
d="M596 0h-196v190h-241q-66 0 -105 54q-28 39 -28 105v181h196v-110q0 -45 8 -58q14 -22 64 -22h106v190h196v-530z" />
    <glyph glyph-name="oslash" unicode="&#xf8;" horiz-adv-x="864" 
d="M834 94q0 -49 -21 -70q-25 -24 -80 -24h-602q-57 0 -79 23t-22 71v436h194v-352q0 -18 6 -26t21 -8h84v386h194v-386h84q15 0 21 8t6 26v352h194v-436z" />
    <glyph glyph-name="ugrave" unicode="&#xf9;" horiz-adv-x="918" 
d="M918 0h-787q-59 0 -80 24t-21 70v436h194v-351q0 -19 5.5 -27t21.5 -8h83v386h194v-386h111v386h194v-386h85v-144z" />
    <glyph glyph-name="uacute" unicode="&#xfa;" horiz-adv-x="694" 
d="M676 163q0 -92 -41 -132q-32 -31 -95 -31h-329q-52 0 -78.5 27.5t-26.5 77.5v251q0 18 -8.5 28.5t-27.5 10.5h-70v135h214q32 0 56 -20q32 -26 32 -75v-82h239q67 0 101 -43.5t34 -146.5zM476 184q0 23 -11 31t-41 8h-122v-37q0 -44 42 -44h80q29 0 40.5 8t11.5 34z" />
    <glyph glyph-name="ucircumflex" unicode="&#xfb;" horiz-adv-x="894" 
d="M864 0h-196v530h196v-530zM600 163q0 -92 -41 -132q-32 -31 -95 -31h-329q-52 0 -78.5 27.5t-26.5 77.5v425h196v-177h239q67 0 101 -43.5t34 -146.5zM400 184q0 23 -10 31q-16 8 -42 8h-122v-37q0 -44 42 -44h80q29 0 40.5 8t11.5 34z" />
    <glyph glyph-name="udieresis" unicode="&#xfc;" horiz-adv-x="618" 
d="M600 163q0 -92 -41 -132q-32 -31 -95 -31h-329q-52 0 -78.5 27.5t-26.5 77.5v425h196v-177h239q67 0 101 -43.5t34 -146.5zM400 184q0 23 -10 31q-16 8 -42 8h-122v-37q0 -44 42 -44h80q29 0 40.5 8t11.5 34z" />
    <glyph glyph-name="yacute" unicode="&#xfd;" horiz-adv-x="555" 
d="M537 274q0 -148 -47 -209q-50 -65 -177 -65h-295v142h184q100 0 123 29q12 15 12 41h-305v124h305q-4 26 -23 42q-25 20 -108 20h-181v132h318q94 0 144 -58t50 -198z" />
    <glyph glyph-name="thorn" unicode="&#xfe;" horiz-adv-x="929" 
d="M899 268q0 -160 -64 -220q-57 -54 -240 -54q-178 0 -240 54t-59 163h-76v-211h-190v530h190v-195h76q3 100 59 149q38 34 110 45q44 7 130 7q183 0 240 -52q64 -58 64 -216zM703 263q0 70 -17 95q-24 36 -91 36q-66 0 -91 -36q-16 -23 -16 -95q0 -64 17 -89
q26 -38 90 -38t90 38q18 26 18 89z" />
    <glyph glyph-name="ydieresis" unicode="&#xff;" horiz-adv-x="621" 
d="M591 0h-196v351q0 28 -9.5 36.5t-36.5 8.5h-88q-21 0 -32.5 -9.5t-11.5 -30.5t9 -29t31 -8h48q64 0 64 -55q0 -38 -27 -79l-122 -185h-210l143 181q5 5 5 11t-13 6h-13q-45 0 -76 39q-35 45 -35 133q0 87 45 128q35 32 85 32h335q45 0 72 -23q33 -28 33 -93v-414z" />
    <glyph glyph-name="mu" unicode="&#x3bc;" 
d="M620 0h-187v73q-25 -79 -100 -79q-74 0 -96 72v-243h-187v707h197v-300q0 -46 22 -71t65 -25q37 0 61 23q28 27 28 70v303h197v-530z" />
    <glyph glyph-name="afii10023" unicode="&#x401;" horiz-adv-x="701" 
d="M581 746h-182v119h182v-119zM314 746h-182v119h182v-119zM671 0h-504q-56 0 -85 24q-32 27 -32 88v480q0 52 30 80t85 28h503v-170h-346q-23 0 -34.5 -9.5t-11.5 -34.5v-53h382v-152h-382v-76q0 -17 10 -26t43 -9h342v-170z" />
    <glyph glyph-name="afii10051" unicode="&#x402;" horiz-adv-x="895" 
d="M845 232q0 -130 -39 -179q-42 -53 -134 -53h-184v174h60q46 0 58 16q7 9 7 40q0 33 -12.5 45.5t-40.5 12.5h-193v-288h-226v526h-161v174h678v-174h-291v-88h315q91 0 133 -63q30 -45 30 -143z" />
    <glyph glyph-name="afii10052" unicode="&#x403;" horiz-adv-x="632" 
d="M438 898l-192 -158l-87 108l192 159zM632 526h-359q-33 0 -40 -9t-7 -36v-481h-226v572q0 64 28 94q32 34 83 34h521v-174z" />
    <glyph glyph-name="afii10053" unicode="&#x404;" horiz-adv-x="622" 
d="M622 0h-344q-128 0 -196 60q-48 42 -66 117q-16 64 -16 179q0 202 70 273t208 71h335v-174h-213q-75 0 -117 -22t-51 -68h367v-158h-367q-2 -63 60 -88q40 -16 121 -16h209v-174z" />
    <glyph glyph-name="afii10054" unicode="&#x405;" horiz-adv-x="702" 
d="M682 193q0 -94 -34 -139q-27 -35 -68 -47q-25 -7 -73 -7h-480v174h388q39 0 39 22t-45 35l-271 76q-51 14 -80 53q-38 51 -38 156q0 96 44 140t120 44h462v-174h-356q-29 0 -37 -4q-11 -5 -11 -19q0 -22 59 -38l236 -63q65 -17 97 -49q48 -47 48 -160z" />
    <glyph glyph-name="afii10055" unicode="&#x406;" horiz-adv-x="326" 
d="M276 0h-226v700h226v-700z" />
    <glyph glyph-name="afii10056" unicode="&#x407;" horiz-adv-x="394" 
d="M414 746h-178v129h178v-129zM158 746h-178v129h178v-129zM310 0h-226v700h226v-700z" />
    <glyph glyph-name="afii10057" unicode="&#x408;" horiz-adv-x="512" 
d="M462 258q0 -120 -64 -185q-72 -73 -189 -73h-229v174h101q76 0 111 28q44 35 44 132v366h226v-442z" />
    <glyph glyph-name="afii10058" unicode="&#x409;" horiz-adv-x="1294" 
d="M1244 218q0 -101 -33 -150q-46 -68 -140 -68h-434q-41 0 -70.5 33.5t-29.5 98.5v379q0 18 -11 18q-7 0 -13 -11l-276 -518h-257l402 649q21 34 57.5 46.5t119.5 12.5q119 0 161.5 -24t42.5 -92v-155h314q103 0 140 -70q27 -50 27 -149zM1012 229q0 36 -26 46q-11 4 -59 4
h-164v-63q0 -22 7 -32t36 -10h117q55 0 66 6q23 13 23 49z" />
    <glyph glyph-name="afii10059" unicode="&#x40a;" horiz-adv-x="1307" 
d="M1257 218q0 -102 -33 -150q-47 -68 -140 -68h-434q-41 0 -70.5 33.5t-29.5 98.5v148h-254v-280h-226v700h226v-248h254v248h226v-248h314q101 0 140 -85q27 -58 27 -149zM1025 229q0 37 -26 47q-11 4 -59 4h-164v-64q0 -21 6.5 -31.5t36.5 -10.5h117q55 0 66 6
q23 13 23 49z" />
    <glyph glyph-name="afii10060" unicode="&#x40b;" horiz-adv-x="889" 
d="M839 0h-226v237q0 29 -13 40t-47 11h-186v-288h-226v526h-161v174h678v-174h-291v-88h325q68 0 104 -30q43 -36 43 -119v-289z" />
    <glyph glyph-name="afii10061" unicode="&#x40c;" horiz-adv-x="773" 
d="M492 898l-192 -158l-87 108l192 159zM773 0h-272l-212 271q-41 52 -41 87q0 33 32 78l188 264h268l-243 -289q-29 -34 -29 -52q0 -23 37 -63zM226 0h-226v700h226v-700z" />
    <glyph glyph-name="afii10062" unicode="&#x40e;" horiz-adv-x="791" 
d="M655 910q-30 -88 -89 -132q-64 -48 -171 -48t-171 48q-59 44 -89 132h141q14 -32 36 -49q32 -25 83 -25q53 0 84 25q19 15 35 49h141zM791 700l-377 -700h-246l112 199l-280 501h252l146 -298l147 298h246z" />
    <glyph glyph-name="afii10145" unicode="&#x40f;" horiz-adv-x="806" 
d="M756 120q0 -65 -32.5 -92.5t-84.5 -27.5h-123v-170h-226v170h-123q-52 0 -83 26q-34 29 -34 94v580h226v-484q0 -19 6 -29q8 -13 31 -13h180q21 0 31 13q6 8 6 29v484h226v-580z" />
    <glyph glyph-name="afii10017" unicode="&#x410;" horiz-adv-x="798" 
d="M818 0h-238l-55 144h-252l-55 -144h-238l259 623q18 44 48 62q37 23 112 23q61 0 93 -13q45 -19 67 -72zM471 304l-63 177q-5 15 -9 15t-9 -15l-63 -177h144z" />
    <glyph glyph-name="afii10018" unicode="&#x411;" horiz-adv-x="784" 
d="M754 223q0 -118 -39 -169q-41 -54 -114 -54h-453q-43 0 -70.5 27.5t-27.5 70.5v490q0 112 109 112h554v-174h-394q-29 0 -36 -9.5t-7 -32.5v-50h323q75 0 115 -46t40 -165zM522 230q0 29 -15.5 40.5t-49.5 11.5h-181v-62q0 -33 12 -41q7 -5 36 -5h133q38 0 51.5 12.5
t13.5 43.5z" />
    <glyph glyph-name="afii10019" unicode="&#x412;" horiz-adv-x="775" 
d="M745 196q0 -102 -42 -147q-30 -33 -73 -43q-26 -6 -84 -6h-366q-75 0 -104 33q-26 30 -26 78v476q0 50 24 78q30 35 79 35h380q108 0 152 -46t44 -150q0 -71 -35 -109q-29 -32 -70 -35v-4q50 -4 83 -36q38 -37 38 -124zM505 482q0 18 -12 31t-50 13h-129q-20 0 -29 -8
t-9 -30v-57h168q44 0 55 21q6 12 6 30zM519 229q0 18 -9 30q-15 20 -58 20h-176v-53q0 -33 8.5 -42.5t41.5 -9.5h120q48 0 60.5 14.5t12.5 40.5z" />
    <glyph glyph-name="afii10020" unicode="&#x413;" horiz-adv-x="672" 
d="M682 526h-359q-33 0 -40 -9t-7 -36v-481h-226v572q0 64 28 94q32 34 83 34h521v-174z" />
    <glyph glyph-name="afii10021" unicode="&#x414;" horiz-adv-x="818" 
d="M828 0h-838v174h69l189 455q33 79 161 79t161 -79l188 -455h70v-174zM532 174l-112 304q-7 18 -11 18t-11 -18l-112 -304h246z" />
    <glyph glyph-name="afii10022" unicode="&#x415;" horiz-adv-x="691" 
d="M671 0h-504q-56 0 -85 24q-32 27 -32 88v480q0 52 30 80t85 28h503v-170h-346q-23 0 -34.5 -9.5t-11.5 -34.5v-53h382v-152h-382v-76q0 -17 10 -26t43 -9h342v-170z" />
    <glyph glyph-name="afii10024" unicode="&#x416;" horiz-adv-x="1200" 
d="M1220 0h-274l-170 266q-41 64 -41 96q0 26 32 78l161 260h260l-204 -288q-27 -38 -27 -52q0 -20 34 -64zM713 0h-226v700h226v-700zM465 362q0 -32 -41 -96l-170 -266h-274l229 296q34 44 34 64q0 13 -27 52l-200 288h260l157 -260q32 -53 32 -78z" />
    <glyph glyph-name="afii10025" unicode="&#x417;" horiz-adv-x="708" 
d="M678 189q0 -115 -60 -158q-33 -24 -96 -29q-18 -2 -95 -2h-387v174h314q57 0 71 8q21 12 21 45q0 29 -19 42q-13 9 -72 9h-302v152h297q58 0 71.5 12.5t13.5 40.5q0 30 -19 38q-11 5 -63 5h-309v174h388q69 0 100 -6q55 -10 87 -43q40 -42 40 -144q0 -82 -39 -119
q-26 -24 -63 -31v-4q69 3 100 -51q21 -36 21 -113z" />
    <glyph glyph-name="afii10026" unicode="&#x418;" horiz-adv-x="862" 
d="M812 0h-230l10 411q1 26 -10 26q-6 0 -26 -34l-199 -340q-42 -71 -151 -71q-93 0 -130 53q-26 38 -26 115v540h230l-10 -401v-11q0 -24 12 -24q6 0 20 25l193 337q47 82 151 82q166 0 166 -173v-535z" />
    <glyph glyph-name="afii10027" unicode="&#x419;" horiz-adv-x="862" 
d="M688 888q-30 -88 -89 -132q-64 -48 -171 -48t-171 48q-59 44 -89 132h141q14 -32 36 -49q32 -25 83 -25q53 0 84 25q19 15 35 49h141zM812 0h-230l10 411q1 26 -10 26q-6 0 -26 -34l-199 -340q-42 -71 -151 -71q-93 0 -130 53q-26 38 -26 115v540h230l-10 -401
q-1 -35 12 -35q6 0 20 25l193 337q47 82 151 82q166 0 166 -173v-535z" />
    <glyph glyph-name="afii10028" unicode="&#x41a;" horiz-adv-x="813" 
d="M843 0h-272l-212 271q-41 52 -41 87q0 33 32 78l188 264h268l-243 -289q-29 -34 -29 -52q0 -23 37 -63zM296 0h-226v700h226v-700z" />
    <glyph glyph-name="afii10029" unicode="&#x41b;" horiz-adv-x="780" 
d="M810 0h-240l-169 463q-8 17 -11 17q-2 0 -11 -17l-169 -463h-240l269 636q30 72 151 72t151 -72z" />
    <glyph glyph-name="afii10030" unicode="&#x41c;" horiz-adv-x="1071" 
d="M1021 0h-228l8 426q0 23 -9 23q-6 0 -14 -25l-108 -338q-15 -47 -36 -66q-32 -28 -99 -28t-99 28q-21 19 -36 66l-108 338q-8 25 -14 25q-8 0 -8 -23l7 -426h-227v585q0 123 172 123q61 0 98 -17q57 -27 81 -99l113 -340q11 -32 21 -32t21 32l113 340q24 72 81 99
q37 17 99 17q172 0 172 -123v-585z" />
    <glyph glyph-name="afii10031" unicode="&#x41d;" horiz-adv-x="806" 
d="M756 0h-226v278h-254v-278h-226v700h226v-248h254v248h226v-700z" />
    <glyph glyph-name="afii10032" unicode="&#x41e;" horiz-adv-x="830" 
d="M800 350q0 -96 -11 -151q-18 -88 -67.5 -134.5t-142.5 -62.5q-58 -10 -164 -10t-164 10q-93 16 -142.5 62.5t-67.5 134.5q-11 55 -11 151q0 97 11 152q18 88 68 134t141 62q59 10 165 10t165 -10q91 -16 141 -62t68 -134q11 -55 11 -152zM568 350q0 55 -3 75
q-5 31 -23 58q-22 32 -53 43q-24 8 -74 8q-49 0 -74 -8q-32 -11 -53 -43q-26 -39 -26 -133q0 -93 26 -133q21 -32 53 -43q25 -8 74 -8q50 0 74 8q31 11 53 43q26 38 26 133z" />
    <glyph glyph-name="afii10033" unicode="&#x41f;" horiz-adv-x="800" 
d="M750 0h-226v486q0 26 -10 36t-35 10h-158q-25 0 -35 -10t-10 -36v-486h-226v599q0 44 28.5 72.5t103.5 28.5h438q73 0 103 -30q27 -27 27 -71v-599z" />
    <glyph glyph-name="afii10034" unicode="&#x420;" horiz-adv-x="787" 
d="M757 460q0 -166 -63 -220q-44 -38 -123 -38h-295v-202h-226v568q0 64 28 96q32 36 93 36h387q101 0 147 -49q52 -56 52 -191zM531 455q0 38 -19.5 54.5t-71.5 16.5h-125q-39 0 -39 -41v-109h162q58 0 75.5 18.5t17.5 60.5z" />
    <glyph glyph-name="afii10035" unicode="&#x421;" horiz-adv-x="663" 
d="M643 0h-310q-88 0 -139 16q-60 20 -100 70q-64 80 -64 255q0 190 61 268q72 91 245 91h296v-174h-187q-70 0 -96 -7q-43 -10 -64 -48q-23 -41 -23 -126q0 -84 17 -116q20 -37 68 -48q29 -7 102 -7h194v-174z" />
    <glyph glyph-name="afii10036" unicode="&#x422;" horiz-adv-x="706" 
d="M716 526h-250v-526h-226v526h-250v174h726v-174z" />
    <glyph glyph-name="afii10037" unicode="&#x423;" horiz-adv-x="751" 
d="M771 700l-377 -700h-246l112 199l-280 501h252l146 -298l147 298h246z" />
    <glyph glyph-name="afii10038" unicode="&#x424;" horiz-adv-x="996" 
d="M966 359q0 -142 -31 -204q-26 -52 -81 -70q-38 -12 -108 -12h-135v-73h-226v73h-135q-70 0 -108 12q-55 18 -81 70q-31 62 -31 204t38 205q28 47 84 62q39 11 126 11h107v63h226v-63h107q87 0 126 -11q56 -15 84 -62q38 -63 38 -205zM734 354q0 67 -23 88t-72 21h-28
v-216h20q78 0 97 53q6 20 6 54zM385 247v216h-28q-68 0 -86 -41q-9 -20 -9 -68q0 -36 8 -58q19 -49 95 -49h20z" />
    <glyph glyph-name="afii10039" unicode="&#x425;" horiz-adv-x="754" 
d="M774 0h-270l-127 197l-127 -197h-270l265 355l-257 345h270l119 -187l119 187h270l-257 -345z" />
    <glyph glyph-name="afii10040" unicode="&#x426;" horiz-adv-x="842" 
d="M852 0h-666q-38 0 -52 2q-28 5 -48 24q-36 33 -36 102v572h226v-461q0 -43 10 -54t45 -11h201v526h226v-526h94v-174z" />
    <glyph glyph-name="afii10041" unicode="&#x427;" horiz-adv-x="794" 
d="M744 0h-226v277h-317q-93 0 -134 73q-27 48 -27 120v230h226v-174q0 -50 14 -62.5t67 -12.5h171v249h226v-700z" />
    <glyph glyph-name="afii10042" unicode="&#x428;" horiz-adv-x="1132" 
d="M1082 105q0 -50 -28.5 -77.5t-81.5 -27.5h-812q-51 0 -80.5 27.5t-29.5 77.5v595h226v-477q0 -28 8.5 -38.5t32.5 -10.5h136v526h226v-526h136q29 0 36 17q5 10 5 32v477h226v-595z" />
    <glyph glyph-name="afii10043" unicode="&#x429;" horiz-adv-x="1166" 
d="M1176 0h-1016q-51 0 -80.5 27.5t-29.5 77.5v595h226v-477q0 -28 8.5 -38.5t32.5 -10.5h136v526h226v-526h177v526h226v-526h94v-174z" />
    <glyph glyph-name="afii10044" unicode="&#x42a;" horiz-adv-x="868" 
d="M838 220q0 -103 -33 -152q-46 -68 -140 -68h-434q-41 0 -70.5 33.5t-29.5 98.5v347q0 26 -8.5 36.5t-25.5 10.5h-107v174h252q56 0 87 -34q28 -30 28 -77v-142h314q102 0 140 -80q27 -56 27 -147zM606 236q0 39 -27 49q-10 4 -58 4h-164v-73q0 -23 6 -31q8 -11 37 -11
h117q56 0 66 6q23 13 23 56z" />
    <glyph glyph-name="afii10045" unicode="&#x42b;" horiz-adv-x="1097" 
d="M1047 0h-226v700h226v-700zM757 220q0 -103 -33 -152q-46 -68 -140 -68h-434q-41 0 -70.5 33.5t-29.5 98.5v568h226v-253h314q102 0 140 -80q27 -56 27 -147zM525 236q0 39 -27 49q-10 4 -58 4h-164v-73q0 -23 6 -31q8 -11 37 -11h117q56 0 66 6q23 13 23 56z" />
    <glyph glyph-name="afii10046" unicode="&#x42c;" horiz-adv-x="787" 
d="M757 220q0 -103 -33 -152q-46 -68 -140 -68h-434q-41 0 -70.5 33.5t-29.5 98.5v568h226v-253h314q102 0 140 -80q27 -56 27 -147zM525 236q0 39 -27 49q-10 4 -58 4h-164v-73q0 -23 6 -31q8 -11 37 -11h117q56 0 66 6q23 13 23 56z" />
    <glyph glyph-name="afii10047" unicode="&#x42d;" horiz-adv-x="682" 
d="M652 356q0 -115 -16 -179q-18 -75 -66 -117q-68 -60 -196 -60h-344v174h209q81 0 121 16q62 25 60 88h-367v158h367q-9 46 -51 68t-117 22h-213v174h335q138 0 208 -71t70 -273z" />
    <glyph glyph-name="afii10048" unicode="&#x42e;" horiz-adv-x="1169" 
d="M1139 350q0 -96 -11 -151q-18 -88 -67.5 -134.5t-142.5 -62.5q-58 -10 -164 -10t-164 10q-93 16 -142 62q-38 35 -59 98q-20 57 -20 119h-93v-281h-226v700h226v-264h95q2 131 77 200q50 46 142 62q58 10 164 10t165 -10q91 -16 141 -62t68 -134q11 -55 11 -152zM907 350
q0 55 -3 75q-5 31 -23 58q-22 32 -53 43q-24 8 -74 8q-49 0 -74 -8q-32 -11 -53 -43q-26 -39 -26 -133q0 -93 26 -133q21 -32 53 -43q25 -8 74 -8q50 0 74 8q31 11 53 43q26 38 26 133z" />
    <glyph glyph-name="afii10049" unicode="&#x42f;" horiz-adv-x="791" 
d="M741 0h-226v480q0 23 -12.5 34.5t-35.5 11.5h-142q-34 0 -49 -19.5t-15 -56.5q0 -39 8 -51q16 -30 60 -30h46q102 0 102 -69v-16q0 -40 -43 -97l-142 -187h-272l195 209h-30q-81 0 -119 67q-31 55 -31 190q0 112 34 166q27 42 74 57q33 11 94 11h402q47 0 77 -32
q25 -27 25 -82v-586z" />
    <glyph glyph-name="afii10065" unicode="&#x430;" horiz-adv-x="616" 
d="M586 113q0 -58 -26.5 -85.5t-89.5 -27.5h-312q-66 0 -97 28q-43 39 -43 149q0 99 46 134q30 23 94 23h232v8q0 22 -10 35q-16 21 -60 21h-266v132h351q84 0 131 -46q50 -49 50 -149v-222zM390 175v33h-139q-19 0 -28 -8t-9 -26q0 -16 9 -24t26 -8h102q20 0 29.5 7.5
t9.5 25.5z" />
    <glyph glyph-name="afii10066" unicode="&#x431;" horiz-adv-x="627" 
d="M609 248q0 -124 -38 -180q-34 -50 -100 -64q-44 -10 -156 -10q-106 0 -153 11q-74 16 -105 68q-27 45 -27 146v272q0 78 32 127q28 42 80 64q44 18 90 18h349v-134h-233q-69 0 -95 -21q-29 -24 -27 -65h168q131 0 180 -70q35 -50 35 -162zM409 238q0 56 -11 78
q-19 38 -65 38h-107v-146q0 -52 46 -66q18 -6 41 -6q43 0 63 12q33 20 33 90z" />
    <glyph glyph-name="afii10067" unicode="&#x432;" horiz-adv-x="616" 
d="M598 148q0 -79 -37 -114q-25 -23 -65 -30q-23 -4 -77 -4h-259q-75 0 -101 22q-29 24 -29 75v326q0 57 33 84q28 23 102 23h251q55 0 78 -4q45 -7 69 -32q32 -33 32 -101q0 -62 -29 -89.5t-77 -30.5v-2q50 -4 79.5 -32.5t29.5 -90.5zM401 368q0 14 -11 21t-39 7h-85
q-40 0 -40 -34v-30h119q33 0 44.5 8t11.5 28zM402 175q0 19 -11 27t-42 8h-123v-36q0 -16 6.5 -24t24.5 -8h93q31 0 41.5 9.5t10.5 23.5z" />
    <glyph glyph-name="afii10068" unicode="&#x433;" horiz-adv-x="531" 
d="M551 396h-288q-16 0 -26.5 -11.5t-10.5 -35.5v-349h-196v429q0 48 15 69q23 32 67 32h439v-134z" />
    <glyph glyph-name="afii10069" unicode="&#x434;" horiz-adv-x="644" 
d="M654 0h-664v142h53l159 335q28 59 120 59t120 -59l159 -335h53v-142zM415 142l-84 218q-5 11 -9 11q-3 0 -9 -11l-84 -218h186z" />
    <glyph glyph-name="afii10070" unicode="&#x435;" horiz-adv-x="605" 
d="M587 322q0 -71 -32 -97q-19 -15 -52 -15h-289q-2 -26 9 -43.5t37 -22.5q13 -2 51 -2h257v-142h-335q-76 0 -108 9q-52 14 -79.5 59t-27.5 191q0 103 3 131q8 62 40.5 95t105.5 44q47 7 144 7q94 0 134 -5q56 -8 85 -31q57 -46 57 -178zM391 362q0 35 -60 39q-15 1 -28 1
q-61 0 -76.5 -15t-12.5 -53h145q32 0 32 28z" />
    <glyph glyph-name="afii10072" unicode="&#x436;" horiz-adv-x="938" 
d="M958 0h-217l-132 211q-25 40 -25 58t30 72l105 189h215l-127 -207q-25 -41 -25 -49q0 -14 25 -51zM562 0h-186v530h186v-530zM354 269q0 -18 -25 -58l-132 -211h-217l151 223q25 37 25 51q0 8 -25 49l-127 207h215l105 -189q30 -54 30 -72z" />
    <glyph glyph-name="afii10073" unicode="&#x437;" horiz-adv-x="581" 
d="M561 144q0 -78 -43 -114q-36 -30 -126 -30h-362v142h279q56 0 56 33q0 35 -58 35h-262v122h263q55 0 55 32t-54 32h-269v134h351q94 0 130 -32t36 -101q0 -59 -29 -91t-77 -30v-4q47 2 78.5 -33t31.5 -95z" />
    <glyph glyph-name="afii10074" unicode="&#x438;" horiz-adv-x="671" 
d="M641 0h-196l10 275q1 16 -8 16q-5 0 -18 -16l-188 -235q-23 -29 -46 -38q-18 -8 -53 -8q-112 0 -112 100v436h196l-10 -275q-1 -15 9 -15q6 0 18 15l192 241q32 40 92 40q114 0 114 -106v-430z" />
    <glyph glyph-name="afii10075" unicode="&#x439;" horiz-adv-x="671" 
d="M561 720q-17 -81 -67 -126q-53 -48 -159 -48t-159 48q-50 45 -67 126h129q7 -25 24 -43q26 -28 73 -28t73 28q17 18 24 43h129zM641 0h-196l10 275q1 16 -8 16q-5 0 -18 -16l-188 -235q-23 -29 -46 -38q-18 -8 -53 -8q-112 0 -112 100v436h196l-10 -275q-1 -15 9 -15
q6 0 18 15l192 241q32 40 92 40q114 0 114 -106v-430z" />
    <glyph glyph-name="afii10076" unicode="&#x43a;" horiz-adv-x="617" 
d="M647 0h-220l-155 213q-26 36 -26 59q0 24 32 70l130 188h216l-157 -202q-29 -37 -29 -55t23 -46zM226 0h-196v530h196v-530z" />
    <glyph glyph-name="afii10077" unicode="&#x43b;" 
d="M680 0h-196l-139 342q-6 14 -10 14t-10 -14l-139 -342h-196l235 489q23 47 110 47t110 -47z" />
    <glyph glyph-name="afii10078" unicode="&#x43c;" horiz-adv-x="820" 
d="M790 0h-196l10 286q0 12 -7 12q-6 0 -11 -14l-84 -238q-18 -52 -92 -52t-92 52l-84 237q-5 14 -11 14q-7 0 -7 -12l10 -285h-196v435q0 49 44 77q39 24 97 24q107 0 137 -82l83 -230q8 -23 19 -23t19 23l83 230q30 82 137 82q58 0 97 -24q44 -28 44 -77v-435z" />
    <glyph glyph-name="afii10079" unicode="&#x43d;" horiz-adv-x="626" 
d="M596 0h-196v202h-174v-202h-196v530h196v-186h174v186h196v-530z" />
    <glyph glyph-name="afii10080" unicode="&#x43e;" horiz-adv-x="648" 
d="M630 265q0 -155 -70 -217q-61 -54 -236 -54t-236 54q-70 62 -70 217t70 217q61 54 236 54t236 -54q70 -62 70 -217zM430 265q0 69 -19 95q-25 34 -87 34t-87 -34q-19 -26 -19 -95q0 -66 19 -93q25 -36 87 -36q81 0 99 64q7 25 7 65z" />
    <glyph glyph-name="afii10081" unicode="&#x43f;" horiz-adv-x="630" 
d="M600 0h-196v363q0 18 -9 25.5t-26 7.5h-108q-16 0 -25.5 -7.5t-9.5 -25.5v-363h-196v428q0 48 25 73q28 29 95 29h330q67 0 95 -29q25 -25 25 -73v-428z" />
    <glyph glyph-name="afii10082" unicode="&#x440;" horiz-adv-x="615" 
d="M597 281q0 -147 -43 -208q-51 -73 -183 -73h-145v-170h-196v599q0 56 36 82q27 19 75 19h246q100 0 153 -55q57 -59 57 -194zM397 266q0 54 -9 77q-18 45 -70 45h-69q-9 0 -16 -7t-7 -18v-221h86q51 0 73 41q12 23 12 83z" />
    <glyph glyph-name="afii10083" unicode="&#x441;" horiz-adv-x="551" 
d="M533 0h-306q-109 0 -162 63q-47 55 -47 195q0 156 59 217q53 55 160 55h285v-134h-194q-83 0 -103 -71q-7 -25 -7 -63q0 -66 16 -92q22 -36 105 -36h194v-134z" />
    <glyph glyph-name="afii10084" unicode="&#x442;" horiz-adv-x="592" 
d="M592 390h-198v-390h-196v390h-198v140h592v-140z" />
    <glyph glyph-name="afii10085" unicode="&#x443;" horiz-adv-x="662" 
d="M672 530l-317 -701h-196l83 171l-252 530h209l135 -325l142 325h196z" />
    <glyph glyph-name="afii10086" unicode="&#x444;" horiz-adv-x="908" 
d="M890 260q0 -129 -44 -190q-50 -70 -172 -70h-123v-170h-194v170h-123q-122 0 -172 70q-44 61 -44 190t37 189q50 81 175 81h127v170h194v-170h127q125 0 175 -81q37 -60 37 -189zM694 262q0 67 -15 91q-24 39 -107 39h-21v-254h19q47 0 69 7q34 12 46 48q9 25 9 69z
M357 138v254h-21q-83 0 -107 -39q-15 -24 -15 -91q0 -56 15.5 -83.5t49.5 -36.5q17 -4 59 -4h19z" />
    <glyph glyph-name="afii10087" unicode="&#x445;" horiz-adv-x="632" 
d="M642 0h-228l-98 150l-98 -150h-228l211 272l-194 258h223l86 -136l86 136h223l-194 -258z" />
    <glyph glyph-name="afii10088" unicode="&#x446;" 
d="M680 0h-566q-37 0 -59 20q-25 23 -25 62v448h196v-347q0 -23 9 -32t33 -9h133v388h196v-388h83v-142z" />
    <glyph glyph-name="afii10089" unicode="&#x447;" horiz-adv-x="626" 
d="M596 0h-196v190h-241q-66 0 -105 54q-28 39 -28 105v181h196v-110q0 -45 8 -58q14 -22 64 -22h106v190h196v-530z" />
    <glyph glyph-name="afii10090" unicode="&#x448;" horiz-adv-x="864" 
d="M834 94q0 -49 -21 -70q-25 -24 -80 -24h-602q-57 0 -79 23t-22 71v436h194v-352q0 -18 6 -26t21 -8h84v386h194v-386h84q15 0 21 8t6 26v352h194v-436z" />
    <glyph glyph-name="afii10091" unicode="&#x449;" horiz-adv-x="918" 
d="M918 0h-787q-59 0 -80 24t-21 70v436h194v-351q0 -19 5.5 -27t21.5 -8h83v386h194v-386h111v386h194v-386h85v-144z" />
    <glyph glyph-name="afii10092" unicode="&#x44a;" horiz-adv-x="694" 
d="M676 163q0 -92 -41 -132q-32 -31 -95 -31h-329q-52 0 -78.5 27.5t-26.5 77.5v251q0 18 -8.5 28.5t-27.5 10.5h-70v135h214q32 0 56 -20q32 -26 32 -75v-82h239q67 0 101 -43.5t34 -146.5zM476 184q0 23 -11 31t-41 8h-122v-37q0 -44 42 -44h80q29 0 40.5 8t11.5 34z" />
    <glyph glyph-name="afii10093" unicode="&#x44b;" horiz-adv-x="894" 
d="M864 0h-196v530h196v-530zM600 163q0 -92 -41 -132q-32 -31 -95 -31h-329q-52 0 -78.5 27.5t-26.5 77.5v425h196v-177h239q67 0 101 -43.5t34 -146.5zM400 184q0 23 -10 31q-16 8 -42 8h-122v-37q0 -44 42 -44h80q29 0 40.5 8t11.5 34z" />
    <glyph glyph-name="afii10094" unicode="&#x44c;" horiz-adv-x="618" 
d="M600 163q0 -92 -41 -132q-32 -31 -95 -31h-329q-52 0 -78.5 27.5t-26.5 77.5v425h196v-177h239q67 0 101 -43.5t34 -146.5zM400 184q0 23 -10 31q-16 8 -42 8h-122v-37q0 -44 42 -44h80q29 0 40.5 8t11.5 34z" />
    <glyph glyph-name="afii10095" unicode="&#x44d;" horiz-adv-x="555" 
d="M537 274q0 -148 -47 -209q-50 -65 -177 -65h-295v142h184q100 0 123 29q12 15 12 41h-305v124h305q-4 26 -23 42q-25 20 -108 20h-181v132h318q94 0 144 -58t50 -198z" />
    <glyph glyph-name="afii10096" unicode="&#x44e;" horiz-adv-x="929" 
d="M899 268q0 -160 -64 -220q-57 -54 -240 -54q-178 0 -240 54t-59 163h-76v-211h-190v530h190v-195h76q3 100 59 149q38 34 110 45q44 7 130 7q183 0 240 -52q64 -58 64 -216zM703 263q0 70 -17 95q-24 36 -91 36q-66 0 -91 -36q-16 -23 -16 -95q0 -64 17 -89
q26 -38 90 -38t90 38q18 26 18 89z" />
    <glyph glyph-name="afii10097" unicode="&#x44f;" horiz-adv-x="621" 
d="M591 0h-196v351q0 28 -9.5 36.5t-36.5 8.5h-88q-21 0 -32.5 -9.5t-11.5 -30.5t9 -29t31 -8h48q64 0 64 -55q0 -38 -27 -79l-122 -185h-210l143 181q5 5 5 11t-13 6h-13q-45 0 -76 39q-35 45 -35 133q0 87 45 128q35 32 85 32h335q45 0 72 -23q33 -28 33 -93v-414z" />
    <glyph glyph-name="afii10071" unicode="&#x451;" horiz-adv-x="605" 
d="M522 598h-173v118h173v-118zM261 598h-173v118h173v-118zM587 322q0 -71 -32 -97q-19 -15 -52 -15h-289q-2 -26 9 -43.5t37 -22.5q13 -2 51 -2h257v-142h-335q-76 0 -108 9q-52 14 -79.5 59t-27.5 191q0 103 3 131q8 62 40.5 95t105.5 44q47 7 144 7q94 0 134 -5
q56 -8 85 -31q57 -46 57 -178zM391 362q0 35 -60 39q-15 1 -28 1q-61 0 -76.5 -15t-12.5 -53h145q32 0 32 28z" />
    <glyph glyph-name="afii10099" unicode="&#x452;" horiz-adv-x="659" 
d="M629 152q0 -47 -9 -100q-10 -57 -33.5 -117t-54.5 -105h-204q43 60 69 127q22 56 29 96.5t7 99.5v120q0 55 -29 87t-82 32h-62v-392h-196v577h-74v88h74v35h196v-35h157v-88h-157v-47h148q91 0 143 -35t69 -93q9 -32 9 -93v-157z" />
    <glyph glyph-name="afii10100" unicode="&#x453;" horiz-adv-x="521" 
d="M394 728l-192 -158l-87 108l192 159zM521 396h-288q-16 0 -26.5 -11.5t-10.5 -35.5v-349h-196v429q0 48 15 69q23 32 67 32h439v-134z" />
    <glyph glyph-name="afii10101" unicode="&#x454;" horiz-adv-x="579" 
d="M549 0h-286q-62 0 -97 9q-56 16 -89 60q-47 64 -47 207q0 132 51 193t153 61h308v-134h-226q-47 0 -71 -24q-15 -15 -15 -36h305v-130h-305q0 -31 18.5 -47.5t71.5 -16.5h229v-142z" />
    <glyph glyph-name="afii10102" unicode="&#x455;" horiz-adv-x="552" 
d="M534 138q0 -78 -44 -113q-31 -25 -87 -25h-379v142h289q6 0 11.5 3.5t5.5 10.5t-8 11.5t-61 21.5l-114 37q-83 27 -109 70q-20 33 -20 89q0 58 25 95q34 50 123 50h354v-136h-288q-19 0 -23 -1q-9 -2 -9 -9q0 -8 11 -12q8 -4 40 -15l134 -45q94 -32 121.5 -71.5
t27.5 -102.5z" />
    <glyph glyph-name="afii10103" unicode="&#x456;" horiz-adv-x="256" 
d="M226 583h-196v117h196v-117zM226 0h-196v530h196v-530z" />
    <glyph glyph-name="afii10104" unicode="&#x457;" horiz-adv-x="364" 
d="M384 590h-166v128h166v-128zM146 590h-166v128h166v-128zM280 0h-196v530h196v-530z" />
    <glyph glyph-name="afii10105" unicode="&#x458;" horiz-adv-x="336" 
d="M306 583h-196v117h196v-117zM306 41q0 -123 -77 -173q-66 -42 -269 -38v126q77 -1 110 25q40 32 40 101v448h196v-489z" />
    <glyph glyph-name="afii10106" unicode="&#x459;" horiz-adv-x="1015" 
d="M985 167q0 -98 -41 -137q-31 -30 -95 -30h-329q-52 0 -78.5 27.5t-26.5 77.5v259q0 31 -10 31q-7 0 -13 -12l-183 -383h-219l282 483q31 53 157 53q102 0 137 -16q45 -20 45 -85v-98h243q59 0 91 -31q40 -38 40 -139zM785 174q0 33 -52 33h-122v-21q0 -44 42 -44h80
q29 0 40.5 8t11.5 24z" />
    <glyph glyph-name="afii10107" unicode="&#x45a;" horiz-adv-x="1020" 
d="M990 165q0 -94 -41 -134q-32 -31 -95 -31h-329q-52 0 -78.5 27.5t-26.5 77.5v97h-174v-202h-196v530h196v-186h174v186h196v-193h243q59 0 91 -30q40 -38 40 -142zM790 174q0 23 -17 29q-13 4 -35 4h-122v-21q0 -44 42 -44h80q29 0 40.5 8t11.5 24z" />
    <glyph glyph-name="afii10108" unicode="&#x45b;" horiz-adv-x="679" 
d="M629 0h-196v270q0 59 -29.5 90.5t-81.5 31.5h-62v-392h-196v577h-74v88h74v35h196v-35h157v-88h-157v-47h117q64 0 91 -4q51 -8 88 -35q73 -54 73 -145v-346z" />
    <glyph glyph-name="afii10109" unicode="&#x45c;" horiz-adv-x="617" 
d="M464 728l-192 -158l-87 108l192 159zM647 0h-220l-155 213q-26 36 -26 59q0 24 32 70l130 188h216l-157 -202q-29 -37 -29 -55t23 -46zM226 0h-196v530h196v-530z" />
    <glyph glyph-name="afii10110" unicode="&#x45e;" horiz-adv-x="682" 
d="M566 734q-17 -81 -67 -126q-53 -48 -159 -48t-159 48q-50 45 -67 126h129q7 -25 24 -43q26 -28 73 -28t73 28q17 18 24 43h129zM682 530l-317 -701h-196l83 171l-252 530h209l135 -325l142 325h196z" />
    <glyph glyph-name="afii10193" unicode="&#x45f;" horiz-adv-x="666" 
d="M616 70q0 -32 -19 -51t-60 -19h-106v-176h-196v176h-106q-41 0 -60 19t-19 51v460h196v-359q0 -22 6 -28.5t24 -6.5h114q18 0 24 6.5t6 28.5v359h196v-460z" />
    <glyph glyph-name="afii10050" unicode="&#x490;" horiz-adv-x="686" 
d="M706 619q0 -35 -14 -56q-24 -37 -80 -37h-288q-17 0 -22.5 -7.5t-5.5 -35.5v-483h-226v578q0 58 34 92q30 30 89 30h241q34 0 40 13t6 36v76h226v-206z" />
    <glyph glyph-name="afii10098" unicode="&#x491;" horiz-adv-x="546" 
d="M566 482q0 -44 -20 -64t-70 -20h-196q-26 0 -30 -4t-4 -29v-365h-196v446q0 43 20.5 63.5t57.5 20.5h212q19 0 29 9q7 6 7 24v97h190v-178z" />
    <glyph glyph-name="endash" unicode="&#x2013;" horiz-adv-x="552" 
d="M522 189h-492v158h492v-158z" />
    <glyph glyph-name="emdash" unicode="&#x2014;" horiz-adv-x="1027" 
d="M977 189h-927v158h927v-158z" />
    <glyph glyph-name="quoteleft" unicode="&#x2018;" horiz-adv-x="349" 
d="M349 535l-146 -87l-153 256l130 77z" />
    <glyph glyph-name="quoteright" unicode="&#x2019;" horiz-adv-x="349" 
d="M299 694l-169 -246l-130 77l153 256z" />
    <glyph glyph-name="quotesinglbase" unicode="&#x201a;" horiz-adv-x="349" 
d="M299 98l-169 -246l-130 77l153 256z" />
    <glyph glyph-name="quotedblleft" unicode="&#x201c;" horiz-adv-x="618" 
d="M618 533l-146 -87l-153 256l130 77zM349 533l-146 -87l-153 256l130 77z" />
    <glyph glyph-name="quotedblright" unicode="&#x201d;" horiz-adv-x="618" 
d="M568 692l-169 -246l-130 77l153 256zM299 692l-169 -246l-130 77l153 256z" />
    <glyph glyph-name="quotedblbase" unicode="&#x201e;" horiz-adv-x="618" 
d="M568 98l-169 -246l-130 77l153 256zM299 98l-169 -246l-130 77l153 256z" />
    <glyph glyph-name="dagger" unicode="&#x2020;" horiz-adv-x="507" 
d="M477 384h-155v-554h-136v554h-156v130h156v186h136v-186h155v-130z" />
    <glyph glyph-name="daggerdbl" unicode="&#x2021;" horiz-adv-x="507" 
d="M477 20h-155v-190h-136v190h-156v130h156v236h-156v130h156v184h136v-184h155v-130h-155v-236h155v-130z" />
    <glyph glyph-name="bullet" unicode="&#x2022;" horiz-adv-x="440" 
d="M390 350q0 -70 -50 -120t-120 -50t-120 50t-50 120t50 120t120 50t120 -50t50 -120z" />
    <glyph glyph-name="ellipsis" unicode="&#x2026;" horiz-adv-x="894" 
d="M844 0h-198v180h198v-180zM546 0h-198v180h198v-180zM248 0h-198v180h198v-180z" />
    <glyph glyph-name="perthousand" unicode="&#x2030;" horiz-adv-x="1183" 
d="M1133 164q0 -91 -39.5 -130.5t-121.5 -39.5q-81 0 -119 38q-41 41 -41 132q0 90 41 132q36 37 119 37q84 0 120 -37q41 -42 41 -132zM768 164q0 -91 -39.5 -130.5t-121.5 -39.5q-81 0 -119 38q-41 41 -41 132q0 90 41 132q36 37 119 37q84 0 120 -37q41 -42 41 -132z
M665 700l-406 -700h-104l406 700h104zM371 536q0 -90 -39.5 -129.5t-120.5 -39.5q-82 0 -120 38q-41 41 -41 131q0 91 41 132q38 38 120 38q81 0 119 -38q41 -41 41 -132zM1045 164q0 48 -13 66q-16 22 -60 22q-43 0 -59 -22q-13 -18 -13 -66q0 -49 13 -67q16 -22 59 -22
q44 0 60 22q13 18 13 67zM680 164q0 48 -13 66q-16 22 -60 22q-43 0 -59 -22q-13 -18 -13 -66q0 -49 13 -67q16 -22 59 -22q44 0 60 22q13 18 13 67zM283 536q0 50 -13 67q-17 22 -59 22q-43 0 -60 -22q-13 -17 -13 -67q0 -48 13 -66q16 -22 60 -22q43 0 59 22q13 18 13 66z
" />
    <glyph glyph-name="guilsinglleft" unicode="&#x2039;" horiz-adv-x="395" 
d="M345 110l-124 -96l-145 189q-26 34 -26 78t26 78l145 189l124 -96l-97 -139q-11 -16 -11 -32t11 -32z" />
    <glyph glyph-name="guilsinglright" unicode="&#x203a;" horiz-adv-x="395" 
d="M345 281q0 -44 -26 -78l-145 -189l-124 96l97 139q11 16 11 32t-11 32l-97 139l124 96l145 -189q26 -34 26 -78z" />
    <glyph glyph-name="radicalex" unicode="&#x203e;" horiz-adv-x="487" 
d="M457 189h-427v158h427v-158z" />
    <glyph glyph-name="fraction" unicode="&#x2044;" horiz-adv-x="518" 
d="M528 740l-438 -910h-100l438 910h100z" />
    <glyph glyph-name="afii61352" unicode="&#x2116;" horiz-adv-x="1206" 
d="M1156 502q0 -70 -27.5 -96.5t-121.5 -26.5q-93 0 -121 26t-28 97v83q0 69 28 96t121 27t121 -27t28 -96v-83zM1153 230h-294v80h294v-80zM776 117q0 -63 -42 -96q-38 -29 -102 -29q-100 0 -145 69l-231 357q-11 17 -18 17q-14 0 -14 -20v-415h-174v584q0 63 45 96
q40 28 104 28q99 0 141 -65l233 -360q11 -17 18 -17q11 0 11 17v417h174v-583zM1066 535v19q0 47 -11.5 62.5t-47.5 15.5t-47.5 -15.5t-11.5 -62.5v-19q0 -49 12.5 -63.5t46.5 -14.5q41 0 50 21q9 18 9 57z" />
    <glyph glyph-name="trademark" unicode="&#x2122;" horiz-adv-x="1068" 
d="M1018 296h-99v259q0 11 -8 11q-4 0 -6.5 -4.5t-4.5 -7.5l-97 -215q-12 -26 -19 -33q-16 -14 -51 -14q-27 0 -38 6q-16 8 -31 41l-96 215q-2 3 -4.5 7.5t-6.5 4.5q-8 0 -8 -11v-259h-99v349q0 61 87 61q62 0 82 -44l104 -233q6 -13 10 -13t10 13l104 233q20 44 83 44
q88 0 88 -61v-349zM420 604h-160v-308h-99v308h-161v97h420v-97z" />
    <glyph glyph-name="minus" unicode="&#xad;" horiz-adv-x="487" 
d="M457 189h-427v158h427v-158z" />
    <glyph glyph-name="minus" unicode="&#x2212;" horiz-adv-x="487" 
d="M457 189h-427v158h427v-158z" />
    <glyph glyph-name="periodcentered" unicode="&#x2219;" horiz-adv-x="298" 
d="M248 250h-198v180h198v-180z" />
  </font>
</defs>
</svg>
